ply
format ascii 1.0
element vertex 686
property double x
property double y
property double z
property uchar red
property uchar green
property uchar blue
end_header
-0.060990107867256 -0.039752988955542 0.177849275530392 95 218 88
-0.069980530225939 -0.016160189526300 0.201648276306759 67 157 68
-0.053950650665928 0.017004572882827 0.156785014183853 41 98 44
-0.065233872855673 0.025717848947586 0.189702989005115 64 124 55
-0.062222307130576 0.003958885276182 0.181271071585411 72 164 71
-0.063151334660725 0.016087701286705 0.184331527932383 23 39 21
-0.063052860149268 -0.002375960147674 0.184756846347246 52 112 51
-0.062186812843721 0.002022551883687 0.182298839897006 83 175 89
-0.036431317003055 -0.019417594747013 0.109760918372231 55 114 56
-0.062213432034984 0.007742449860450 0.183654269327683 24 57 25
-0.061961715923844 0.007931604176823 0.182936214846990 24 59 25
-0.062256283049631 0.016307758260819 0.184130287965589 28 65 21
-0.058041267274463 -0.041075940368904 0.174624346120698 85 235 97
-0.052110214425226 -0.024412097173698 0.155934079171521 37 102 42
-0.066372745707760 -0.014848353210796 0.197007188178953 55 131 58
-0.051838648808565 0.020067737502080 0.155925187102078 58 140 60
-0.052500924985649 0.033570851099314 0.159051625346609 44 115 43
-0.061221752570458 0.001393101210569 0.184854006195484 34 72 36
-0.050811891353268 0.030223596075844 0.155813660627006 47 102 48
-0.050960440940651 0.034660732626021 0.157239715541649 45 99 40
-0.034899331035759 -0.018452023981555 0.109182575570684 47 114 47
-0.045891840121827 -0.011101709496685 0.141876087614681 42 109 42
-0.054556283778063 -0.016580990379736 0.168433309272391 24 92 32
-0.060092107567048 0.000955372450992 0.184580698704840 23 49 23
-0.034514526514885 -0.020106002242591 0.109243102800321 28 86 38
-0.058516785617523 -0.008363437187889 0.180555954111531 86 198 89
-0.059879290803534 0.007156633695882 0.184668864217348 73 181 78
-0.049347033162702 -0.021734035995714 0.154776896169698 27 69 32
-0.054102723748200 -0.040615064862838 0.171468070780629 69 201 78
-0.056612545702703 0.016807092511062 0.177067541812077 12 34 12
-0.062472181277142 0.022236451252902 0.195151617702098 60 154 70
-0.060462181899612 0.030565062432147 0.191072826985652 90 194 95
-0.043964960351642 -0.029687987471356 0.141651693997755 28 79 29
-0.033832307820021 -0.022414563075883 0.109963398259282 41 86 42
-0.053103934730549 -0.012890957064859 0.169652446599469 30 74 33
-0.047683955321393 0.034004742967343 0.154639911009884 24 56 23
-0.047676020031935 -0.026034384953861 0.154260088478684 55 137 54
-0.056064502317446 -0.012402827134390 0.179399551791212 83 188 82
-0.056251371683654 -0.008370788539019 0.180495973592817 27 66 24
-0.047284390684469 0.031621111316597 0.154217147582346 72 175 66
-0.037867055228474 0.023536496715397 0.124978816270041 49 93 46
-0.054398585925701 -0.000957960495643 0.176521387530438 48 122 56
-0.053239764434446 0.013444384192949 0.173832870978521 19 47 15
-0.053320564351375 0.013097619144376 0.174699173687143 26 62 31
-0.049322673473566 -0.019412306348714 0.163457555274401 54 120 53
-0.042520951541953 0.020358715610199 0.141902030435675 40 94 44
-0.050618346642657 -0.014231743715376 0.168537694332056 28 71 29
-0.052323036281818 0.017095899846250 0.174896455434205 58 124 48
-0.048189993886948 -0.021401306808796 0.162330573701394 41 113 42
-0.051528335792315 -0.041191015641004 0.175639011487019 91 255 102
-0.044914986086286 0.032228559436491 0.153369365705914 34 96 40
-0.051803889962833 -0.000514816797619 0.174628053689309 42 125 50
-0.051754726977828 0.001381150791268 0.175130814193379 75 168 74
-0.052708141094990 0.004189634203334 0.178288181428277 42 116 43
-0.051204173032208 0.009334514697865 0.174143744289988 27 53 24
-0.050820404096432 0.008294996426434 0.174161153039588 33 88 37
-0.050177256249771 -0.040893657996516 0.175074050398907 51 170 58
-0.030884061234303 -0.020785435636974 0.109161660342889 40 88 35
-0.046654371159224 -0.027429919330590 0.162617837325043 57 136 57
-0.049831158421423 0.021636316310904 0.174207774615496 45 104 47
-0.044913140465220 0.021794468035503 0.157679980202131 78 184 74
-0.037862373322945 0.022071875855149 0.133959438829715 46 101 47
-0.049791949811688 0.001802942991555 0.173936924373959 43 93 43
-0.045344662780649 -0.023173862676118 0.162246119011116 49 111 49
-0.047003023350367 0.010005484879927 0.167301010666811 38 92 43
-0.052074694365769 -0.012905128309265 0.185445941419748 67 171 74
-0.048255805111794 -0.003605431560026 0.172095526901191 50 120 52
-0.041105233870002 0.025955483176848 0.148633055254502 35 84 42
-0.048958229290139 -0.040961924916587 0.178415009142417 102 255 110
-0.043047640911233 0.024899351669985 0.157095844525656 53 118 56
-0.045842022910648 0.005005111719102 0.167835435619995 18 46 16
-0.046001629769253 0.012532983073371 0.168636677078733 31 92 36
-0.045572631137291 0.031643277474042 0.169233050336546 48 88 40
-0.039511330970058 0.014319706740219 0.147614323488093 44 100 47
-0.046861006381751 0.024866446971564 0.174580364926739 35 84 36
-0.053243912806526 -0.020871228732195 0.198511311049277 75 170 71
-0.046254795179040 0.021416703880855 0.175037942540491 32 72 32
-0.043843493626642 0.031427216009617 0.167869457080866 51 133 54
-0.044503625031305 0.034536657097960 0.170614418002386 47 126 54
-0.045939473915701 -0.040274312341171 0.177743028827652 79 235 87
-0.025418755631867 -0.000642520742436 0.099782088557576 39 99 45
-0.045525519441018 0.021374852615254 0.174589048432172 22 75 33
-0.043432599723953 0.028820314495068 0.167518252369090 65 161 68
-0.041890705653964 -0.023771919606887 0.161967586363425 69 161 75
-0.045089824228995 0.027121344345504 0.174193696327453 30 61 28
-0.042756877175967 0.010924188418309 0.165232003622043 59 129 56
-0.044478325583376 0.014662999446951 0.171792175086486 36 96 36
-0.031705510777128 -0.021126522323217 0.125289061901084 32 78 29
-0.047372316228342 -0.012319131176093 0.183124667635426 41 94 40
-0.044024720467908 -0.002545417586176 0.171196210219862 21 60 23
-0.043669109127248 0.015087824936854 0.171778047642179 18 39 15
-0.044502555346621 0.024238881277903 0.175537218404450 42 108 46
-0.036083894687163 0.002789769766672 0.143342948774152 34 91 36
-0.043830676953148 0.027333893517241 0.174028882729177 13 27 13
-0.043745568288049 -0.036651200498036 0.175208936209208 62 151 64
-0.044075288009572 0.025505012473765 0.175568694736750 37 99 44
-0.040460446329318 -0.023257180399399 0.162206610676176 35 82 35
-0.040869501831183 0.030917115182712 0.166811349884615 43 92 41
-0.034618836182558 0.000041064893104 0.142827143593170 56 118 47
-0.042077473969969 0.017905451309637 0.172778053996541 55 119 52
-0.040703762761948 0.030189324320641 0.169142063001788 33 78 35
-0.034050131037714 0.007414018111713 0.142660470984819 40 80 37
-0.041357529003688 0.026400986440230 0.172961657356622 33 98 39
-0.039725744268480 0.030270684608817 0.168382149901457 18 47 15
-0.038340917564249 -0.028058977586245 0.163976881518920 65 144 61
-0.042940190773163 -0.016445453672549 0.181847010689820 38 85 39
-0.033347583144854 0.001759403529411 0.142424655532026 47 104 47
-0.041521203840818 -0.018647743187036 0.177895170376649 48 105 45
-0.043171942987997 -0.013341261033231 0.184420827315348 50 125 58
-0.031910637225422 -0.003253166728121 0.137898261119513 41 87 38
-0.037970801740074 -0.021466581624929 0.164299792645929 54 123 55
-0.039217714835658 -0.040497896461393 0.172928994796049 102 255 110
-0.037005288783141 0.010924995250870 0.161401569401678 42 108 42
-0.032252011674172 0.006034463659996 0.142099217931902 38 89 39
-0.040970982552611 -0.016136467974292 0.180752835238853 28 76 28
-0.037723948459765 0.028173822935415 0.169707358270237 49 125 55
-0.040273597245058 -0.016778997894797 0.180540065157058 32 76 33
-0.034003755645148 0.012799254499784 0.153469628921343 32 82 33
-0.038099208894353 0.021140243189718 0.171591105100942 33 90 30
-0.036267943698663 -0.032456977492890 0.166229988832817 45 96 37
-0.039360786390695 -0.021138295268451 0.178679808319591 31 72 31
-0.036794795156737 0.021733823927719 0.171233600609608 32 80 34
-0.036653480236885 0.029900366915527 0.171317663932892 55 99 50
-0.034072499616055 -0.001156654888890 0.159133168203783 44 110 45
-0.035313094961264 0.035968435010867 0.166905971846485 56 134 47
-0.035908278677893 0.003046708637017 0.168251203277599 15 55 21
-0.034572004438307 0.016934046855679 0.162747531466150 36 87 38
-0.034342114490130 -0.026821227993562 0.163179573683016 43 109 40
-0.037641951669653 -0.020154372789981 0.177541087089448 45 134 40
-0.035706465277836 0.003661851297917 0.168250366311599 14 25 15
-0.036182991517494 0.008061393995665 0.170501514645815 49 117 48
-0.036175460471552 0.009303983587363 0.170506818792074 26 46 22
-0.036155227375002 0.020276966425652 0.170981376557125 43 114 50
-0.038058552957170 -0.011706417173512 0.179982610268481 40 117 38
-0.034438984862305 -0.008951943111593 0.163477539869395 38 100 46
-0.035743400845929 0.007642986862800 0.170330971582622 19 38 15
-0.035252385771902 -0.039802256367078 0.171337658231358 102 255 114
-0.033847516917616 -0.034443085767873 0.166992893151449 44 115 46
-0.035197079115949 0.027748185076359 0.172788069359957 27 63 22
-0.034299376769280 0.031896450440440 0.170895453928593 46 117 51
-0.036044886753914 -0.017288828287025 0.180847546362708 68 150 74
-0.031365451031256 -0.000179535242723 0.157933257657525 43 104 43
-0.032028761415411 0.019395725409515 0.161802821501029 38 103 41
-0.032564523611310 -0.033755205329985 0.166427003376576 42 81 31
-0.031937272254154 0.015531104484672 0.162053752993240 40 104 40
-0.032234666254958 -0.032014711323968 0.165599516135974 74 146 75
-0.029721576150500 -0.023745346491606 0.152678990956322 37 99 38
-0.030929950842218 -0.004260944734621 0.159516535640864 37 89 40
-0.032290753360224 0.008655865488485 0.169337509462419 35 92 40
-0.030596018433029 0.016733482419090 0.162168464369336 54 127 54
-0.026334976584607 0.019696501698085 0.140840100158349 39 94 39
-0.031502101765625 0.033019632163593 0.170152649232429 58 130 61
-0.029824323140240 0.011749135084388 0.160931886691498 36 81 33
-0.031821783046175 0.030235936151053 0.172534251273226 34 71 32
-0.030477084405232 0.036750580279086 0.166361790579689 51 118 53
-0.027777815630956 -0.025308499236957 0.152115591595242 39 94 46
-0.030249200491582 0.036120272874281 0.166122729573828 34 116 36
-0.030196361151082 -0.035206460465632 0.166557635262252 82 187 83
-0.031265065307814 0.004974215113855 0.170235481543237 68 151 69
-0.031019871737453 0.030895796155384 0.173789334317674 43 117 47
-0.029309646604557 -0.038117383833217 0.166382866170354 67 165 62
-0.030155650500693 0.008643163696471 0.168766494275980 39 83 34
-0.029031969061309 0.035306562528581 0.165820948559645 32 77 34
-0.028895014075639 -0.032275418436246 0.165616187669027 64 130 66
-0.031467991627143 -0.018287006489391 0.179564503621588 33 65 34
-0.024123224867091 0.019021595822643 0.140577475214887 30 79 32
-0.026232595194345 0.000780007093611 0.152525797123928 40 102 43
-0.024840145583523 -0.004719864668720 0.145818164537393 44 112 48
-0.023494578888098 0.017707947400381 0.140721688261093 24 78 35
-0.025106577614158 -0.023003893915134 0.151145179706665 71 169 72
-0.023257807402837 -0.027745379968505 0.142025256470648 51 124 44
-0.023842009504991 -0.024255197528198 0.145053434157183 64 147 68
-0.029579512334114 -0.014584566521741 0.177231821541091 41 107 40
-0.026991841270103 -0.037551614755892 0.165472421055021 61 161 66
-0.026391009232725 0.010155635422898 0.159974148307942 49 124 53
-0.026651877777466 -0.038438352359577 0.165890741374298 135 255 126
-0.028875975009820 -0.020415527660776 0.177177140091213 35 83 35
-0.027446105788546 0.007818683604853 0.168328716451627 30 67 29
-0.023171021719130 0.032808912547864 0.147107887965515 41 95 43
-0.021790596623744 -0.028912342522954 0.140415182283855 55 133 49
-0.023653354897020 -0.020264382565345 0.150895895978279 53 126 56
-0.028821623796264 0.029585022904356 0.182909447044916 45 100 50
-0.027604084188671 -0.013804977281354 0.175598027015624 28 75 30
-0.027515130791977 -0.017551507485188 0.176529251860653 51 138 59
-0.022277566139462 0.032268989731591 0.146918237211326 42 82 38
-0.021031738988679 -0.005888311146005 0.140576947947909 72 139 65
-0.024589362755295 -0.002178829388385 0.163001056691414 28 56 26
-0.014060539032985 0.019037990144062 0.096927881167723 38 95 45
-0.025734304227900 0.015346963314420 0.171982916555631 27 69 31
-0.020825854192527 0.016568579901859 0.140782087097662 33 81 39
-0.023874117712685 -0.035063021858211 0.162898182003168 54 139 54
-0.021826128487725 -0.022623796348005 0.148634198394315 53 131 60
-0.027398904723377 -0.000719518119605 0.183565112770138 61 143 61
-0.020671195530050 -0.024538950916563 0.143591527236998 56 128 57
-0.019885150936432 0.004915513305179 0.137496664703941 49 85 43
-0.023183442557284 0.014979897418265 0.159388988701915 29 57 27
-0.023173366066269 -0.038367077166263 0.163804195155294 79 219 84
-0.019833316522810 -0.028318599422863 0.142914816783722 86 188 82
-0.019941560467557 -0.026224829652165 0.143449019944750 51 122 49
-0.025623391118059 0.030172958609790 0.182198879050971 30 76 29
-0.025398964048225 0.028175203802843 0.181974486723886 34 72 37
-0.024026921508788 -0.012320012013887 0.172895763796272 32 85 35
-0.022994699060493 0.010157304909254 0.165803717015796 49 107 54
-0.024710451161356 0.033027039373088 0.182265846706629 13 32 13
-0.021343861168180 0.014536660001946 0.158612014437595 39 114 44
-0.019323867905828 -0.022964843184834 0.147351334894383 62 129 61
-0.021548375502613 -0.003759634651959 0.162453139622453 53 101 51
-0.021960239364078 0.012083390137509 0.167129474496112 8 24 5
-0.017902841666009 0.015025104928546 0.140323803327481 29 71 23
-0.017124854541765 0.018280769602965 0.134769202145091 40 92 40
-0.013816334961288 -0.012783975889141 0.113046270564837 60 130 56
-0.021398063660271 -0.036409547184479 0.173918223038204 65 135 64
-0.019598610137234 -0.007319121970210 0.158162336901579 18 37 16
-0.021530200852841 -0.013548894338379 0.174778114625039 57 114 61
-0.020259501087508 0.009713823669404 0.164875930543762 45 118 49
-0.013490091986075 -0.015193235810027 0.114837143640043 87 196 94
-0.021761920254765 0.040010610637606 0.182426067952842 42 105 43
-0.021857749601638 0.004693561263761 0.182288031895294 6 10 2
-0.021593303126649 0.004237449219681 0.181946107051345 26 62 31
-0.018912093637887 -0.029390029440984 0.163255710125583 69 151 72
-0.019490278229152 -0.038515627475098 0.170581635115486 69 142 68
-0.018709316004762 -0.024410393701908 0.162778268889580 69 153 69
-0.020531316613474 0.000641735330874 0.176832786962396 48 127 49
-0.017881548587316 -0.003062486617085 0.158212971919995 65 146 73
-0.019033293116756 -0.037181441139634 0.171765867326608 58 153 56
-0.016979282568668 -0.009732692420652 0.153909106979622 38 87 36
-0.014650697296830 0.021321097014749 0.134581351287067 48 119 53
-0.011904708765544 -0.012915318506769 0.114012720247975 59 140 60
-0.017746112694612 0.038190910875545 0.168080358276983 51 113 45
-0.017149292594507 -0.025845906257645 0.163065806401293 81 155 71
-0.014649119032377 0.014164501955708 0.139933286686065 44 112 49
-0.016870721338144 0.031282298146715 0.161238143418261 40 110 47
-0.015479262858984 0.012218351073090 0.148923706209938 47 106 43
-0.013838382400716 0.015820572983956 0.134187384233203 42 106 43
-0.016490940589924 -0.031694854992014 0.164854419487714 66 154 63
-0.015662479145011 -0.001665105834622 0.155474131875999 45 110 51
-0.012347816050065 -0.003970069561351 0.125734814137867 47 125 59
-0.010315079051557 0.002638841979260 0.108825269940616 43 99 42
-0.010732009426093 -0.014767497066317 0.114622825635346 57 120 53
-0.012687612239090 0.015644609091344 0.133998069494181 30 65 26
-0.013532104973885 -0.012531511589043 0.143893529487508 55 116 57
-0.012935617136063 -0.009779116818483 0.137823226892379 50 135 57
-0.011661711101326 -0.003487848221570 0.124929845529587 21 52 21
-0.012520843530405 0.018872074916819 0.134142706231646 8 20 9
-0.014697253617502 -0.038177115023527 0.159583551171386 61 170 70
-0.015853171890133 -0.037895953901789 0.171187242397961 99 255 102
-0.012359561404712 0.019520282866601 0.134189994691261 40 100 45
-0.015545245752420 -0.034334495101566 0.169752260363479 67 178 67
-0.015076349494170 -0.032275198683235 0.164743967737775 34 74 35
-0.013185139702652 -0.013586909100666 0.143963801456000 35 71 30
-0.014666202710609 -0.024828236996135 0.163947360146847 46 117 53
-0.013615902178596 0.026566775298426 0.159273336690044 34 94 36
-0.011227940455739 0.017266078637139 0.134052292810280 43 115 45
-0.009943379401652 -0.005769631634915 0.122542987347070 60 126 61
-0.008743658079283 0.003805673837181 0.108711338645957 63 136 66
-0.010748023533190 0.009183413528773 0.133742177434226 33 84 36
-0.010564224598696 0.014013791188054 0.133682468948601 44 114 49
-0.012620115175576 0.028251548250818 0.159089764496025 50 127 57
-0.010964229514527 0.029778135681150 0.139629291779873 35 97 43
-0.009952429344374 0.001826387211968 0.127925653313367 55 122 47
-0.010238820901878 0.011750981171071 0.133555747009221 44 84 38
-0.011961029405502 -0.037484254987642 0.158955062648809 94 255 107
-0.012769357289184 -0.037386721190199 0.168900727528303 72 219 79
-0.009371986080914 -0.013178642521995 0.126762647521341 62 152 66
-0.008890761897796 -0.003840865034789 0.122276643271570 61 133 60
-0.009439691282214 0.008728053387746 0.129419565489315 53 107 52
-0.007887796281620 -0.002525311528726 0.122699617659578 52 117 52
-0.008896116002999 0.030786158389929 0.138964116967065 43 96 45
-0.007214235196892 -0.005496191205083 0.114986877338908 64 114 51
-0.008042714827419 0.003665434418979 0.127188394694115 41 62 32
-0.007681463301833 0.012956031578252 0.126639194300198 94 100 67
-0.008904128137155 -0.022918596692589 0.148763730365000 62 95 47
-0.007696329332669 0.009180100718607 0.129126993291195 54 85 38
-0.007498263189178 0.004784841822015 0.128352980502506 56 106 42
-0.008925336194899 -0.036364672436823 0.166114826575087 52 186 66
-0.007900638843880 -0.010287634404406 0.146343370542436 36 81 32
-0.007067281963737 0.007462351467813 0.134603873346073 55 136 57
-0.006739678388422 -0.016738034620464 0.134973808334642 81 159 68
-0.006767882656542 0.021276458609506 0.138975290077643 30 62 24
-0.005260345758566 0.023392835727952 0.110135900670009 36 93 35
-0.006407234170674 -0.018360705884095 0.134971320924572 34 101 45
-0.005409701679199 -0.005214388134542 0.114851898059733 53 138 57
-0.006550023930165 0.026116666315709 0.138399483451095 28 79 32
-0.006908370013084 -0.023994668407397 0.148739240872248 71 168 68
-0.006295205164171 0.002413207412846 0.135448281383255 76 149 64
-0.006904394277308 0.016145889458978 0.148190962705145 42 102 41
-0.006644842039038 -0.015645591237061 0.146483727063123 48 111 49
-0.006313987768523 0.020773382332008 0.140004449947044 46 109 43
-0.006037739287279 0.023746357632824 0.137967575796466 38 91 36
-0.005686394221933 -0.003761364877131 0.132966645343077 21 26 17
-0.006905783062305 -0.036573794757944 0.166120444386926 70 228 78
-0.005154710824666 0.004071098680207 0.135821748814348 43 95 48
-0.005634927969037 0.016320477035803 0.148116642342264 54 115 50
-0.006123131018233 -0.033682396441857 0.166440625444235 67 148 68
-0.005741413832127 0.013552707630126 0.155295784580454 39 100 43
-0.005546006843715 -0.012488955155030 0.155058861932488 65 130 61
-0.004757842970173 -0.000539797063707 0.134053906940034 68 162 66
-0.004808078548471 0.003401170744007 0.135399886090121 53 136 62
-0.005333225073339 -0.037828311013374 0.156498715737680 64 206 75
-0.004533756344108 -0.004064539576902 0.132420755282397 59 147 68
-0.005014731434000 0.014999593828075 0.150962909389382 48 106 41
-0.004484496001902 0.026450779501844 0.136769606654205 37 96 41
-0.003947621952290 0.001906802691292 0.134256529577527 54 157 59
-0.004453249595119 0.012920162363876 0.156736672776408 23 40 14
-0.003692419105579 0.005763410804799 0.136801348295690 47 105 53
-0.003792919373149 0.020296145368938 0.147156603864044 42 106 48
-0.003517768685275 0.023325636915553 0.137394118282241 20 54 28
-0.004064375488765 -0.036065754571805 0.165584016561689 101 255 113
-0.003683029289761 -0.026670141984675 0.157501460256081 53 112 49
-0.003450261578350 -0.017747567428374 0.147576938925421 44 103 41
-0.002950423797383 0.008647804145827 0.149156642688571 66 158 66
-0.002732846310647 -0.015606940140756 0.147636788063775 71 135 69
-0.002335220898684 -0.020678446503210 0.136215273595897 65 143 64
-0.002598803662692 0.015837185902823 0.150209763246042 43 103 47
-0.002354538192336 0.022515463278235 0.137419975807722 47 121 50
-0.002469887899036 -0.037110320507733 0.155091632768514 92 238 100
-0.002526423042160 -0.013193469627942 0.156500695730910 29 89 35
-0.002699062298111 -0.007968110022589 0.166366965540836 37 69 34
-0.002008855708444 -0.016852031856768 0.147557557266077 60 143 67
-0.002142511587805 -0.011467172939935 0.156464442153017 76 151 83
-0.001638047313044 -0.000045407291627 0.132807691280539 41 117 35
-0.001621459070898 0.021131068190279 0.145637079007028 32 103 38
-0.001324813318351 0.004177843705540 0.133800067354271 79 166 86
-0.001376396239796 -0.027843618424359 0.157686347830477 48 115 48
-0.001356106788638 -0.004868470581791 0.154450997487549 39 76 39
-0.000992724934390 0.001731707292508 0.133030932365100 63 152 72
-0.001196385699215 0.013453410948826 0.158431843173231 51 126 44
-0.001123763282522 0.017591358657609 0.149672165425013 50 106 48
-0.000929462032881 -0.017980627450130 0.147971687516671 28 53 18
-0.001105359451149 -0.010917711455545 0.173484736695956 14 41 19
-0.001001697954175 0.012288455157921 0.158373219911988 25 55 27
-0.000666778161195 -0.005688160839117 0.132738276358042 55 111 55
-0.000765462281984 0.014816975207568 0.150915716451605 56 121 62
-0.000592444915547 -0.036727484637635 0.155010296721458 60 175 65
-0.000612629062517 0.010350498007727 0.158343142296294 45 107 42
-0.000026461478511 0.014823461083368 0.150978644390078 21 48 18
-0.000021319050740 0.030070960329145 0.131714420174484 43 107 42
0.000164004769210 -0.030815211976452 0.159268524282358 70 144 67
0.000151927942133 0.021076613368884 0.145270492025147 39 122 43
0.000359477176004 -0.037482375726494 0.160998347734533 105 255 111
0.000505900461670 0.019314467544162 0.145144927190524 58 120 57
0.000626277511785 -0.003592033117056 0.132714179643191 23 62 20
0.000626591299066 -0.000528967875634 0.132752292927622 69 153 70
0.000630635803677 0.005633674937376 0.133656708056428 44 122 53
0.001111528469724 -0.005246447769865 0.154422848181376 35 91 37
0.001283762202808 0.007592207799796 0.133900777207136 70 147 75
0.001524608215961 -0.011062894001437 0.140855027770779 28 65 33
0.001463865228895 0.021827646304943 0.136233708592518 49 131 54
0.001465856656047 0.024494927088880 0.136651395747089 42 100 44
0.002467636657112 -0.036699372301207 0.170929760314588 85 219 87
0.002133198227068 0.027537094156249 0.137310643823242 46 109 48
0.002719469713441 -0.037698850261111 0.161882667131728 83 236 94
0.002173944681709 0.016360879552417 0.129363358640571 45 102 44
0.002139000252311 -0.004922787369729 0.111878770334999 66 128 61
0.002591239996114 0.005810300527878 0.134010852893397 74 157 70
0.002727855875737 -0.002786500222390 0.132733721040144 37 98 40
0.002928966952193 0.003731025822118 0.142000738379493 50 165 78
0.003157389760643 0.021415638466795 0.145230006983162 60 142 64
0.002503931170777 -0.016008210644538 0.100888445268707 58 134 53
0.004107866906861 -0.014400855718827 0.135810679761563 38 97 41
0.003103137654635 -0.014699068762730 0.100839237330393 58 116 55
0.004227852771968 0.016888868405268 0.134624607044010 55 125 60
0.004048206574251 -0.023912734755237 0.125264658052762 43 117 44
0.005814777798939 -0.036982461263205 0.171317582925254 84 230 99
0.004551334645034 0.010856478852655 0.134225377780983 55 133 61
0.004943251823342 0.020784755392830 0.145703000731246 57 137 60
0.004744405227079 0.031660431236691 0.141215693561084 51 124 54
0.006006849747479 -0.037503946042076 0.170938100615888 47 130 62
0.005263128144929 0.006768119018559 0.144080965907639 65 139 67
0.005372649932339 0.025556757369292 0.148045910523039 48 111 54
0.004651560615580 -0.022863462742683 0.125205733629997 61 118 49
0.005210560977202 -0.007392087739371 0.134256693140939 60 137 63
0.006400323855505 -0.034063288512673 0.160266625710655 67 141 67
0.005318021714377 -0.001498760739342 0.132848916550486 42 105 47
0.005375399496244 0.014781558503005 0.134604832654349 53 151 56
0.004061862807246 -0.016253184849037 0.100950745583619 86 192 88
0.005549536203614 -0.009208604084050 0.134591254663015 48 105 47
0.005831633920882 0.029787640896403 0.142521175757973 61 144 66
0.006200770076051 0.020480944798158 0.146046918991428 49 125 49
0.006643011958004 0.027751622053918 0.148506948947886 56 134 72
0.006610729806297 -0.000956395268424 0.142746025376776 13 57 31
0.006679935785873 0.006246085805256 0.144239111025464 28 64 28
0.006367157102817 -0.010351501050987 0.134617472642689 62 136 59
0.006347391488203 -0.012730801773519 0.128157723452394 49 121 49
0.007326337031563 0.019927790441107 0.147134580392024 49 131 56
0.008252321647054 -0.022665069795589 0.157484482317658 32 74 33
0.007853746591230 -0.005418016952347 0.149487364607626 37 101 37
0.007855608436314 -0.004504110139023 0.149506432666188 19 37 15
0.007505440060129 0.003581635561465 0.143188827006829 54 138 56
0.007015404805138 0.013323065219250 0.134650051094756 75 150 69
0.008040339837775 -0.035501540738619 0.151666866313528 103 252 111
0.008811598166028 0.027848258906136 0.157768364109948 66 148 67
0.008476441582689 0.018297924018738 0.148276160475710 57 120 55
0.008386238106039 0.028626474469112 0.147662649013188 57 133 59
0.007980949760591 0.032338869305662 0.141372238203515 48 134 58
0.009593130407917 -0.031053317366383 0.164347233642166 42 86 33
0.008774258630117 -0.007619275205000 0.149630631823573 47 114 56
0.009868745799622 0.010941069409129 0.167466666710588 63 143 68
0.009336510614015 -0.034999507980631 0.151833988432559 97 248 102
0.008897823306171 -0.000786212539137 0.143074124511334 41 82 33
0.008698510041466 0.015951875455555 0.140519356429428 37 103 37
0.008057459706342 -0.015371724828341 0.128365300712326 47 105 51
0.010147934234215 -0.026057463000799 0.157383293289099 62 149 63
0.010930726650285 -0.005649113275261 0.164788767598376 66 155 73
0.010707856220373 -0.032371612555966 0.160484732586895 53 105 49
0.011714947487954 0.008050118304584 0.167293796877089 45 114 51
0.010072848773731 0.027983709223735 0.146248902769684 49 129 50
0.010244135926296 0.003261413304946 0.144767895723958 63 134 58
0.009970133000252 -0.009877881058071 0.138987395043557 60 137 63
0.007731930400852 -0.010233857471854 0.107911795507973 48 122 56
0.012031713495613 -0.001774595963908 0.163286894137165 63 147 65
0.012695893307529 0.028130465016779 0.170614870362431 12 19 8
0.010234922686215 0.027746830670315 0.139293495929800 67 151 67
0.012105351841278 -0.027299157290427 0.158023676901540 99 162 79
0.011964639916754 -0.018781238152826 0.155636260250935 40 101 45
0.012630209862987 0.013662895488268 0.161188528896018 52 112 50
0.012550418945714 0.020707922469280 0.158321870078377 87 179 85
0.011150136972265 0.029784762983786 0.140408193832921 24 49 22
0.011757356760175 0.023574355204111 0.144899273608784 51 131 51
0.014803238585948 -0.007420714146835 0.176693214479361 47 104 44
0.013239423121986 0.019319473207839 0.159484309907641 49 118 49
0.011384116371646 0.030015834686141 0.139250159867793 57 130 54
0.011520154007765 0.029267737351749 0.138820854511074 50 128 49
0.014952326097328 -0.037287514466401 0.175647485834265 69 192 70
0.015017336561814 -0.013543055013390 0.174446286831833 64 144 64
0.014414604843156 0.010183478521263 0.165467853400470 53 120 54
0.013855191462598 0.016435344735468 0.159657499366710 51 110 49
0.015006990357080 0.004546666871938 0.167300984157590 75 174 77
0.013932129742935 -0.020685353144829 0.154533409745027 52 140 68
0.014830580614444 -0.004183545138003 0.163270384085376 90 185 85
0.014457848848155 -0.027202930181693 0.156587886455158 50 117 52
0.013624882896067 0.001846265385028 0.145065091263157 65 167 83
0.016280550497921 0.025270427004803 0.170887955960093 25 59 27
0.016899749180528 -0.037766189078726 0.176002531158600 106 255 107
0.013648718779776 -0.013739756010541 0.142143688196636 29 91 38
0.016701519309728 0.025899576939197 0.170992625755373 29 62 30
0.014194251491433 0.000079859059120 0.143752229993405 61 135 70
0.013601099642677 0.029255761843562 0.139610583248001 55 142 55
0.014089520622288 -0.012973397856863 0.141392158016808 70 173 73
0.016223370232992 0.018992286480189 0.160141442747852 50 129 56
0.016218121970546 0.019376627956698 0.160118725641182 26 58 23
0.017714082847624 -0.035097276278050 0.173389092626429 41 81 39
0.013198527750404 0.023002454781239 0.130650286250597 76 150 70
0.016256209727645 -0.024936811936054 0.155519328714890 36 123 37
0.018425328290440 -0.011663893353002 0.172371232700279 49 137 48
0.018440766570632 -0.010612093735843 0.172473154652302 22 49 20
0.018870087321782 -0.037853054271602 0.176482820021568 103 255 122
0.009714486893248 0.007017507189071 0.093458619871121 49 111 44
0.017611443714685 -0.038799757334939 0.162164463465374 98 191 84
0.016758935145088 -0.020075670495829 0.153001580315128 73 161 64
0.010582288306758 0.004619349100081 0.096084704910521 72 164 76
0.016795632293373 0.030750339512090 0.148222174609185 85 181 79
0.016625538831562 -0.015150923184888 0.144056790497734 79 172 81
0.016107714983508 -0.005842654612585 0.139487955833714 25 49 29
0.016564339270509 -0.000967289567112 0.143170243252417 56 144 54
0.016144061632494 -0.006295255369308 0.138426780154011 63 126 56
0.017771399458679 0.015617807874687 0.150524839622591 59 124 65
0.018982502883241 0.027406927453161 0.161135790597472 68 176 71
0.021719240513437 -0.013642520485130 0.178481091352910 12 31 15
0.016686013452962 -0.003278730520033 0.138695792362354 56 130 63
0.017894560145592 0.028036883577703 0.149598127450999 68 197 83
0.017442446762371 -0.011782734926698 0.143491563209192 79 150 74
0.017455915388635 0.001297551555003 0.143370613136271 63 127 65
0.020836196097485 -0.038687172364159 0.168898329876114 98 248 99
0.021749345834881 -0.033743593128713 0.172094672070345 44 120 53
0.018896127167695 0.031500238463489 0.149401425578152 67 174 79
0.012075352871134 0.005868536895107 0.096240861251982 52 117 47
0.020707090968826 0.025597626336636 0.160795426585489 48 132 58
0.019250513460947 0.029069185019884 0.150434057358928 40 99 38
0.022720410010943 -0.037328223064304 0.173515616839373 106 255 110
0.019945901775383 -0.023051479272591 0.152205423104611 50 116 54
0.020851269121636 0.021831760945978 0.158727143428251 62 145 67
0.022432834127205 -0.038774556340807 0.170174928037616 137 255 134
0.023198336382310 -0.011507791622577 0.170481962720108 91 189 90
0.019428569277655 0.001995985924891 0.143849419768157 74 150 65
0.019089279263407 -0.003459448547005 0.139124799478272 53 114 47
0.019770810562644 0.000771097420895 0.143808756830636 43 113 34
0.021445217310370 0.017862794387598 0.155945935523437 59 142 61
0.018953692916177 0.005236640180861 0.137088016149216 48 112 60
0.021735677049446 0.015903113465627 0.155247726962482 56 119 57
0.021671174308031 0.017401043277574 0.153645453478981 16 25 11
0.023775212220527 -0.037943664625177 0.166851183603233 210 255 165
0.022893176663711 0.022705220833626 0.159655208937733 55 116 50
0.020667069125143 -0.001315494206653 0.142867801130494 75 166 68
0.016111234938711 0.006527355782974 0.111334761843423 70 155 75
0.018694614587911 -0.022540823749126 0.127856644362669 49 107 50
0.025754202106519 -0.038817705682127 0.170583133122365 92 252 98
0.025874843596197 -0.010153617015776 0.169094286382284 73 181 82
0.023667129865501 0.019704891315040 0.155878923110321 22 37 19
0.019915152040054 0.023430801222868 0.131727070634319 57 127 60
0.023977326665619 -0.018810097375439 0.150904887311018 83 162 74
0.022403823695914 -0.014797864955085 0.141307990515619 56 132 59
0.023140090447639 0.017344304337178 0.145882799749723 66 152 71
0.023240352698191 0.006041931876368 0.144963730234554 35 88 34
0.025440957143269 0.022549215472442 0.158846766374029 60 154 65
0.028011272586685 -0.036949003474685 0.174037732650481 90 255 108
0.024270577571128 -0.010814394368024 0.149059398180231 35 69 23
0.023545002725682 0.008485747119850 0.144778847270729 47 114 52
0.028363792882781 -0.034116850421629 0.173358914629604 72 144 65
0.022612995809247 0.000582683132667 0.138238067106571 56 160 65
0.020306718601578 0.010394197800444 0.124207246801564 60 126 63
0.023756996629998 0.032999878456845 0.145801521389097 61 131 56
0.025448120359491 -0.025053867566314 0.153570490356192 94 192 88
0.021494735101890 -0.006004874507699 0.130026822603480 47 110 56
0.023761938676019 -0.002532306932741 0.142917568678127 98 195 97
0.025663778582390 -0.021200406968431 0.152427356080974 93 215 96
0.022159266564160 0.026422620988047 0.131438755330505 60 128 62
0.018616490105097 0.020387534078762 0.110469530051986 61 133 58
0.026762004521275 0.021932549584497 0.153595230011609 80 171 74
0.022624561698495 0.026570501679028 0.131452179057826 42 85 37
0.028972477564493 -0.039429565240424 0.166164249026580 66 132 61
0.027092143043054 -0.023171032925923 0.153409025510532 104 209 96
0.031399016764410 -0.037228864820828 0.175551641249872 94 255 106
0.027484246343036 -0.020958027200829 0.153388996420655 48 122 45
0.027814604334232 -0.020464724341375 0.155099880044285 22 40 18
0.024657432303637 0.004070040132166 0.137732827429938 62 157 68
0.029514452657212 -0.031332878210224 0.163964360556463 63 139 61
0.026359902798085 0.008004535878334 0.145920247956778 44 133 49
0.028054405724861 0.011877937510722 0.154982387737657 17 27 14
0.023605951120691 -0.004457083351210 0.130522624136179 67 148 72
0.023090652896061 0.022663161697996 0.128689028779059 78 187 81
0.023471650510819 0.029109434935445 0.131263963618440 46 134 55
0.023738041046858 -0.008318426476494 0.129692108602403 50 126 57
0.027035699233345 0.010529814706017 0.146801018261074 26 59 22
0.032721965371885 -0.038181213713193 0.177100604692598 71 224 87
0.032658313925994 -0.037248410745971 0.176666590839976 79 224 78
0.027143635155767 0.022891581238123 0.147193461128874 79 169 63
0.026857260665099 -0.021595533875446 0.143820028538035 80 171 84
0.027231696640563 0.013559694035216 0.145269143327850 90 196 80
0.024913205766778 0.027739692543050 0.131403975649582 75 152 68
0.031826215751175 -0.029875235473688 0.164676901793034 65 147 60
0.027874703852849 0.006144476787019 0.143926637605471 40 130 54
0.025144014223718 0.028133414904420 0.131819796206101 57 122 56
0.025142566800449 -0.010036543327761 0.129856322090129 29 53 24
0.026625318903287 -0.000749576675137 0.136918473075878 92 195 91
0.028421088019360 0.010625184590183 0.145898037893728 91 208 83
0.030249416138568 0.018111826545764 0.154320394777878 85 193 84
0.031213356413767 0.022251307130767 0.157483827200273 55 142 60
0.029541880078280 0.027182926566257 0.149890658060157 68 161 78
0.024904615882808 -0.009321988642581 0.125072810947342 66 123 57
0.028971054481078 0.006674370460642 0.144279279066017 91 167 84
0.030825741785495 -0.021758880887842 0.152899630940577 30 58 26
0.025892660101885 0.024978151593754 0.129960972527660 101 199 79
0.031736897735139 0.020389528109046 0.156307606638307 61 138 61
0.032258681849472 0.024359044079034 0.159063229920715 65 161 63
0.033706012032785 -0.037961793381092 0.166158788064370 103 241 101
0.022880510757181 -0.013895619484364 0.113780449335826 62 126 59
0.027775143101385 0.002043811083156 0.136239749845502 54 110 49
0.036764541819838 -0.037746263907806 0.178335238365016 96 249 89
0.021202973319468 0.011151611776883 0.104632756601987 56 126 54
0.030084255135190 0.032861748095093 0.147290309459448 41 121 45
0.037024001138284 -0.034336652237036 0.178180122150504 52 119 51
0.031146173156624 0.025875633719694 0.150659060087041 89 193 85
0.025741770176438 -0.017415952889414 0.124574498649049 75 167 73
0.040795167717445 -0.018521656637429 0.193073908953361 110 118 77
0.025759347876623 -0.001671719778077 0.124119391739081 59 125 66
0.034684027468816 -0.037942290811092 0.166176274661620 119 255 129
0.030368642644192 -0.006403208813858 0.144399317121889 81 155 70
0.030630600749425 0.009360260339588 0.145688822570333 86 175 85
0.029067269180443 -0.008836827374336 0.137106085033657 47 81 42
0.021750238468118 0.010376910058778 0.104322049710582 40 118 47
0.032269724829845 0.032406412339193 0.152381744771871 57 149 56
0.038074861269657 -0.033690226392847 0.177200429323307 102 232 102
0.030612971037720 0.006201066034579 0.141728553267593 57 132 59
0.022379149352767 0.012291355868020 0.105010336156606 95 208 99
0.025232412869823 -0.016973611480215 0.117242724099304 83 167 71
0.022295741993997 0.008216832691078 0.103462144244307 60 118 54
0.030450054395932 -0.009851286602799 0.137533744480898 72 149 76
0.031890278457552 0.008480287927822 0.142969559970795 88 191 85
0.033446560812598 0.027808761419894 0.150856173013283 49 94 46
0.039831684901801 -0.037601835622504 0.178029814145631 110 255 110
0.040474316680184 -0.020979435682097 0.179246513829244 44 97 43
0.032755983295385 -0.005209209723097 0.145114793870647 82 187 71
0.034238354013089 0.027680893827680 0.151210692864883 60 99 46
0.038943441957560 -0.035781113582761 0.169081388641592 110 255 100
0.026833687209255 -0.015626110370466 0.117574654345446 117 244 118
0.038899777776270 -0.038786688632333 0.168457498962172 77 223 86
0.027113761664170 -0.018696697172630 0.117786176179462 60 143 60
0.030655567250494 0.003705997060235 0.131648735442851 82 179 82
0.039855835774799 0.022535781877495 0.170108981194159 80 183 81
0.034230471900244 -0.009085216278319 0.145658502109350 114 223 104
0.031294182234184 -0.001688671951655 0.133598476853499 85 214 82
0.031239010229677 0.000873336030743 0.133371304562721 38 84 46
0.036121891177836 0.033279082727344 0.155156177543059 76 173 74
0.027412868993226 -0.017314707581605 0.117803105057643 72 151 69
0.031520191178075 0.000232460242868 0.133876067980075 40 88 37
0.027412324788208 0.012246191548767 0.117498274325414 56 131 63
0.032892428946695 -0.010229396342078 0.138293755015605 45 116 44
0.027816967643270 0.010846856863671 0.117423579697235 75 167 82
0.027255602734154 -0.012231691678228 0.114747511101543 77 167 71
0.039799999298670 -0.021621431605636 0.164207434317705 73 176 74
0.032019345171682 0.003079979018872 0.132165623134229 54 132 51
0.028302756815163 0.009475060499075 0.117678219843678 39 106 52
0.040929937689622 -0.038401608224045 0.168718354991910 118 255 126
0.028739931684879 -0.002987195523296 0.118734083014225 25 83 33
0.032374952029066 0.005589274022058 0.131790066062938 51 138 57
0.042738720969743 0.026756504576261 0.171624693806977 88 172 81
0.042226814403528 -0.037045004166260 0.169783195763373 106 255 119
0.033247630359723 0.008797792242027 0.132857743154700 51 126 47
0.042465469851133 -0.037911982040212 0.169309942119318 144 255 144
0.044772358809460 -0.031306449611498 0.176510351399693 88 226 102
0.044275606158103 -0.026954049476354 0.174252807577066 15 36 15
0.029766056306378 0.011587539844124 0.118117293390915 54 116 52
0.038578142901463 0.029602414830365 0.152541720732764 73 156 74
0.038409279889842 0.033806323374119 0.152361049263363 9 11 6
0.046548207243228 -0.037131099262405 0.181424847588900 49 111 50
0.029272228410575 -0.007645402946997 0.115163610890111 48 104 54
0.029273013307160 -0.007236423838783 0.115155446269736 63 139 61
0.029406206402718 -0.012419500074354 0.115337416108150 69 155 71
0.043951612565786 -0.037953291567446 0.170477579707981 176 255 184
0.044580350661882 -0.038992227808951 0.170753404970335 125 255 123
0.030003705846882 -0.011759411992155 0.115545441765842 54 113 51
0.036654641269997 0.025795689447223 0.140093285754729 72 131 65
0.039266541270164 0.000547048103386 0.147789380466749 72 179 73
0.031108196967947 0.010070418759106 0.118473444672595 50 106 46
0.048036084814110 -0.036287678458025 0.180681441149849 42 115 46
0.047199780866942 -0.030951397518467 0.177142405841253 120 227 111
0.047055330727119 0.022800327907864 0.174661596981598 9 17 9
0.047307416847066 -0.023226430812358 0.173303229584832 73 159 62
0.050204080476389 0.025416973266704 0.183091923437269 27 61 31
0.043934073000525 -0.037365151381521 0.159650275948389 126 255 140
0.050621615899871 -0.036883101534916 0.181806898122546 166 255 148
0.032045079990249 -0.007696993087966 0.116021264409550 91 199 89
0.032320785321506 -0.012692721614637 0.116689580555080 56 124 59
0.038205857240739 -0.004496648150871 0.136049706176160 74 162 64
0.039877410351194 0.028334608232811 0.142555782912862 40 71 36
0.038617921787828 -0.001743676135638 0.136357050603869 66 139 54
0.045729779189943 -0.035615791223446 0.161815254352177 91 238 101
0.035191131502513 0.013496258844955 0.124568187554061 49 115 46
0.045271608789695 0.027876357613522 0.159617925200775 100 189 87
0.045162645302459 0.001293137178141 0.157289556326609 51 130 54
0.041036850364969 0.003422045084004 0.142351166903630 78 192 80
0.035698844974783 0.014846161729104 0.124897938939798 61 119 54
0.033605310180137 -0.010827805820608 0.117326137572425 63 146 68
0.039047312310140 -0.008168194080227 0.135291850559278 103 226 100
0.039557496655033 -0.004020029179095 0.136380569453437 93 196 99
0.044016952960956 0.033776921001829 0.153074014522780 41 80 42
0.046197535770384 0.001095290387534 0.156544586409999 78 183 86
0.053675754387554 -0.037121582383812 0.182356971259239 112 255 116
0.051311220444826 -0.029203542991328 0.173898083781731 160 255 119
0.046621906105411 -0.017254899871205 0.156637738933991 79 163 72
0.047892662096600 0.030804173671618 0.160751562344868 27 72 33
0.041213286384535 -0.004373046286784 0.137192397630269 50 134 55
0.053843768917302 -0.033568833132615 0.178596023665036 69 155 57
0.047871202673487 0.026775750025018 0.159135256711167 56 125 58
0.045593340022144 0.033597530869864 0.152565680011209 47 87 47
0.042892252562542 0.012823129852096 0.141791663095812 66 150 63
0.048643083201716 -0.036129971445784 0.161254105290180 119 255 121
0.055998621465730 -0.037599127961440 0.183884333574937 123 255 130
0.045567211860629 -0.008865427268209 0.148506952839366 101 220 98
0.031458305551213 0.004536811952621 0.104068044036064 51 145 66
0.049223246506435 0.030914528255082 0.161523334901878 62 136 67
0.049068552277390 -0.021732035711148 0.159554761726836 108 209 102
0.040139197244567 -0.005378951426457 0.130913046202631 70 154 84
0.047593149594650 -0.026023121758151 0.154195341920490 55 149 65
0.050046584849602 -0.036326487640505 0.162252102865716 95 255 116
0.047060082099829 0.031812973208082 0.152662389871358 35 83 44
0.044973784080204 0.003603299577462 0.143977730657847 73 156 68
0.054703872314042 -0.020293479645959 0.173982976038708 18 48 18
0.050624250436839 -0.033639454130560 0.162052591701852 73 195 75
0.050687041088847 -0.032912442933072 0.162167165509697 78 198 90
0.047298577841111 -0.006793470305552 0.149626995578731 72 135 66
0.047838051205323 0.032386699738995 0.153007357375711 67 126 70
0.040832961538815 0.018280045313714 0.129021904187699 50 100 50
0.055340183872970 -0.016979906359285 0.172172293978453 87 183 77
0.040667567833866 0.017839525937723 0.128055457893299 30 69 35
0.048329031070141 -0.004653378589295 0.149636271511529 54 119 55
0.047717979158266 -0.025971563437971 0.148376417842105 124 233 117
0.047958534173645 -0.022668107129289 0.148333126531432 77 160 70
0.049095519584815 -0.001808441581751 0.149880745250964 35 77 34
0.051584547835235 0.026341858251678 0.158434386801657 80 158 80
0.050919729589335 -0.021997529128646 0.155515004124412 121 255 112
0.048134888888941 -0.011687294264501 0.146767178870232 48 117 49
0.052193323699379 0.024855594322030 0.159578430035180 47 95 50
0.051730513363937 0.029682852376524 0.158656063635634 70 138 68
0.050974476459195 -0.035025969829047 0.156360273320653 89 224 92
0.048656794830666 -0.026712248194027 0.148757739427622 52 115 51
0.052335698828032 -0.034342199274523 0.159738713532909 81 176 81
0.053110355107636 -0.032968755600076 0.160290769105602 95 177 87
0.044704408214268 0.000822327035166 0.133785850590972 50 129 55
0.041187184739130 0.009094959829092 0.123751355086387 53 113 55
0.053131873742194 0.029831224300696 0.159657846700065 43 84 44
0.051117747041504 -0.004188261523331 0.151844268410794 104 206 103
0.061642052905917 -0.020356671931729 0.182120303272836 70 120 62
0.051825102381863 -0.006740980710179 0.152449238726124 81 145 71
0.054642538503958 0.027290298887088 0.160184023638859 77 127 77
