ply
format ascii 1.0
element vertex 478
property double x
property double y
property double z
property uchar red
property uchar green
property uchar blue
end_header
-0.060815242055040 0.003657191549066 0.176714311030713 32 69 30
-0.060878544747286 0.007669055891177 0.176978971900393 82 192 88
-0.062645875515141 -0.043179244293616 0.185130816935687 98 255 103
-0.048142703779831 -0.001672979093932 0.141286226781071 62 152 58
-0.062436337311520 -0.031813345538736 0.183858320568730 100 204 94
-0.059683892045002 0.002789020510109 0.174603629605377 52 142 62
-0.055966868233282 0.011040707789918 0.164228958318200 85 199 86
-0.056051197636203 -0.011677005269890 0.164956289689607 54 132 60
-0.058253678116889 0.022185879920554 0.172456126814473 51 122 47
-0.055569064735437 -0.014257777828453 0.165262079584808 74 143 70
-0.060730800686076 -0.040719478339639 0.183426502571674 80 185 80
-0.055137278853448 -0.015032906292309 0.165117308392944 37 98 44
-0.054255710757837 0.027545652502313 0.163533005585406 61 150 68
-0.060648207063367 -0.042770640957732 0.184027218278021 92 255 107
-0.050732041449555 -0.022372452205776 0.153298347944007 87 196 76
-0.046492727724590 0.000174332545817 0.140634043734004 74 170 75
-0.056013818273825 0.037724904501279 0.171921143250234 95 205 91
-0.054842004532237 0.007672682335338 0.166766247334498 50 138 51
-0.058583563078093 -0.042304283955391 0.182687758755490 97 246 103
-0.045026847023413 -0.003810456864075 0.140066394469420 83 198 88
-0.064205683885884 0.009608724265796 0.199055748753766 67 155 71
-0.048030583277731 -0.023464372831010 0.151971955546009 89 199 88
-0.051921686522981 0.011463115054803 0.163723382879031 55 140 58
-0.054754690441209 0.034298450885960 0.174096335755051 80 189 87
-0.053720786483704 0.004987127692698 0.169603498508936 69 164 78
-0.058274088402022 0.019903768584537 0.184171091808863 37 111 46
-0.038495741548618 0.002273187928944 0.123844680356386 70 166 66
-0.057624096595616 0.027288993842819 0.184019879142542 59 129 56
-0.040684271229006 -0.011603909497764 0.131268358514119 69 176 76
-0.056087469089877 0.013176372514098 0.178966668124988 18 37 16
-0.061090875417635 0.008600960045271 0.197022636264547 75 185 84
-0.056012402018238 0.021433757578386 0.183710765375627 58 144 52
-0.046169754818835 -0.022891536436369 0.153659794361394 91 202 91
-0.051445573687402 0.033221413534932 0.172158726848269 76 185 80
-0.045732385131517 -0.033553223200804 0.155472699017420 66 136 52
-0.051365572807334 -0.023061414859608 0.172695525675564 66 172 70
-0.045589961711712 -0.023062696390347 0.154623212246998 29 58 27
-0.053078118592396 0.031394049232268 0.179790642807878 73 178 69
-0.030117300902677 0.021840036045695 0.104133479938265 74 161 77
-0.057143495372822 0.004252571748504 0.192096165807042 60 156 69
-0.031787384645670 -0.005288125405528 0.109796465854188 53 150 59
-0.031787848313018 -0.005029909285875 0.109792944434981 44 108 43
-0.049347958405405 0.022027598468067 0.168093585783204 55 126 47
-0.030874744432853 -0.021995390166806 0.108395582718759 72 166 73
-0.051092079737152 0.014987307234291 0.176673774550266 69 197 80
-0.039401611431389 -0.014103608239101 0.138106178230509 75 177 70
-0.047135832025917 0.018711035483976 0.164943989158111 43 88 41
-0.051782911118001 0.007526459231201 0.180765763316953 82 187 90
-0.038856894119330 -0.015890711990371 0.137960849972973 69 159 69
-0.051371842006875 0.010324729193194 0.180166557533620 55 138 57
-0.053865010445207 0.005171262088814 0.190708245418502 44 110 43
-0.050321207791152 0.011973576197795 0.178761043533698 74 184 81
-0.045761903222526 0.017192526422976 0.163382976702364 51 129 55
-0.039594142653284 -0.019646333324362 0.143460717016882 67 142 66
-0.036061800436806 -0.002421506794876 0.130623068869084 71 161 77
-0.037076377769929 -0.010555005954153 0.134845192373661 79 192 86
-0.035420975013391 -0.001329512527780 0.130481664267250 52 123 57
-0.025765976029325 0.011960292744117 0.097093242174411 70 166 71
-0.036989785002847 -0.019980754946297 0.138906744583835 57 143 59
-0.045745833951407 -0.037169549004185 0.175928859080946 43 109 45
-0.024317043048377 0.010344936408562 0.096649594382925 63 172 81
-0.033935157246546 -0.011265775625751 0.133619405912622 64 157 69
-0.032745797439730 -0.004405385501943 0.129546401313993 45 127 59
-0.033423964008075 0.002618336649865 0.133241963143431 40 126 57
-0.035473082257126 -0.018678680518268 0.142212703803098 61 154 65
-0.038285358784958 0.009042202205688 0.153194410565657 63 123 43
-0.023811372650151 0.007418760257112 0.098082208809292 76 174 83
-0.031760529021231 -0.005011958259108 0.129242971979838 28 58 27
-0.023693186027451 0.006729424166455 0.098052678251239 80 197 80
-0.043257163146827 -0.040340675880577 0.177679394285845 82 175 77
-0.036809542495655 0.006619080304889 0.152242325622831 77 172 76
-0.030771464496572 -0.000067383556198 0.128860920279596 42 126 52
-0.026544712437336 0.025453051591465 0.114118613593860 45 129 52
-0.044372668916371 -0.019326172559009 0.186041996917239 78 185 84
-0.047297886559468 -0.014680053810840 0.198532306408810 75 166 70
-0.029968952529843 -0.002681510237958 0.128672250337002 66 158 64
-0.035729025204117 0.006259429037112 0.152193302353167 7 17 6
-0.039648235082892 0.016355034793749 0.169372427096586 42 104 45
-0.030402437722805 0.004994912763398 0.132361834050216 37 109 41
-0.038272012471014 0.014387650803491 0.167669149816804 23 58 21
-0.037601760759577 0.016508000267582 0.166616247884792 63 141 67
-0.043145283966249 -0.041398202976620 0.193026922959080 62 163 62
-0.026938612977341 -0.004460911382575 0.123417113787029 52 123 56
-0.034005920556914 -0.021373470084725 0.155474308218369 78 177 78
-0.041538788890792 -0.020963211331550 0.188114577756986 86 197 83
-0.020719696686524 0.006937178481704 0.097495554557070 72 168 80
-0.035041840320859 -0.033836250224901 0.165260308171108 76 193 72
-0.031077319189108 -0.029030057904787 0.148700264661035 75 138 68
-0.024908919511866 0.026333089214822 0.121884197591185 69 152 67
-0.033587188323123 -0.004281813855220 0.166723139322939 69 170 73
-0.033385421773008 -0.001829405884434 0.165746749886070 54 115 50
-0.023186927347284 0.008383662266414 0.117388798846020 72 167 71
-0.023986857527959 0.026145655558178 0.122220688028444 65 152 69
-0.026180506301521 0.018588894293524 0.134371086766398 69 163 64
-0.025220690300835 0.020205776161823 0.134440524751338 60 146 56
-0.027591796874701 -0.030877058263645 0.148075107916113 60 147 62
-0.029887803184495 0.000793258194140 0.160999335979979 77 177 85
-0.032989221791230 0.012384199167968 0.178339468909890 20 54 24
-0.024254958426765 0.016994054164441 0.134169187195452 72 183 75
-0.017073532279786 0.010325359761834 0.096953240184647 59 141 61
-0.032308548400772 0.012811774566296 0.178153143845262 25 81 29
-0.029644596147595 -0.026169264803424 0.166940769931321 65 146 70
-0.023467401304355 0.014816981028090 0.133238525014999 37 79 35
-0.025145340269829 -0.007292478734774 0.147566431294040 67 158 73
-0.027853882230492 -0.034432278787079 0.165536703430565 54 75 44
-0.028158451128679 -0.027723491702806 0.166569849969716 75 187 80
-0.031186099342702 -0.024037779156362 0.183184531753186 75 176 80
-0.023062002478150 0.001737028903516 0.136799622334418 75 178 79
-0.022722132274172 0.005207135521082 0.136770512055100 57 133 61
-0.029594370170383 0.025601725241987 0.176960484658720 66 148 69
-0.028503088496131 -0.036523393158210 0.174008090619428 45 95 48
-0.028697897612833 -0.037913882087168 0.176490199269335 32 56 26
-0.030608520247126 -0.021280897376631 0.186034932103248 73 168 69
-0.027741232042697 -0.000225885679430 0.172368777796628 58 129 58
-0.026824371402594 0.028363814703951 0.168337140306881 80 175 83
-0.027906658801406 0.032710787590565 0.176454583951507 59 126 61
-0.028224039509304 -0.024731845067526 0.178691572258727 83 190 88
-0.027054469798420 -0.003598544859171 0.172005094078524 73 166 71
-0.026259485323540 0.026579790540921 0.168413066425395 68 190 76
-0.017254183893652 0.007991147663460 0.113352319612081 26 50 26
-0.027575811966959 -0.026707124892934 0.178834193574167 66 161 75
-0.024158372471011 0.033591667172323 0.161038139983606 41 130 44
-0.023083297327097 -0.026751933287052 0.154645339540967 110 218 99
-0.014058371029907 -0.008999168864875 0.096625692156355 70 171 78
-0.026177665142392 0.025223059522240 0.175491673179287 80 182 82
-0.024207084447600 -0.038363775483664 0.165409718096600 99 209 100
-0.024460971099626 -0.038166645831916 0.167003130160984 67 166 69
-0.025808509833333 -0.000438637347917 0.173355869756603 45 131 65
-0.023346926739486 0.034706608680103 0.160892353008870 64 180 80
-0.018469228077814 -0.004524945287276 0.128247439796533 69 148 71
-0.024735837818472 -0.000010454207398 0.173218921363604 36 84 35
-0.025681157894922 0.030951263066198 0.184162581769407 24 66 27
-0.015323347884655 0.009326957437706 0.113076699866875 60 141 70
-0.022345093075290 -0.030067530930249 0.163923094291786 10 13 6
-0.023860544814986 0.029923990541134 0.174550605838461 30 74 34
-0.012557318038944 -0.008418036126920 0.096436275847814 75 157 73
-0.014792209695611 0.006445428906738 0.112104281271503 50 112 47
-0.021404388083477 -0.030455648351216 0.162877319947946 99 237 99
-0.023069593205304 0.022136125641169 0.174230827306025 59 145 65
-0.013207661971461 0.003986836693471 0.103484258274650 57 143 65
-0.016262618562735 -0.005744926473593 0.127873434622387 70 161 72
-0.019078956739658 0.016634859675082 0.153194997479445 58 151 64
-0.022547571076132 -0.037954219635118 0.182839082770234 36 78 36
-0.020050246970378 0.031656323331394 0.163310685372980 65 157 72
-0.022743907586947 -0.014261623675812 0.185941730101604 61 169 65
-0.012403790670399 0.022453104030091 0.105602240886982 83 185 89
-0.018362676770930 0.004533624846311 0.152927835009030 51 143 60
-0.020647260728203 -0.001063395435721 0.172580207118247 78 211 87
-0.017915746689638 0.026535702518056 0.152055229597266 71 157 70
-0.017976987588176 -0.009388456799670 0.154408932624057 76 149 75
-0.013772892782880 0.012153492781584 0.126497276074678 62 158 68
-0.010825465274384 0.013451662807138 0.101175557187247 78 184 87
-0.014335070272675 -0.021406238831883 0.133233538597478 101 206 109
-0.019441561643296 -0.023786923478996 0.177595993773576 112 244 118
-0.020429753611805 -0.017889088372543 0.187770337857890 58 144 58
-0.016635902392983 0.002123582654467 0.154050799863436 92 196 88
-0.016042258900234 0.027956950665900 0.151823659978115 71 168 70
-0.010595418840081 0.005695486179265 0.103207934230429 79 188 88
-0.012845405756143 0.013969360840919 0.126440607197435 61 137 62
-0.018779961202978 -0.013801592913833 0.182950602071374 76 188 79
-0.017482340802405 -0.003563595033479 0.170642302286622 37 109 43
-0.017468192274347 -0.003140431269840 0.170507427424294 51 116 53
-0.018784548061516 -0.017863838478539 0.187449780720547 74 161 70
-0.015300782217389 0.002876877916855 0.153854268456651 35 113 44
-0.012136275058172 0.019946521341749 0.124373387299790 63 156 70
-0.017677989688927 -0.008611462364225 0.178654785685971 13 25 10
-0.014921016797297 0.003441523305116 0.153816512368404 19 45 23
-0.009759640888900 0.020310514663167 0.105216813673645 75 172 86
-0.017957273808772 -0.020993046531176 0.188558749707820 67 163 80
-0.011741376285492 -0.017996923477845 0.132670484204662 72 171 74
-0.010287992570675 0.016339612389602 0.118711797526129 64 147 61
-0.008172536538507 -0.006409389732280 0.098207691640722 112 232 107
-0.010187617535333 0.016370377730262 0.124033767946374 32 71 28
-0.013854829369247 -0.005546104682004 0.167463610819788 62 147 62
-0.012398293027623 -0.001527173778544 0.159682774148579 80 178 84
-0.011532686116177 0.000989874355329 0.151373497191708 77 182 78
-0.013682788096323 -0.017766319047922 0.184107120058418 72 162 63
-0.008174828207623 0.007204362383444 0.113148487979639 81 176 82
-0.013019752691895 -0.040124893753265 0.183294763298522 88 166 75
-0.006264825831432 0.014392098078720 0.099427123858366 91 183 85
-0.007418499559520 0.019201072842031 0.116487916422265 37 120 47
-0.006500806923442 -0.000434423125730 0.104390792417276 84 209 90
-0.009977124485022 -0.037606069728336 0.160879451988351 50 128 49
-0.006375657575280 -0.002172899740020 0.104395072287642 109 222 120
-0.008122405139509 0.003920366439312 0.130712557912973 67 157 75
-0.007065219326224 0.006473222031825 0.116949500799825 68 145 57
-0.009141382801908 -0.020493208958247 0.158342018015695 112 226 110
-0.009812986438029 -0.012460778801851 0.168867879022006 87 194 84
-0.005875248713096 -0.003289651650592 0.104378028127606 25 59 19
-0.005875204271809 -0.001799572256936 0.104360936184978 86 210 82
-0.010156421240326 -0.031487075459625 0.179315897928886 107 245 105
-0.006505776775487 0.007320643225720 0.117031615236262 75 173 81
-0.006437920188373 0.019887392994653 0.116461977172479 58 139 63
-0.006438037193624 0.022524295160531 0.116648088251269 69 158 77
-0.008501283575400 -0.037396089319455 0.162299990519267 83 254 92
-0.008257806947135 -0.011690168740116 0.166912692977526 70 188 72
-0.007651435431285 0.029131020818385 0.156594058937015 39 80 36
-0.006850570538121 -0.020796839474067 0.159080209657214 86 190 80
-0.004665766585981 0.008014521691812 0.116880859136299 90 178 87
-0.006340290588778 -0.034270695504996 0.162025276746107 118 255 134
-0.004651248385542 -0.005626528474419 0.119858959493942 62 139 62
-0.003783345553180 0.021599031537959 0.102613561662068 48 126 54
-0.006268801701467 -0.012861083803346 0.168628159479483 30 84 37
-0.003254649848736 0.011556247969840 0.094580883091281 46 113 52
-0.004122422709086 -0.011691528084498 0.125554672295420 80 173 82
-0.003027865825173 -0.005901636778416 0.094432321118104 115 232 123
-0.003647297733577 0.001374622316811 0.111878837739366 15 32 9
-0.005026953586010 0.030338787633793 0.157929492577893 10 23 10
-0.003874142169778 0.027292061599653 0.144322704464790 72 159 74
-0.003601240515111 0.014885331638678 0.146360434803563 72 176 82
-0.003345444357477 0.028999218983087 0.144323958742101 48 130 54
-0.003508832066483 -0.036090856950388 0.159190727558805 147 255 157
-0.003170779130963 0.025697959753641 0.144023051516149 31 81 37
-0.002200899364618 0.022680362944929 0.102642511947268 28 67 29
-0.002501178892173 -0.008595819338443 0.120915774155021 74 171 77
-0.002768819624351 0.010591163765146 0.132935523479958 41 103 40
-0.001909336637669 0.013099572734695 0.094530007955082 93 197 93
-0.003362038088935 -0.010585405830254 0.168683385273776 25 47 21
-0.002321746087661 -0.018402990250493 0.127056025208033 68 161 74
-0.002763854352420 -0.035292696177390 0.160597602133621 133 255 149
-0.001714198282157 0.022679051212038 0.102633543082920 45 134 60
-0.001422860457497 0.013188264586749 0.116893644311279 49 127 52
-0.001141226806331 0.010667161007540 0.116788528239129 80 175 93
-0.000837695974967 0.022668250616438 0.114632669653098 63 137 61
-0.000713971743236 -0.001512563314343 0.115900079080732 80 182 78
-0.000253996103744 -0.035710294052692 0.177751537207788 68 169 72
-0.000233340587094 -0.010501282905587 0.164525259681638 58 126 56
-0.000155775307044 0.000717908094049 0.116579646839027 65 147 64
0.000494755410102 0.010135341718420 0.105871753880928 89 191 94
0.000486782852931 0.018400956422431 0.104677538940250 64 142 63
0.000991902968295 -0.036910689074820 0.168342711939402 78 228 87
0.000673273630937 0.024970610916656 0.115343652031756 56 108 51
0.001232289848590 -0.017693315505054 0.171092351397241 39 109 40
0.000827915077225 0.024096620457206 0.117537451391629 28 73 30
0.001664664228755 -0.014382674000697 0.138499823717030 86 177 92
0.001383368121020 -0.003323680649571 0.115919279799328 70 172 76
0.001253333063988 0.011132485734628 0.105816049008714 91 191 94
0.001672658762012 0.022004074294657 0.117405526492276 51 108 53
0.002502253995654 -0.037772195465361 0.160649471980377 131 255 161
0.002535253642039 0.026430536860749 0.161494681282693 54 115 55
0.002805735471547 -0.037094267026940 0.166598459213261 76 248 94
0.002678600163815 -0.025279866391985 0.158230329812560 71 176 71
0.002015629993367 0.003714377224992 0.105805752636298 71 178 72
0.002917839278423 -0.003180154991180 0.115795895675056 68 159 59
0.003079273993072 -0.002785860009056 0.116563975751865 22 80 32
0.002723541558951 0.021695659576319 0.100415655000305 88 194 94
0.004882248315435 -0.036861984662250 0.168167507705904 94 255 119
0.004900419147786 -0.019471374608987 0.160734890195363 14 36 11
0.003472542180351 0.004882279778350 0.115694795956442 102 217 101
0.003503115770268 0.023550507403443 0.117577546034287 66 157 72
0.005097676400004 -0.020261225096479 0.160793069168551 42 118 45
0.005366373075583 0.025171606609084 0.163369900440345 61 139 66
0.003891389871099 0.005854863266721 0.115727910206847 47 127 66
0.003790700216992 0.002327927746139 0.105843988771591 94 210 108
0.005943284227113 -0.038116897329636 0.159080641309074 132 255 130
0.003459252168061 0.008547155576526 0.094429028482005 75 174 80
0.004487156589561 0.000436650729374 0.116598078609936 11 15 6
0.006694328021701 -0.036687530219352 0.167450156198319 138 255 133
0.006436037827665 -0.024637442374841 0.160164740876630 68 155 78
0.006681998297374 0.017972212322354 0.160925393108875 61 137 64
0.004863536744464 -0.000535436722907 0.115592520759953 82 187 85
0.004869072604685 0.007939487232868 0.115816593676223 19 58 21
0.008976303470101 0.027929191828963 0.192452035313268 35 95 38
0.007717597496010 -0.017175223613512 0.157931181484235 97 189 88
0.009451482551342 0.029351390088632 0.192615178365055 17 37 15
0.008382692093027 -0.036123880097029 0.168502278347136 83 246 95
0.006758294331846 0.001591353301431 0.135644689368065 92 207 105
0.007279868997340 -0.011430324650849 0.139315774883543 65 167 73
0.006265667969470 0.025713280435501 0.116889089058644 16 34 13
0.006400997474736 -0.003177036611505 0.115715904684681 91 162 88
0.008026115098065 0.003404853845294 0.143123068405108 84 203 95
0.008006430232465 -0.009625011918871 0.140046553625014 65 149 72
0.009041903293903 0.028734435718765 0.158491908948129 55 140 64
0.010401736221463 -0.033078333798329 0.177546420660232 56 143 59
0.006121085021861 0.009206078656534 0.106790833380261 100 200 89
0.009457918530732 -0.022208794760030 0.158274923448925 97 219 102
0.006270624373333 0.020003451263968 0.101863566832526 89 194 90
0.010597256346805 -0.037894233458072 0.165184004657013 176 255 170
0.010464048037482 -0.015293910837011 0.158418820150384 65 138 67
0.011770836015160 -0.036628025223157 0.167331897388944 95 255 108
0.009759890765305 -0.000226969346884 0.136057819798219 84 194 80
0.007533924768812 0.008705141155168 0.106905105559781 77 203 89
0.007666088792885 0.008964263387136 0.106970658800716 55 147 67
0.008339197945295 -0.013895809874464 0.114153379925660 72 171 68
0.012801437302269 0.007789520772130 0.170653886857039 40 111 45
0.012963430750839 0.005249883861849 0.169992879821908 64 142 62
0.008574286077533 0.012569762441982 0.115282887451341 33 77 41
0.010464222983753 -0.018867478436776 0.135206676758295 58 128 56
0.008993999870532 0.012575054724539 0.115344765579818 93 198 102
0.014002420338022 0.027809891732859 0.176241848882036 50 115 48
0.013636151705859 -0.036518170174567 0.167782365094348 71 211 76
0.013637403251886 0.020396600931436 0.161850343815587 60 155 70
0.012276796976576 -0.000086206625166 0.141898094973262 60 129 54
0.014643444435611 0.028338174169555 0.160705496546143 62 149 63
0.014857294690886 -0.038180666162892 0.161840139999412 152 255 161
0.012444985828349 -0.018728751033361 0.135425910534525 61 152 57
0.015665267494165 -0.036290140130356 0.167742720170870 105 255 114
0.016106638303638 -0.010674742564791 0.170231407060055 30 64 24
0.012733384230866 -0.003039105009350 0.136084086643102 70 170 83
0.016094102025886 0.004405159107122 0.169993652477213 64 135 59
0.017286916469056 0.011674756162519 0.175728105259585 65 148 71
0.016916620149124 0.017768612974243 0.170437601636141 47 118 49
0.010495984489752 -0.005563938851396 0.107146018663875 76 192 88
0.016432517392733 0.021013252790636 0.162242183267329 56 110 52
0.012282380289561 0.025068819160861 0.123692809118507 93 203 107
0.016834292067633 0.021018939434397 0.162311255303529 31 59 24
0.017931016844335 -0.011683595806907 0.169813910873042 75 156 79
0.018179714209655 0.018191724652504 0.170605396915353 63 146 68
0.015247798577305 -0.027664118086547 0.143587129392660 115 229 98
0.014408813162382 -0.003169646164724 0.134878597045195 80 160 72
0.019142531598783 0.007393119118305 0.176770849969794 31 85 31
0.018873618269328 0.009440379071257 0.174461021315947 75 168 80
0.010600790911595 -0.000161084238671 0.100196793871315 89 202 91
0.016126206793561 -0.028726934803223 0.143826036076246 66 146 64
0.019395679449647 -0.010433984614865 0.169883209878171 46 103 46
0.013924455794071 0.023465355370560 0.123729685938301 37 69 32
0.020358004474368 0.001925052464985 0.174229190696508 35 102 45
0.020340298058786 0.003852136683415 0.174109500810791 34 110 45
0.020306046476294 0.014749511316024 0.174205018017831 70 147 63
0.016135764457684 -0.003480625505003 0.134376344039612 67 153 73
0.021302303656771 0.012993897852402 0.173613444179372 44 108 52
0.015568654186022 0.017850017806190 0.122418203674914 58 129 61
0.023403190979775 -0.015793452543049 0.178168803164001 34 97 38
0.017580920658242 -0.003965481962841 0.134299307475480 60 143 59
0.021429037154395 -0.012958448480522 0.160868123680956 92 170 85
0.021282668495726 -0.038380252577918 0.159275563829372 81 255 92
0.021817981734393 -0.010791411885567 0.160780775994643 81 174 79
0.018034295134134 -0.006230009501218 0.134120443331062 59 139 52
0.023959965336268 -0.002107456686795 0.171260720314134 52 133 56
0.014638502349874 0.020620764139573 0.108188336806948 87 186 87
0.024433713085332 0.000628144640420 0.173064259126582 44 107 45
0.025937199183171 0.019198787245780 0.182427540346565 41 107 44
0.017067371445834 0.020368312070485 0.122857689140982 73 175 77
0.025558321507285 -0.017089216564543 0.178172627466955 41 95 40
0.024549397847412 -0.036697417852274 0.171779409864498 118 255 117
0.025698331440909 -0.032266321362143 0.177435237621959 44 132 54
0.022044083625227 0.022985834930278 0.152854670571519 58 137 61
0.017019092971784 0.009047857421805 0.118168261937899 73 156 76
0.026150966940742 -0.031641947764609 0.177537594884687 14 30 15
0.027589195056877 0.020087148903135 0.184574231456115 47 102 48
0.020047362930916 -0.006361327910182 0.133626197507253 75 153 76
0.026033182828044 -0.005260652034718 0.171265577668805 48 125 54
0.026212481566091 -0.001280555061614 0.172363590338195 61 143 64
0.028192606286491 0.017553017277635 0.183996614570998 63 150 67
0.019732782732947 0.005108642657313 0.129671517144605 53 112 43
0.027268917756149 0.007770200394031 0.176452691797237 16 36 12
0.027527822237572 0.005179674358200 0.176667046686466 20 50 21
0.025914747772419 -0.017803365519731 0.162373631230082 40 102 41
0.028807838716310 -0.019416159235350 0.179683788096299 25 45 16
0.027920167663814 0.000830717770327 0.172605235045520 49 116 50
0.024652755116171 0.021720509411971 0.151963630379996 88 177 87
0.028566126774977 -0.036489250665633 0.174787952577294 68 213 80
0.020749544264119 -0.009248310122471 0.127595929486593 74 163 70
0.020908087248998 -0.007868988409987 0.127592008915334 28 46 17
0.028654536616222 -0.006973752194076 0.172089944065047 46 119 51
0.025249262658734 0.020803682814353 0.153238267280734 32 79 36
0.020639986618684 -0.015676291781846 0.125523499644853 63 161 69
0.020723303193673 -0.019675729966022 0.125402622228191 113 248 125
0.019794608040481 -0.016901415963862 0.119963571747340 98 201 91
0.024512606331886 0.004084261690210 0.144272649409365 67 160 67
0.030610240725006 -0.032445082185655 0.178732870333176 38 109 40
0.021484082533178 0.027597070868857 0.127785240307312 52 118 51
0.021601154344135 0.026491907177988 0.127497455233407 76 172 76
0.019779320646645 0.006031315793797 0.114789537539164 68 167 68
0.034846069042842 -0.003850537472398 0.191675941896660 62 155 71
0.026150760968848 0.002336424047211 0.144708520597090 59 144 61
0.029436821936437 -0.036887041757688 0.162171468320347 103 255 112
0.024998084170223 0.012717412541591 0.136366712998277 63 134 64
0.030594470705042 -0.034646866405511 0.165858494126270 105 255 116
0.024342295458369 0.009141207499686 0.132029912568891 23 59 28
0.025136164393465 0.015488896430233 0.136383722053910 65 163 68
0.023313876013123 0.026076278603333 0.127782279197736 61 141 60
0.023313060851392 0.026378754782713 0.127805295778216 52 117 43
0.023730825272820 -0.020568054328634 0.126440832852755 82 192 89
0.018254819312457 0.013948673506803 0.098532835995787 87 189 98
0.026814120250313 -0.015875670417351 0.140706242966195 43 108 36
0.026969813994334 -0.016206738847759 0.140670346349515 56 143 50
0.024559252591615 -0.007915008855995 0.128425236914429 85 176 79
0.023445044413940 0.006112387763232 0.119387302255152 85 200 91
0.032313239780481 -0.038163826079979 0.161492572596650 98 255 112
0.029124069191950 -0.021220064095544 0.144863392992915 55 154 65
0.025323651054376 0.004492137307221 0.126229331973586 73 153 80
0.027540150992734 0.027699660299499 0.137235507420962 79 171 80
0.019694632452092 0.007837912660768 0.098640677052838 76 138 71
0.033879477468221 -0.034733664871632 0.165683109420451 119 255 126
0.041861100200979 -0.019020889321308 0.197945843042119 117 122 80
0.028513230312121 0.017335424996264 0.137196887904519 65 162 71
0.026349298343609 0.001614617935919 0.126128510210593 87 194 83
0.029308873331187 0.025355950367162 0.137746751488107 55 140 58
0.028365578097821 0.019931012436050 0.131084000735586 51 134 56
0.034855562846394 -0.038155256245648 0.160248075456985 138 255 138
0.035781273065149 -0.036231458093212 0.164005795465116 117 255 124
0.037873961459426 0.006620013047110 0.171089112837070 61 152 66
0.038313747677221 0.012317138392516 0.169717227021514 73 165 70
0.030923436012572 0.015736578169610 0.137765991188112 71 147 67
0.030800924230333 0.017153301665473 0.137328906477153 67 149 71
0.039769332717113 -0.036124126073331 0.173330065580520 77 221 83
0.044708875745083 -0.012296002806390 0.191977350596381 76 172 70
0.037534714274037 -0.036032570933917 0.162565921766983 123 255 118
0.032368215257324 0.006249588696000 0.139359240786167 86 177 81
0.040078971598354 0.010334271869855 0.171142980250160 83 195 80
0.030296173411258 0.021990243480872 0.131620289072141 68 170 81
0.044245610304820 -0.033514512701799 0.187864258455888 22 44 24
0.030359458837589 -0.015459785729728 0.130213310740236 61 147 66
0.032441832976620 0.026136996702492 0.138800974330394 70 147 69
0.035202833557007 -0.021056826693900 0.148797222097499 62 154 66
0.036911591783240 0.031976446523269 0.156741496386628 67 150 69
0.040700364483846 -0.035657078323144 0.171366038949568 111 255 116
0.046490297559705 -0.012106167489600 0.192767245497481 29 84 35
0.041794776940986 0.003708389818402 0.172197262972947 20 52 20
0.034471649089598 -0.025848088437448 0.143565770270723 48 143 57
0.032845856178024 0.018874944985414 0.136023474778533 50 120 44
0.038937675134836 -0.035546276470118 0.159922546371113 110 255 125
0.039774871414826 -0.000017810995141 0.160421720359725 69 150 69
0.038644272730301 0.033156237778143 0.156558331003964 66 127 62
0.042748014035283 -0.035687831713623 0.170857265843947 100 255 101
0.029270266647567 -0.020419235543489 0.118323765654000 94 227 105
0.024714635409389 -0.010180871044128 0.100441086100788 83 181 84
0.044182615968204 0.006456581719761 0.173665954815995 15 45 18
0.040306086585937 -0.035579169893494 0.160215970783848 125 255 129
0.030112144443973 0.023136501252561 0.120605488780988 71 168 71
0.030403064536534 -0.004845212764051 0.119306993688499 88 209 105
0.028789180199946 0.004956534946756 0.113282428691540 114 227 104
0.050621887593584 -0.012628046915402 0.193885301026871 26 61 22
0.034039504575182 0.021749561788995 0.132476143952313 68 148 68
0.031053856223865 0.021630595897466 0.120894345318300 79 187 94
0.048505998515459 0.010799099373722 0.183704490195823 70 168 74
0.044517093783727 0.031753523481011 0.170627866599914 49 122 51
0.042853703359848 -0.036984058224028 0.160936281316683 88 255 107
0.046590722755192 0.022993866715932 0.173020011407868 24 54 23
0.046731257596041 -0.034803147714385 0.173721215422443 89 190 91
0.046972956618648 0.002432973747281 0.172751839625262 76 177 80
0.043463236188774 -0.035833746341698 0.161651473883032 127 255 136
0.046290650261858 -0.035956136297795 0.171600520225372 90 234 98
0.039334047775147 -0.020067149005993 0.145075790487715 61 149 67
0.026597815384278 -0.010016160812470 0.098143583684119 80 168 73
0.045124089225159 -0.035358373864533 0.162229674110530 113 255 112
0.048906691313823 0.025073728795343 0.173627407965443 73 167 78
0.049970220389696 0.018317413485719 0.176070258861619 105 217 99
0.048593084325225 0.031587956366121 0.172503977915110 46 103 41
0.041348848489831 -0.023431055462059 0.145938773677425 43 109 45
0.049041637500296 -0.037266664064394 0.172439260239091 84 231 93
0.035503782499846 -0.005546262833903 0.124897170436149 73 163 72
0.052662520112631 -0.011264536672316 0.181238517490770 89 185 81
0.050882127227960 0.021001259170447 0.175927238293107 94 187 87
0.044182817919997 -0.035881635927187 0.153174366377633 88 255 102
0.052881017465995 -0.014580782087248 0.179356784569416 91 183 86
0.050504039458850 -0.036169086583870 0.171361696988048 72 211 90
0.053853930536568 -0.035787768379900 0.182119706626585 76 143 75
0.051506325067659 0.029569065852564 0.174119047978766 62 139 67
0.051347058805114 -0.009122427328895 0.170935847610168 72 160 70
0.053577070720871 0.020285988787630 0.177446696934257 94 193 90
0.045418697179612 0.028574849956251 0.152031702375943 103 192 106
0.053310632198125 0.026837111242824 0.176471216560277 61 155 70
0.047315532415408 -0.036688762274360 0.156043006812252 104 255 120
0.052595851496032 -0.037033828284623 0.171958365958234 97 255 109
0.053618691685378 -0.010284429834361 0.173206204622921 55 142 55
0.038230652233617 -0.000514801751598 0.124887269277694 109 209 95
0.046938033705057 0.033005264494970 0.154022567257362 60 128 55
0.034246749472970 0.003271897794301 0.111624923217019 112 210 99
0.038993609291632 -0.003475351298899 0.125072539607511 84 181 82
0.034680389660757 0.003393666215485 0.111397539645965 34 104 39
0.044514116184061 0.030098497411086 0.141624283569715 74 140 71
0.048642955275501 0.029303984698975 0.153569574772648 44 91 44
0.058568519413544 0.019804455500744 0.181572403662768 46 103 51
0.049182613834045 0.029117858372061 0.153622449866031 46 102 47
0.055413082129900 -0.025380509927660 0.171205011793386 61 136 61
0.063748550254025 -0.024044654681942 0.195241265956308 79 164 80
0.046526882606485 -0.005955880839968 0.143296420155958 74 171 68
0.033726681862893 0.015995452942804 0.105501690327182 98 194 98
0.040758340795985 -0.004236250635012 0.125694229553822 88 156 74
0.052842219227339 -0.036016058959920 0.161398598342842 106 232 104
0.054398866929198 0.026485686035957 0.165129455595939 26 46 24
0.059279520584672 -0.036387383050164 0.178995423011374 37 63 32
0.034408677260439 -0.004640111698526 0.102750169865980 116 216 108
0.055319821912549 0.029070036488639 0.163802880662285 68 125 58
0.054922333233791 0.032655172142620 0.162013521057608 107 169 99
0.054933623816239 0.035512674596599 0.162365907536336 60 119 66
