ply
format ascii 1.0
element vertex 437
property double x
property double y
property double z
property uchar red
property uchar green
property uchar blue
end_header
-0.066138591296235 -0.014453660476333 0.189614806860344 35 56 32
-0.064364209429653 -0.034360475834458 0.187220159068947 76 163 72
-0.066539072260511 -0.018089608870243 0.192082970802534 68 142 63
-0.068005134654649 -0.014279326278818 0.196027880968655 87 160 82
-0.062648935843134 -0.004844246950378 0.185993944239704 96 208 90
-0.044063864128188 0.011127856783547 0.132445337178603 70 146 61
-0.058529162538296 -0.041308691838354 0.177166577229057 105 255 114
-0.051952291996505 -0.010236948120939 0.155705280327672 87 193 85
-0.060652525405782 0.022978932972590 0.181699664711218 84 209 91
-0.048642655022181 -0.022990782822610 0.147282398891894 79 186 84
-0.057372784100144 0.004450135315504 0.173581484266085 82 200 84
-0.056473822590505 -0.040600649977848 0.175649429562997 87 220 89
-0.056723235121431 0.034815244959115 0.175958449648634 78 180 79
-0.060033384099561 0.019966327269189 0.185097632963775 79 202 90
-0.061561947085356 0.008284835743530 0.190387646893306 71 160 64
-0.046525520181520 -0.023748826037305 0.146438334332793 84 192 92
-0.048864468600432 -0.013863538426052 0.152875277104156 73 166 70
-0.055856346514633 0.021204120990565 0.176866740568436 72 160 68
-0.058767616694497 0.006768487443954 0.185726824289571 67 117 70
-0.059660883246804 0.008026236284842 0.189160306368078 23 53 22
-0.053778199921396 -0.025424516012662 0.172460596361698 65 175 74
-0.039314252598213 -0.009277383402637 0.127401967201219 41 107 48
-0.051671144113172 0.022803968347303 0.167068264083146 75 165 85
-0.053190047893910 -0.023992596637122 0.172340606818316 80 186 87
-0.053142388458774 0.004636695307639 0.171395187098077 52 130 60
-0.053470523174236 0.033582543270015 0.174276346243177 89 201 90
-0.043751345138915 -0.032501613279089 0.145796401325852 71 168 73
-0.052573972929490 0.030246113662657 0.173575248925212 84 190 77
-0.052600638550863 0.014013597376442 0.173084315264822 78 202 96
-0.052182437786888 -0.026374482659131 0.173045881159427 67 155 68
-0.052241105811540 0.011954365193479 0.173102283385320 54 142 61
-0.050704992984432 -0.029469761409142 0.169841205103637 82 190 89
-0.057267179597463 0.007626705753352 0.189746873036804 71 183 75
-0.052001115587713 0.009458450440584 0.172871073854993 86 194 89
-0.049602109883844 0.021389540093977 0.166397345715475 60 159 65
-0.048648258587912 0.018406790911679 0.164326585273368 55 128 54
-0.039837474918830 -0.014453425719779 0.136959743512833 47 114 46
-0.032366722470030 -0.004779693903680 0.112526387159889 67 157 72
-0.039113693209671 0.001818593118491 0.135256334052116 95 196 89
-0.029843557540615 -0.021664446165850 0.105758465839163 28 47 18
-0.038759337409022 0.003106138647100 0.135120728396394 20 55 25
-0.040060705624377 -0.001312404133861 0.140525679542522 51 139 60
-0.038995564777668 -0.019165875178553 0.138088468947017 50 128 57
-0.034556604052162 -0.009683486160363 0.123131632986324 86 199 83
-0.029066189808569 -0.021512783009465 0.105562316480199 82 153 83
-0.045271516334378 0.008455456399983 0.160673951698331 75 177 76
-0.044563542733815 0.017894007085135 0.162521455493922 30 74 26
-0.027863200217093 0.021013766846098 0.104526018981448 75 166 82
-0.042836061758905 0.005509485225622 0.158531191315654 54 135 57
-0.027409609679680 0.020342914325844 0.104148749213582 44 110 44
-0.050767681083453 0.030311484197988 0.189011380483509 68 169 70
-0.036200909419575 -0.017269110677862 0.137050918918293 65 147 69
-0.044775622911038 0.011268540331602 0.167681523587231 61 149 59
-0.044153082944550 0.011114959354795 0.168245826492034 31 66 28
-0.045981236132695 -0.037539986888152 0.177570710532999 43 118 50
-0.031414048004403 -0.009652000545529 0.122534473372881 51 132 56
-0.030545794232392 -0.004132192490545 0.119190962628669 48 125 48
-0.040651243837946 0.006648903231432 0.157958839103188 70 167 74
-0.024903297787449 0.009864941445109 0.099680230341437 79 168 76
-0.047548203566002 0.027996548693520 0.186540680258790 75 180 81
-0.044239363751206 -0.040284802979192 0.176735521001295 65 165 78
-0.033783837907875 -0.014426584861851 0.136147799267934 77 159 73
-0.031294705090129 -0.001422926489687 0.126831414149523 45 118 54
-0.031141901928059 0.000847675990111 0.126808293641714 53 139 66
-0.042336043169184 0.014784449955949 0.170481434593925 48 98 43
-0.023801039807452 0.011129714719593 0.099460710525424 69 168 70
-0.028686476458102 -0.004690990864669 0.118964389054320 74 157 72
-0.038282282441126 0.007557362190728 0.156644682894574 38 89 34
-0.030603882836800 0.011365389820753 0.127821422452940 81 176 79
-0.037669154585761 0.006607085262792 0.156369282042962 56 137 63
-0.023060456991288 0.010764886751382 0.099251227346610 71 156 73
-0.046536988599495 -0.014511319953683 0.196382851123520 57 148 53
-0.041270477970353 -0.020466239893749 0.176974200455970 74 168 76
-0.035678377847359 -0.020416695522326 0.159409658980578 89 191 87
-0.034828246404453 -0.033460209555327 0.158509267941060 72 171 75
-0.021070243655783 0.007052630795681 0.097541539033738 72 156 74
-0.026422974344950 -0.004510435344088 0.121187938876948 55 132 63
-0.033451025299345 -0.000351948340188 0.153121247568974 67 132 64
-0.021141131292159 0.006168821531345 0.099839501107095 75 180 83
-0.036267722668085 -0.001261779013124 0.168939421914434 38 103 48
-0.036753487693386 -0.005164078240320 0.174849396498303 76 185 81
-0.022799065256090 0.024695879745213 0.114501705993211 86 190 88
-0.021750885866860 -0.022557583970816 0.111353138591921 86 154 83
-0.033115528718921 0.002228864448400 0.167323258764854 82 200 90
-0.024564444555082 0.016814847260036 0.129389835286094 71 187 77
-0.018333155625273 0.005910636850555 0.099208181574394 75 158 66
-0.033066448346798 -0.007374362119475 0.176319686981314 63 132 64
-0.033440470913599 0.013477996036227 0.178510794006983 52 143 59
-0.025826388518711 0.016993080268948 0.140624689218023 58 146 61
-0.021366003343854 0.007175501856171 0.117963204311105 73 155 70
-0.034361035649636 0.022708110229171 0.188387560796845 9 26 10
-0.032374151930151 -0.024084534787616 0.179033380239755 68 169 77
-0.031933806560132 -0.007789354322638 0.175935446699506 36 95 40
-0.031227854975408 0.001671451945387 0.173246850340802 21 49 21
-0.031910105731247 0.011301995682569 0.178245723083102 30 78 30
-0.032056988188508 -0.004078214126749 0.182318421607714 59 165 64
-0.030370267765368 -0.037440547347449 0.176383135785151 54 159 64
-0.029881648813906 -0.024512650855613 0.175930762024702 90 202 104
-0.031670158891882 -0.020009426806614 0.186885482852486 67 129 65
-0.031307715801381 0.027322290689892 0.185579293534229 9 17 5
-0.022375751189530 0.021719107466528 0.134669755989851 93 207 90
-0.028915926853961 -0.035879177228732 0.173923462443111 36 63 29
-0.031100151384896 -0.021007353315166 0.187555605391029 28 67 25
-0.015686522612705 0.009961147541133 0.098793394962535 73 148 67
-0.028151914289250 -0.002973205849723 0.172340338575311 85 175 77
-0.028127146859419 0.026108899457742 0.174616515339559 75 187 86
-0.017601580983699 0.023878107071313 0.112241419046394 61 157 57
-0.027428177020704 -0.039027268915067 0.174087650065032 100 199 81
-0.027156557325629 0.029180569533842 0.175379799061131 81 188 83
-0.017322536064462 0.007094957275027 0.116292184489611 69 178 79
-0.016546164679211 0.023232415328974 0.112200154319908 61 143 67
-0.024478075236677 -0.038558676738811 0.164659072047230 94 197 100
-0.026281302524586 0.031073207724627 0.175364944437218 67 170 77
-0.025361164644916 0.022672230856544 0.176886300599317 67 156 69
-0.024340719090890 -0.008322465429569 0.173480279350649 22 42 19
-0.021704357678343 0.030830306507075 0.158421626995604 69 175 73
-0.013820036698990 0.003151134251076 0.104330251275316 92 208 97
-0.016982838806324 -0.005472817980142 0.128624331321261 64 145 75
-0.014782260691477 -0.001191715696605 0.112928243953487 72 159 71
-0.023236366406172 0.031639888458601 0.174778779973434 53 131 60
-0.023543970338824 -0.039108636127245 0.187112145091111 39 70 37
-0.022649951245627 0.019902698187169 0.180502073007891 57 152 61
-0.022391071103509 -0.024159190171718 0.180338725524949 94 196 91
-0.019590533907787 0.000036492076288 0.158027113936175 66 130 67
-0.022759436731309 0.023333871318965 0.183272673666885 74 158 77
-0.015619261336251 -0.006418673265947 0.128851955555516 78 167 75
-0.013762485128883 0.007135681649310 0.114486664131719 59 150 63
-0.021993713419333 0.016210628663600 0.178595530057902 70 174 71
-0.023623194493109 -0.014832876268657 0.192826980709193 65 170 73
-0.021065456087598 0.033062551984950 0.174451019530110 78 172 78
-0.015312667597918 -0.021196672535588 0.132084195289659 82 196 79
-0.018634825752346 -0.001704246083563 0.158068088282952 67 145 69
-0.013189802424669 0.007397924897656 0.114284117906514 55 124 55
-0.021434483446343 0.030190563336693 0.185824202850865 66 159 68
-0.021797008605975 -0.018303359663597 0.189598402138190 87 182 76
-0.014526769803399 -0.005171977192911 0.128765474896039 76 180 74
-0.021484066629742 -0.020101196473464 0.189021466552155 61 155 61
-0.018895395829891 -0.003876863181356 0.166735329498713 48 134 52
-0.016806782560276 0.016608798197618 0.152792968708171 72 152 72
-0.010683671842589 0.003394579027752 0.103974148306721 69 146 69
-0.019549712517499 -0.011971472848602 0.185795237764331 73 141 66
-0.019544765175017 -0.017229682243172 0.188063118416531 67 149 77
-0.016309022420917 0.001009252130071 0.157934763353534 75 161 80
-0.019233231652726 -0.013915489272897 0.187163721131986 51 141 55
-0.012740003426786 -0.019405435155162 0.131603931838046 80 169 78
-0.011243784839747 0.010609596339433 0.119471817926221 80 177 80
-0.012889633422186 -0.031873833281737 0.140619507108188 93 214 101
-0.016755880581324 -0.005364484310828 0.180387916541870 73 182 89
-0.017115600874826 -0.017578075341288 0.186836100317971 61 143 61
-0.016638317813758 0.024174687758911 0.182473929140676 14 35 13
-0.010535539957858 0.014780095636286 0.119745224783391 82 179 78
-0.014682786321361 0.002287037310022 0.167512398439610 29 69 25
-0.013788828691492 0.001253345602239 0.166676913931306 81 189 83
-0.008391600039527 0.020252048520687 0.106718180723444 69 158 71
-0.012800166020573 -0.036859605502339 0.169218299012116 112 197 102
-0.012147648551840 0.028504191092354 0.160437352786939 27 55 27
-0.008861171418008 0.013861592586808 0.120336443348298 71 164 69
-0.012910495484569 -0.017680962998876 0.177007087771224 91 205 96
-0.013303341276261 -0.008109284720430 0.181758019641448 80 176 92
-0.011355593916265 -0.017912438767240 0.159332189907634 89 210 92
-0.012651737746074 -0.013921996446992 0.176283057927261 73 185 86
-0.010790196402066 -0.009099261845062 0.164870218393124 54 114 47
-0.010423039047884 0.031722952081828 0.161199494694219 57 135 60
-0.009758288929849 -0.038487983668374 0.166781035604925 74 230 82
-0.009900931850208 -0.021973560904037 0.167467402683409 81 187 90
-0.010040169057230 0.001270232720638 0.168968297394348 58 131 62
-0.007869109911923 0.003044963541622 0.134261099472498 69 161 67
-0.008754054007928 -0.005311908008235 0.151396703670861 94 170 95
-0.008377683159408 -0.006420489809072 0.151321225339971 42 100 39
-0.005188304889710 -0.006589061114163 0.098984667008962 109 254 105
-0.007075088106731 0.005551929395566 0.131841527910295 72 162 63
-0.008704404899092 0.030714131010355 0.161839524687879 58 144 63
-0.008576960205089 0.035116988113443 0.163563264639511 55 127 55
-0.004802588483579 0.013416434978542 0.100751464375865 88 165 85
-0.007838534821107 0.031983107203682 0.164296503954844 10 25 9
-0.007522502570719 -0.038449510220892 0.166568074835855 130 255 141
-0.005742387194765 0.001415585059015 0.134172873791107 69 176 73
-0.005054779286309 0.007032709443331 0.119207628646984 45 108 46
-0.004783866183345 0.006624931462176 0.119588553640521 60 139 59
-0.004537055890756 0.019525781747581 0.114405133826749 35 59 21
-0.006462248954812 -0.035343373865417 0.165040438404477 118 255 109
-0.004549869412836 -0.009330696744263 0.121026287541612 116 215 105
-0.005655415584498 0.015654514289646 0.148585029683418 77 178 76
-0.004922244935282 0.002881831614559 0.134099266585781 62 140 65
-0.005982834703831 -0.024186208489952 0.167219892168122 70 167 75
-0.005906081532295 -0.010494530000440 0.164465272273949 60 149 66
-0.004138210920445 0.020384012860002 0.118405321956957 29 74 35
-0.003363563320912 0.013292950206977 0.100693091286956 40 115 47
-0.004998407093744 0.028888529346017 0.151546901159400 65 179 81
-0.003635752485517 0.010097991296917 0.119903410275615 45 129 52
-0.003397101092525 0.023146558680117 0.117620577059512 13 31 14
-0.002607206814150 -0.002639171981000 0.103452895038070 98 210 96
-0.002359877598357 -0.005222898130003 0.103487534682468 78 173 75
-0.002810791719887 -0.013178331095965 0.127982665222645 87 201 86
-0.002637874985541 0.006095780776644 0.120445493501345 76 183 84
-0.001837824674072 0.011908010685107 0.096415800731212 58 127 61
-0.001723724142609 0.010433562550827 0.096385809345014 71 153 67
-0.002062788886608 -0.008304559279546 0.120907836238698 98 202 91
-0.001833147135206 -0.036794301655807 0.164502479870309 88 255 105
-0.001414656134236 -0.013640031736923 0.127973137741274 50 134 43
-0.000808985546104 0.010092508833468 0.096369100596520 93 200 102
-0.000891698604867 0.021546532811464 0.105672884905344 77 159 76
-0.000884839431024 0.010817646894203 0.119891363338011 62 148 61
-0.000740089919737 0.011537741957052 0.119914980624412 44 119 52
-0.000451316298426 -0.002429692703786 0.093633684092908 65 155 67
-0.000465827802941 0.012470867094767 0.096393122916872 91 181 82
-0.000223532675863 -0.017257683332792 0.158549165254185 62 165 68
-0.000156826110256 0.022012003310683 0.117440689211479 62 119 49
-0.000029429022928 -0.023852381662860 0.158843352859157 82 178 73
0.000214217769248 -0.004418000593886 0.093733338736670 110 201 112
0.000450048535489 -0.020825686405808 0.129628207463987 113 234 98
0.000852169880957 0.008077793447847 0.119777708893632 51 122 59
0.001915916461130 -0.019195032062296 0.158600573225872 59 153 58
0.002109634989697 -0.016852444158015 0.158395373868689 64 160 70
0.001589956412960 0.025604372300163 0.121902144422519 57 134 55
0.001882380567296 0.024587255374922 0.121817000372348 41 105 43
0.002096191273925 -0.001946446088375 0.116623751140812 69 170 70
0.003634037665607 -0.022300679957757 0.157516122111695 58 148 69
0.004231917486568 -0.036544475858078 0.166797291657847 86 255 109
0.002940651040357 0.000577383099594 0.116619981434220 65 150 64
0.002926858874065 0.012003140521813 0.106841887327079 15 30 12
0.003504606346229 -0.001947433365482 0.116665688962200 100 195 95
0.005034447094823 -0.014740697092186 0.158577507358035 85 187 88
0.003300193741170 0.020794657803744 0.103309545400811 80 174 87
0.005847947143576 -0.036489678059354 0.166586237065958 125 255 130
0.006210366144957 -0.011445143438661 0.158637226164830 49 111 48
0.006821227204001 0.025674409634821 0.174478827238397 27 50 22
0.006522840913223 -0.021002524735837 0.161920739032720 77 176 81
0.004462119842588 0.004124740513962 0.106704745863263 75 159 68
0.005089837063070 0.002555356625587 0.117477115261804 74 175 67
0.008241930295842 0.042685173732507 0.188605967487721 17 36 20
0.008212314961515 0.042989357141078 0.188014195448711 18 36 16
0.007796269347451 -0.037269122786857 0.173504706912701 85 249 92
0.004650719505518 0.018728313089114 0.103229055066666 64 155 72
0.007138148030354 -0.010113034524761 0.146379911417911 79 176 81
0.005619555022847 -0.003072592016744 0.116771603980604 83 169 80
0.005102285052730 0.003107546250028 0.106724595202149 80 159 77
0.007963808717569 -0.015538330044995 0.158839098887692 63 142 65
0.009690441492534 -0.037679332027464 0.163487566215045 191 255 181
0.007091032211856 0.013454918214996 0.118064256417075 61 154 71
0.007668981631794 -0.010236451138788 0.124580671471684 83 172 80
0.006640499429650 0.003362972582760 0.106815675289556 88 213 96
0.006768694188806 0.004126761443813 0.106830217641691 44 118 33
0.011072382261185 -0.037021848142017 0.168996852840509 88 255 102
0.009209026162147 0.000267715407201 0.137619109562709 56 164 72
0.009541671752860 0.000936990455401 0.137591223704241 47 139 55
0.007110170390773 0.019108288026034 0.103374198755363 89 185 89
0.010550213239721 -0.008872176303788 0.146572637626669 53 127 60
0.007786360347398 0.009746145425241 0.108551708509118 66 132 61
0.011987257272150 0.026215260757695 0.163968416999105 53 121 56
0.012488878934846 0.020921508548486 0.167363410035943 61 136 62
0.012692604912309 -0.036743182731540 0.168715796732539 59 208 69
0.008183325181021 0.010012756371785 0.108657005014123 69 181 72
0.010812813681833 -0.017994126692395 0.139365683507123 73 147 73
0.014974267310050 -0.026150535989186 0.187448875589882 32 71 27
0.011628866264874 0.005800619203700 0.146596590428661 73 164 72
0.009239670106982 0.012626836980636 0.118285485223933 77 175 77
0.013038773107233 0.003596897968810 0.161030095130444 44 112 44
0.008577767537132 0.010793895723070 0.108742755132141 92 203 111
0.013252338836548 0.028319055109543 0.162644390037343 66 146 64
0.013827573112476 -0.038395653647714 0.163414239179665 114 255 127
0.009832952805248 -0.013029749047102 0.117042161360433 88 186 77
0.014638877713718 -0.036475294528059 0.167638862159472 96 255 106
0.010241665366080 -0.011470855139470 0.116845317963451 99 191 87
0.012341290794318 -0.001426765436672 0.138918169060108 75 168 87
0.016122497953005 0.009373686629312 0.176980330789010 51 120 53
0.017025689099547 -0.012767597328217 0.184113920439477 31 105 40
0.015182666575041 0.022699495776173 0.165774265421444 57 122 52
0.013990980017918 -0.027762009829810 0.146505327358834 82 177 75
0.015982942020469 0.022480661477944 0.165689650116355 38 88 40
0.016582898586017 0.019710788363573 0.169347402757289 70 168 70
0.018351472866007 0.034921519136082 0.181511319511552 24 53 21
0.012643969645424 0.026407640011465 0.127210456917425 84 191 88
0.018530680487279 0.003264397781571 0.177025503187112 16 36 15
0.018437280861969 0.004118512800580 0.176185496883060 58 133 44
0.018628842781498 0.011832806929735 0.178168280342635 56 136 64
0.016195648439926 0.030123455002894 0.157299937399265 34 54 30
0.019656151380427 -0.012858704914361 0.185418451786589 67 135 65
0.014599669709732 -0.004661065346787 0.139565890312837 55 137 56
0.014738374931276 -0.002110326482366 0.139266831469645 70 160 66
0.019121555278895 0.014992752529256 0.176895392377807 54 130 56
0.020000192076244 0.011323076768350 0.180576937797847 17 50 21
0.019852239053674 -0.017302478884901 0.175777690378843 67 151 68
0.019633694842389 -0.036660645590308 0.170423616977556 55 200 72
0.016863378358226 -0.027822952972633 0.146934819355393 76 168 81
0.014491068613862 0.028258008554595 0.127604706073306 70 161 70
0.020647613618090 -0.029542796116798 0.176178221716465 67 164 69
0.020848796480468 -0.014805154477076 0.176777626876567 46 122 50
0.016404481684573 -0.001094049447258 0.139110203117447 81 182 80
0.015057101157950 0.019344843332488 0.125361081885677 72 176 76
0.014559216196002 -0.003742660346349 0.119745596092791 76 184 78
0.020184845388795 -0.038112897726924 0.158171186480364 91 255 96
0.015583872048984 -0.003460042233250 0.119898936557622 75 155 65
0.024291456218834 0.018192122957922 0.183267362504694 59 133 60
0.013199358231905 0.000308681391001 0.101812566163174 100 209 96
0.016505367996120 0.022466163519129 0.126317798972624 82 189 82
0.022789199001120 -0.036748935652110 0.171000158418995 92 255 104
0.024477177017848 -0.012286667281045 0.181018193942083 132 196 100
0.024686560645801 -0.019191218745863 0.181269323994244 26 35 19
0.019063099026349 -0.000597794892416 0.140090048497166 7 29 19
0.023868132349012 -0.032815987160517 0.173736462108170 101 212 100
0.021116554592505 0.010876648636502 0.153315590988959 45 111 45
0.021143073866856 0.023404399979724 0.154268742634855 66 157 69
0.015152772639439 0.021546149076390 0.110890738302647 73 173 86
0.024387845044990 -0.018532453538635 0.171853179193537 57 141 59
0.026521062104673 0.019744331060219 0.183400223991553 67 162 70
0.024988060761298 -0.036835373942578 0.173310615778522 98 238 109
0.025115822309445 -0.030672042761828 0.173480888643922 65 161 71
0.025023974895984 -0.018958835309828 0.171959333638305 34 66 33
0.026001924338799 0.003231061106930 0.176456739614073 46 117 48
0.026603953555408 0.007450707033897 0.179047980380761 79 188 87
0.017505177459730 0.010807607627400 0.120458186138353 78 166 75
0.024018209912380 -0.019684658930334 0.161611458732184 70 171 73
0.025760530137907 -0.005824241819685 0.169558711441981 35 92 34
0.017937221668518 -0.003039972080800 0.120293460135380 64 142 70
0.027683142502379 0.010683305700174 0.181849707341097 18 37 15
0.023520650665686 0.023901468756068 0.154135245132039 90 186 92
0.022963242317466 0.000054295106627 0.148536118477817 76 166 68
0.020472377639921 0.007442041303187 0.132347257566776 54 146 69
0.027430517829818 -0.036383391207689 0.174225166270752 80 216 79
0.019478951109439 -0.016520784515099 0.123111626761626 110 216 96
0.029899655083929 -0.012071207119846 0.184509445423041 17 17 6
0.028654876689905 0.004532657994085 0.177001847703339 63 155 66
0.028772603923586 0.024408790418692 0.177452510064485 58 135 59
0.018692694642559 0.024777724128211 0.118162748582737 105 199 97
0.021236864538242 -0.007336397737995 0.131266689270820 64 169 76
0.030569865073898 -0.010253882231637 0.184457988022210 45 116 48
0.019333745494896 -0.020152805938430 0.119159380770209 89 181 82
0.019626652287340 -0.017462794284739 0.119046409516710 103 229 99
0.029892525147086 -0.034075470148247 0.177276843823522 46 123 52
0.018223312136881 -0.012633750071534 0.105228140944121 90 201 98
0.023196341433504 -0.004027334859781 0.131647677430637 74 163 76
0.026704363853188 0.004399948337833 0.149530795871004 80 175 79
0.026706274074660 0.006214728151168 0.149577747186081 70 155 75
0.021447557815716 0.007928790223538 0.120800648270540 71 163 74
0.025813856818549 0.015381733925327 0.144260348960281 69 160 74
0.021396261520791 -0.018800565373527 0.119572572973978 91 201 80
0.031976220061664 -0.037584640057973 0.175348749182528 109 247 100
0.024015107560751 -0.006574635725981 0.131883144524387 77 163 69
0.019502844152910 -0.011410470803526 0.105405280064386 86 184 81
0.027098041647469 -0.013830519746421 0.143704951027118 70 157 64
0.022307797414577 0.024037384698874 0.118833580086913 92 186 90
0.027049479015811 -0.020000555984601 0.141299100436407 83 203 94
0.031230225023851 -0.038018644065012 0.160821585347239 101 255 118
0.034547667585581 -0.036527777759197 0.173665569780365 126 255 129
0.034150027285627 0.022516290005262 0.170615674116252 61 147 54
0.024016147104762 0.008198674482082 0.120812349312273 91 190 95
0.026715635433748 0.022070241121693 0.134359862554846 94 195 77
0.032412732478257 -0.038245065156022 0.161085043373287 124 255 129
0.026934163932540 0.025339595373704 0.134171937021409 70 153 78
0.028876969705729 -0.018385075971792 0.141935686559790 79 172 72
0.027450709433952 0.003787975444752 0.134008486205538 94 206 101
0.027495179914589 0.022368275311841 0.134338313265090 45 111 45
0.040854661433523 -0.018549520698249 0.193345829987668 119 125 79
0.033376808431869 -0.007762382094649 0.156374435736588 81 177 81
0.028753125332849 0.021179497278470 0.134940264398513 77 155 76
0.020566823368968 0.009558392946487 0.097448649758325 89 153 82
0.037975295895299 -0.036183264180324 0.175224627844386 71 205 76
0.030553441614802 0.017910838241302 0.140512609458401 52 120 58
0.031087148734670 0.017082499293682 0.140630603304951 38 88 36
0.037550713873521 -0.037432963314423 0.169218804639338 151 255 137
0.029222038611766 -0.014033291445029 0.129831613509565 70 160 81
0.032369691958157 0.007742529087874 0.142141684090561 59 139 68
0.030478440045976 0.025315075082490 0.135230002336034 55 139 66
0.036201111958749 -0.007809149147241 0.157381092641839 80 168 82
0.039247169699701 -0.037501608154671 0.170524746269489 104 255 107
0.034475887001739 -0.019542369071603 0.149277460368079 58 151 55
0.040039033443862 -0.036198706220072 0.172792138836042 94 255 105
0.037791654646786 -0.001188834314166 0.161544951483415 65 158 61
0.036460317224044 0.032993881938915 0.157989560919673 69 151 69
0.032103325172122 0.021461861897002 0.137044457601302 57 117 55
0.029539775798637 -0.021347555522306 0.125491633807600 102 221 103
0.046487994963008 -0.012811153870405 0.192782260886557 76 175 80
0.043784934211856 0.003678244137117 0.181790203295725 41 125 48
0.024256860043419 -0.009782556004321 0.103232578878771 93 188 94
0.041806501526973 -0.036372407920791 0.171113934781340 122 255 117
0.041661680056317 -0.037694753103852 0.169949000146050 116 255 127
0.038668833098568 0.032747750547444 0.158008493544903 68 153 71
0.029472854457196 -0.002739932339876 0.119960776753581 95 207 103
0.046100033990037 0.006558079754825 0.182552962834342 59 148 61
0.039667361719798 0.030342041461032 0.158078879667666 47 98 41
0.043694644017037 0.022492537872360 0.171871376960510 67 147 74
0.050650612791595 -0.012459178540423 0.194826118278144 34 89 37
0.029000319070027 0.006474196492706 0.114095225271068 116 205 105
0.035227569254706 0.022214032051243 0.138084654031477 62 151 65
0.032072083648359 0.023535137087116 0.126407266502579 86 182 78
0.043891162977121 -0.035007679280542 0.170638413623181 54 160 63
0.034290858426825 -0.026067693960186 0.134326518776461 107 228 111
0.047436187795798 0.008288796357814 0.182027596974650 40 119 42
0.045671832821722 0.001824336445102 0.173857508993531 62 155 60
0.026196549281009 -0.008793210443554 0.100728105067097 89 179 87
0.042464543599042 -0.036977053569621 0.160860256112893 84 249 93
0.046579478107195 -0.024225740800591 0.174349156751793 85 171 73
0.045344690216184 -0.036134563030242 0.169661919636891 54 160 62
0.043555448063084 -0.035879841382577 0.162634368666502 153 255 156
0.047209327598120 0.026332374599003 0.174785560320436 58 119 65
0.034097390136491 -0.002896555514530 0.125466590953467 79 169 88
0.036665999834199 -0.026018141759509 0.135078377798017 63 151 68
0.048304410930846 0.024256854959114 0.174926093023798 87 179 85
0.034778062149482 0.022583877888926 0.127161737757923 74 166 84
0.045235298898062 -0.035563006358010 0.163902236345089 103 255 116
0.041692896999596 -0.022875323717276 0.148768508060556 46 124 52
0.050665899826339 0.020067567604920 0.178547901536968 33 65 34
0.051658123103547 0.019415592433226 0.180469831952824 31 71 30
0.047436503263706 0.003501906521688 0.164317896338069 58 150 62
0.052747301969043 -0.014351642653101 0.181634473309425 86 185 81
0.051923370072674 0.019057149694797 0.179265460274030 38 76 32
0.052911788765816 -0.010834580820702 0.181362776950783 65 161 61
0.049292576160009 -0.036020973916429 0.170551620461118 68 210 74
0.043606946247512 -0.035403273921599 0.151232229147043 84 255 111
0.054803406253516 -0.036432141810749 0.185250503031602 79 143 70
0.050231575869591 0.028845442884100 0.169914499000348 61 141 68
0.053802470069916 0.027190563836334 0.180017186130291 70 159 74
0.030322180089023 0.019583738416876 0.102442461084628 92 171 87
0.049200288254809 -0.034951678644587 0.163451817268519 108 255 118
0.048908729956506 0.035110571116672 0.162720940441940 69 145 68
0.038450729000739 -0.000681770719192 0.126934986366134 76 178 90
0.056027762000742 -0.010772571083044 0.180756196694131 58 144 59
0.033776362137503 0.004768556030766 0.109787821999680 85 192 92
0.053101499867458 0.003950280569725 0.168495108593395 102 214 95
0.046511352221891 -0.005794115668929 0.147203064000118 44 96 43
0.050230316121314 0.029457552835200 0.160015677062665 56 113 52
0.058947180354412 0.018839886975852 0.182647579180729 51 116 52
0.052183487721686 -0.035893866034198 0.161557995793033 98 255 111
0.038192419515115 -0.015554212451704 0.118090323144753 102 209 95
0.051720823543740 0.025660532093976 0.158777654439820 44 95 49
0.048174627238419 -0.008382940276108 0.146776512997725 90 165 81
0.048462834213399 -0.009766828932298 0.146694595397462 93 182 84
0.035371661568122 -0.002150047409506 0.108250395716117 123 216 107
0.052916759950400 0.030865180681871 0.160168881955775 90 163 85
0.034905885620474 -0.020946564543153 0.106238141178851 58 111 48
0.052978523339039 0.025722771244362 0.158324278791560 80 161 88
0.054325397296825 0.034922401306397 0.162096247437454 69 127 72
0.035732713665504 -0.018525768924629 0.106398191683840 105 187 100
0.041806547822446 -0.005430647942274 0.123070688039110 90 187 89
0.062439740844970 0.024666483834026 0.181988356517901 78 141 80
0.054998030720736 0.027938281312668 0.160745458954353 63 118 67
