ply
format ascii 1.0
element vertex 426
property double x
property double y
property double z
property uchar red
property uchar green
property uchar blue
end_header
-0.034117498444698 0.003196442836117 0.100523333531595 76 167 80
-0.062835051622338 -0.043378679375868 0.185116058588506 81 223 84
-0.060906268350188 0.019826489925493 0.180463049326960 80 201 99
-0.060919532790560 0.034443655400360 0.182948225906395 60 153 65
-0.060961278436484 -0.043058441449059 0.184378891354402 76 218 85
-0.051377567974828 -0.009567486234149 0.154019320880000 73 161 71
-0.055053684016565 0.024420877455153 0.165577881648655 46 98 45
-0.048155454998803 -0.024823299574208 0.146012275094523 77 159 66
-0.060072952842559 0.022200565614725 0.180545582796261 63 152 64
-0.059711457887464 0.036140035620004 0.180809787752368 71 180 81
-0.054359760690375 0.023986650241574 0.165134488485836 27 73 29
-0.031303096314468 0.021492191391323 0.097131451370139 58 123 55
-0.062852314638369 -0.017770107311724 0.190670995014044 67 151 72
-0.059236089413980 -0.042684701860618 0.183460950774939 72 192 75
-0.046881588168900 -0.024782314435905 0.145624251729927 68 155 74
-0.058098318875067 0.018267499729219 0.179210716771605 78 173 72
-0.057692774171120 -0.025972765465206 0.178974894562577 43 125 45
-0.054352996803237 0.012702803137498 0.170018742636011 17 47 21
-0.054119661914533 0.012088292538413 0.169866441939394 41 121 44
-0.053783293667242 0.032764899420640 0.170391062750825 72 167 83
-0.053564785375919 0.007024219009712 0.169759802844298 38 91 38
-0.056325324844817 0.023040701589344 0.179673507934585 26 73 22
-0.051169418688796 0.021746095725015 0.163700765339031 31 74 36
-0.047468171238550 -0.011823504114284 0.152217259953141 56 158 62
-0.047279302489484 -0.009823511759982 0.152098202359516 43 116 43
-0.052291681097686 -0.039446426332365 0.170465615384811 73 140 64
-0.041195755505486 0.004006636669296 0.133584503427317 42 113 50
-0.054872676326030 -0.027964965890233 0.177887737847201 52 119 57
-0.055342365190010 0.020000944362200 0.178921518657255 95 203 83
-0.050474052820008 -0.029028367921491 0.165468495783885 74 164 69
-0.052590092951444 0.006677351976300 0.170927063380339 11 25 14
-0.040184285623607 -0.013732169165370 0.133563357365473 47 104 48
-0.042029588947110 0.000525569033435 0.140128633114521 46 118 54
-0.035901597486532 -0.005342188104517 0.120998652095308 47 110 47
-0.053620320665113 -0.025616620638690 0.180158109688249 25 68 27
-0.056895463210284 0.004432900624054 0.189873155509817 34 80 33
-0.039118668092056 -0.017871404861132 0.133786346674546 58 131 62
-0.052695734572751 -0.038396404965790 0.180381539227481 44 108 43
-0.038828140346056 -0.014230436360368 0.133636290580534 44 122 46
-0.050619401830713 -0.013968917232078 0.172319793624505 69 163 70
-0.046353552476615 0.010576298504729 0.158238003330389 71 161 74
-0.046707117326760 0.013134252252305 0.159506972123845 52 126 58
-0.049608768864844 0.006523716913240 0.171402023862203 25 69 28
-0.043480092869521 0.031573899382205 0.152572973476027 56 137 59
-0.045219121420280 0.008275198461284 0.157397435304364 51 125 54
-0.039495511719373 0.001364571727002 0.139165008088430 67 148 63
-0.050360571164242 0.019835668764882 0.176542680337361 46 118 54
-0.030262014552558 -0.003703025446159 0.108862593111143 60 143 67
-0.048143451016663 0.008109077335454 0.169810337497543 35 66 34
-0.037103448212859 -0.016070423181828 0.133070103302885 58 130 54
-0.048358057930510 0.013742043973275 0.171428731831400 52 126 51
-0.049104524238254 0.018708607807226 0.175633651579807 34 88 37
-0.047230043101421 0.014940264173261 0.173086560796954 59 139 60
-0.042403187229267 0.006375193034283 0.156365860508319 47 131 48
-0.045650627150733 0.011126853830564 0.168716771038430 71 148 70
-0.026093684825259 -0.020520377234767 0.100442224566041 53 119 49
-0.032894920116846 0.001274092849303 0.124122877584129 63 153 69
-0.033372761764157 -0.008117645477854 0.127539114270703 37 107 46
-0.030325388668500 -0.004291521149223 0.116388886067207 16 40 17
-0.032980665785737 0.015828977708443 0.126416327223460 61 149 57
-0.040908354657872 0.017201947973605 0.155989846044173 71 165 72
-0.030044269327066 -0.003876458024121 0.116338915168374 47 109 50
-0.042377268255206 -0.038040092857752 0.165855859398528 65 154 68
-0.044294093960336 0.009694241532958 0.171637741821730 64 139 65
-0.044267287494748 0.017148918675042 0.171886300824587 33 97 38
-0.031264241430050 0.001890453991386 0.125590832563183 47 116 45
-0.043203757274218 0.008236806345868 0.171248599912848 53 144 58
-0.031081279362101 0.015339907367151 0.125838199079298 49 112 53
-0.024864333871572 0.019784744088301 0.103536164457177 58 138 60
-0.030593469099886 0.001746206181294 0.125824743634189 47 113 53
-0.040693462684843 -0.035878021957170 0.167979342132089 42 98 38
-0.030685312618367 -0.005054126091867 0.126801358857027 50 121 55
-0.038899984056273 0.029686626860543 0.161221402351711 29 84 33
-0.047107341103167 -0.014618695560717 0.197758893335117 60 140 63
-0.039821627387854 -0.028757503761671 0.170040677984786 65 148 64
-0.044258263275718 -0.041119375342379 0.192932362150303 58 123 52
-0.029835849026117 0.021882635354129 0.132720527374566 43 118 53
-0.029681658131004 0.019518405911887 0.132555447574833 69 170 78
-0.029506642129842 0.022663438174880 0.132697173532858 39 87 39
-0.042624179984744 -0.041114696965527 0.191739486492547 57 157 61
-0.027632634190055 -0.000800283295891 0.125745081608396 60 133 55
-0.026120668542626 -0.004362859822375 0.121106639341024 37 109 47
-0.021293486385351 0.009873525848229 0.100586993329837 55 119 54
-0.035171426738214 0.003815339380545 0.165835781795109 63 143 62
-0.020695308392210 0.009754725254358 0.100529708631949 53 129 53
-0.023927396229385 0.025721573367932 0.117320766482684 55 118 52
-0.018003184944697 0.017191034738158 0.094541330586988 53 130 52
-0.034162794493692 -0.003445805844831 0.174397822001571 55 104 55
-0.034160038169011 0.001456790614884 0.174385103279150 38 102 37
-0.033685419318049 -0.023951340528834 0.173919409952059 67 140 67
-0.019689124473869 0.006943999629317 0.104195159573624 51 138 60
-0.017651614618599 0.017614458639548 0.094452006465346 33 80 35
-0.033404881756250 -0.019587336372112 0.174290306894167 63 152 64
-0.019314421467597 0.008419783490755 0.104186710906123 58 147 61
-0.031798024809958 -0.037332438201342 0.169889337535597 70 152 74
-0.019226323617087 0.004613514557048 0.104291925800931 42 114 50
-0.030853347404667 -0.025990862575245 0.165992013249944 19 49 19
-0.032612134692868 -0.007102316603806 0.175065929401229 67 146 67
-0.030727328618496 -0.025824800102462 0.167365395866069 61 152 62
-0.018646818477494 0.005577426233252 0.103841538652923 58 144 67
-0.031186592918664 -0.024022080814705 0.172784264827487 61 138 57
-0.031967156162991 0.001491034776828 0.178312584028387 65 155 68
-0.019244695938178 0.024327892138189 0.112612933572878 45 114 45
-0.029547345003339 -0.039396621214370 0.173252881402728 81 147 71
-0.025417459493079 -0.024962628810370 0.150025558805610 85 183 85
-0.029587570162475 -0.002760755893897 0.172231209008981 64 148 64
-0.032031731049494 -0.039929942729651 0.189424728367312 28 53 26
-0.029660131542119 -0.006413448638372 0.173844124612881 59 128 63
-0.017207951351904 0.006084471996828 0.104002359325628 19 44 21
-0.031250831862011 -0.021739384984525 0.189785815187113 61 139 59
-0.015818041325151 0.004798608278872 0.100149109650907 58 147 66
-0.027410126946374 -0.041111828674782 0.174241106724254 66 139 68
-0.022880343602966 0.003774671773857 0.145597259333688 57 146 57
-0.021153607404566 0.010695000232224 0.143686430324561 75 152 68
-0.013651660157270 0.009744225832804 0.099963713372838 65 137 66
-0.024390341595149 -0.023299740178595 0.175983750017089 73 170 84
-0.021782729104094 0.014569356050546 0.158997098333483 17 34 10
-0.023694583919543 0.021058258546462 0.174095680216231 65 146 67
-0.025488535473981 -0.018973636326947 0.189541801825835 38 97 40
-0.023046640974035 0.020414420656266 0.173940925447914 3 12 3
-0.024667532125693 -0.018826619311222 0.190292338299241 24 36 21
-0.023629041375218 -0.006320797642661 0.182195121779180 35 91 35
-0.017538507720706 -0.031005185189769 0.141347626427034 90 202 91
-0.022897594781008 -0.004461647602097 0.180016992378286 47 130 51
-0.023342701916536 -0.038925082082860 0.187276848403608 29 53 26
-0.017711787498526 0.015006315052651 0.148159252435102 26 43 18
-0.022902019446753 -0.014669718372120 0.190837330279215 62 146 65
-0.014686186494418 -0.006808402213287 0.127574693361564 50 126 49
-0.017162937581756 0.014101801077994 0.148019590822300 40 100 42
-0.021440295456344 -0.017895997820654 0.192487045054585 34 87 40
-0.019821307733070 0.025790030568317 0.183159552863695 54 145 58
-0.011840120283363 -0.002617858657195 0.115606949424953 52 130 60
-0.011424744156553 0.002730760295916 0.113055620349412 34 107 31
-0.019553787319186 -0.014391201081805 0.190159167352704 66 166 67
-0.014879906074000 0.028896143404024 0.158613377290296 18 52 18
-0.014860446716884 0.029434132316724 0.158472530000578 19 50 20
-0.011018476275097 0.009440747952552 0.124631210669875 59 126 55
-0.014171482267569 -0.015272457414828 0.160182190631955 60 156 69
-0.015280902548553 -0.008247605121953 0.171784508422572 22 58 23
-0.014541882562235 -0.007329107347844 0.166036317756227 40 71 38
-0.016019261026352 -0.016250596992990 0.187352253567067 27 41 21
-0.009160614623657 -0.002074669314801 0.110459263960053 62 158 73
-0.011338237524557 0.015799058349052 0.135199720735723 56 130 55
-0.008585196136666 0.003007809240318 0.113122302362144 56 130 65
-0.014348275870444 -0.024279675189926 0.187138985783485 74 166 70
-0.009905065088232 0.000434532029258 0.137392267838800 52 108 49
-0.009900844639409 0.001937757039678 0.137344789931530 53 138 57
-0.011417769315516 -0.005659990540838 0.165071967849815 69 163 62
-0.008390147430555 0.009074074549363 0.123619328460960 60 134 59
-0.010688340783278 0.033832277968626 0.157028201737345 45 128 50
-0.011104799760026 -0.038439645508706 0.165828426999210 81 233 82
-0.008070849997827 0.013268225837601 0.121399191077949 60 133 60
-0.008074914295262 0.014003734051724 0.121490208713453 58 129 56
-0.006131523884245 -0.008066735492304 0.097359343384156 74 148 63
-0.006792970726351 0.019898058970012 0.107413242143269 60 132 60
-0.009572009061563 0.020390982303500 0.150504439523407 45 117 47
-0.007995194582822 0.003915340505472 0.136289143671803 76 149 76
-0.007042091826911 0.024179201136917 0.122003805643432 37 84 34
-0.007706855903281 0.001602882830826 0.136988514880385 68 150 75
-0.009491553066662 -0.023948740104334 0.171114591357330 86 176 72
-0.008862203703730 -0.038313918529579 0.165253477063152 105 255 119
-0.008948213042362 -0.035647719701332 0.166428967626345 16 40 11
-0.008208496783226 -0.032849752350487 0.156595946054219 80 163 75
-0.007919724901228 0.016367901504078 0.150193089928571 53 135 53
-0.009712017942166 -0.012924447679439 0.185983302465081 56 140 60
-0.006085078207632 0.006481891036487 0.122327180411012 73 169 86
-0.008156773944545 -0.007276046997980 0.164852892971016 62 151 58
-0.007443066611867 0.021147582765043 0.151911448851886 40 108 48
-0.005741016642890 0.021620754930511 0.122094621228530 56 118 59
-0.005152053925138 0.023508870519687 0.122183980761362 52 118 54
-0.005857112558615 0.013709030720057 0.148968735581449 44 105 50
-0.006244880458023 -0.037857521578154 0.164924261115841 76 255 110
-0.007177076538169 -0.014995023907547 0.185970734131035 90 178 87
-0.004594679816393 0.006616038703988 0.122046926523090 44 120 46
-0.004520473541416 0.019094049042522 0.120751220278615 47 85 46
-0.005522065279224 0.016519477878578 0.149860405933628 45 117 51
-0.003052757802229 0.012534103887764 0.102148835192504 62 136 60
-0.003350737597608 0.002026245133816 0.119891199393830 62 139 65
-0.004683697948835 -0.019853675976654 0.171642176801523 29 70 28
-0.004067572243447 -0.037306008161902 0.165845886106552 49 172 64
-0.004267948757077 -0.005126180158186 0.179834476594128 57 121 58
-0.002648070900032 0.005098450750001 0.120858219912131 51 139 43
-0.002006357585119 0.018624369431743 0.094111052238462 67 151 72
-0.003783355417263 0.035759412936010 0.170885695813605 26 53 18
-0.003376785682921 -0.022194984522003 0.160643075143635 67 154 73
-0.001786901407118 -0.006635240988242 0.099550956124931 94 189 89
-0.002209268603336 0.007136292558353 0.120884506101437 66 147 70
-0.002057221732018 0.003197252475430 0.120501506544960 48 94 49
-0.002660440388391 -0.037174992220065 0.166106670780932 79 217 82
-0.002814216618886 -0.036567340413276 0.174920879393271 66 160 63
-0.002162472513910 -0.018364564362609 0.158139465094871 83 183 84
-0.001131276808332 0.005482633589111 0.177213411110440 58 124 63
-0.000844643490891 -0.036712316298923 0.166643484473146 62 213 75
-0.000705553744257 0.010993593885276 0.139905012355792 11 31 18
-0.000161652520189 0.023169464168309 0.120448410465132 40 103 41
0.000161217521602 -0.037516021567468 0.158129772733576 74 242 91
0.000102665879252 0.021162258257559 0.094251028204551 35 109 41
0.000550331338106 -0.020205118110120 0.157538074073783 64 151 54
0.000414625818352 -0.002707253354715 0.118709734215404 51 96 45
0.000413967497829 0.020581977324715 0.119468099854812 58 122 50
0.000979340590543 -0.037444221968009 0.166401170112898 82 245 92
0.000616843089965 -0.003814833247632 0.105004723117878 85 183 100
0.000773598625696 0.016220799850419 0.109607545531608 50 127 64
0.001327092442857 -0.017175034600324 0.157852948044122 59 126 56
0.001349760028273 -0.010323707736539 0.125453461577287 41 108 36
0.001501845754568 -0.009717678319377 0.125438621946747 23 65 29
0.001429988791537 -0.000570902620080 0.119577034420624 80 166 87
0.001432364372120 -0.000283932584323 0.119763927423940 49 118 42
0.001286789438152 0.009745175348442 0.108417070368616 49 112 51
0.001169710384395 0.011689126489991 0.099204522179580 97 217 90
0.002971112061551 -0.036822193759786 0.164628177587826 94 233 79
0.003308037264518 -0.018791805335802 0.159991814817712 32 88 40
0.002159327347974 0.021144085950175 0.107298667665801 57 122 58
0.003268042660513 0.007743481469536 0.149276486149122 19 65 24
0.003657627099219 -0.023227378027369 0.158555335890375 45 105 43
0.002501945797177 -0.003315505255117 0.105024384949268 49 120 50
0.002716863831040 0.015177047510752 0.108680607247417 10 19 10
0.004577960342365 -0.036461667501538 0.164771370957571 108 255 118
0.003106557843717 0.011039607642306 0.108496570008341 66 137 77
0.004642927812941 -0.014057580342607 0.141686265812319 58 125 58
0.004238823920511 -0.001823736029747 0.117458474191847 44 121 50
0.003820992079767 0.019877583781456 0.107249257748242 64 160 72
0.003683198736149 -0.004901395528464 0.094424193020409 60 160 63
0.004812875519338 -0.003666935661757 0.117643802020927 72 179 76
0.007621714823244 -0.032762225627870 0.173780004905245 47 126 52
0.005767847456958 -0.002655580251883 0.116910088706559 70 140 72
0.006502225789930 -0.007306263582384 0.127955181666718 51 113 53
0.008393875234445 -0.037394452274234 0.161516616277506 193 255 179
0.006929308327401 0.002350294985114 0.122122318841749 14 56 16
0.012133067349656 -0.027211937967188 0.189803139538537 53 123 57
0.007756437886027 0.002334913457750 0.121272720376267 56 159 70
0.009331411936253 -0.009981190122448 0.128562119201389 40 98 40
0.010536023951147 -0.016507641606950 0.142189592158103 49 108 48
0.008736860480623 -0.002097419457538 0.117066705210736 48 127 57
0.008342040700105 0.011030808487126 0.112309687920973 81 182 81
0.007856278970207 0.018228384475307 0.106548318579807 61 122 59
0.007983657894584 0.018229357250414 0.106557394815265 74 148 69
0.012739206462785 -0.038703024437024 0.164598877235199 90 246 91
0.008366691437427 0.015079565899325 0.106428824410018 52 113 55
0.013597026860503 -0.036411201958346 0.167319927816039 82 232 84
0.012564589023262 -0.027389439723136 0.146329078388972 86 170 79
0.010292974415139 0.001156334488822 0.120220686813336 68 158 76
0.015205535791085 -0.006549459832346 0.171652017974320 39 91 43
0.008117329617053 0.011757638709136 0.095368255135849 46 126 55
0.010849601504896 0.017570950982170 0.125203844797016 45 89 44
0.010965372153657 0.024587287921066 0.126976349266753 18 42 20
0.012488636225998 0.003680751898078 0.140510671461209 47 117 48
0.009420547877915 0.004676549507242 0.107895741421508 72 174 81
0.010017428264945 0.010822287925187 0.112963052805536 44 119 38
0.008663281334955 0.021858657602876 0.099228111593653 70 156 74
0.011267030791593 -0.011695695256309 0.121541789822430 61 120 63
0.011750806732693 0.024329369166576 0.127212791953118 45 109 46
0.010864081758659 0.008959610561335 0.113254703254274 55 122 52
0.011936531545562 -0.009159897935779 0.120877152765075 68 148 59
0.012539665337405 0.027094523261195 0.126294423913147 70 143 66
0.009478758704713 0.010755922781181 0.095439832030590 95 179 87
0.014579601880067 -0.000941963132981 0.140893898783366 52 127 55
0.019839851801444 -0.013446531370626 0.187097918533155 38 54 29
0.013134824968374 0.028125845643101 0.126329310797204 36 82 36
0.015784564680314 0.001456390343925 0.140983281350009 75 153 74
0.014245344818274 0.020969702293366 0.128756068547404 49 127 52
0.013791655054882 -0.021406746878281 0.122502307616975 64 158 62
0.020377794153375 -0.006589680623556 0.172703218982725 22 43 19
0.020276785953968 -0.017582169594991 0.170615832508043 53 117 51
0.021107149160735 -0.019428811379700 0.175653425367989 24 64 26
0.018490463676477 -0.004670565972444 0.154357049013153 31 98 42
0.019355258141217 0.014932764490163 0.158562998369392 40 83 39
0.017359176812808 -0.001979062601117 0.141289623321020 54 144 61
0.015907836473269 0.024931143276259 0.131210398465490 60 140 61
0.020347062980549 0.010688373555835 0.158597909604088 32 89 42
0.019736089926338 0.023481140161497 0.153482341934951 49 121 48
0.022735112920836 -0.033655235836954 0.174714102442713 54 145 58
0.022262358437348 -0.019792298234221 0.170109036368613 47 114 51
0.023193733338635 -0.008315556072014 0.173309763008792 34 84 36
0.023413300211817 -0.007678969264692 0.173357098699687 10 17 6
0.025889237932278 -0.012904322106679 0.189393724589044 72 149 67
0.019281192908615 0.001282057945659 0.141611652446432 39 99 40
0.021730958518226 0.013605395451021 0.159001687922945 42 101 47
0.023927111849927 -0.037150510614340 0.174622160072192 64 186 68
0.024155392499542 -0.030521560251095 0.172623009889456 67 169 70
0.022335705818681 0.011871176931212 0.159113337020910 61 137 60
0.015419564122983 0.022588272858108 0.112786682687130 64 141 69
0.016898770521707 0.012374732004632 0.120304689208652 35 64 31
0.021840483785609 0.025582853159815 0.154165160099584 70 158 68
0.015975158575591 -0.000768200257601 0.111252093569843 56 131 55
0.026505119787053 0.008146377249852 0.179838262512090 67 145 72
0.017340103973068 0.012235391096640 0.120373881669901 61 140 69
0.028193323654896 -0.014762989344574 0.189462390955596 53 113 48
0.022759365249199 0.003560094139565 0.151809124131923 47 121 51
0.016506122914623 0.024206188250158 0.113048448900687 65 146 69
0.026095443700450 -0.029104083282450 0.172937051280120 52 136 56
0.026571875773862 -0.036659159124395 0.175391428161211 61 179 65
0.019325553412209 -0.016410289331480 0.128529291304192 87 185 89
0.016203572504336 0.001055792094520 0.106197252332917 81 182 88
0.020906910369744 0.009873177281938 0.135076625445954 65 142 65
0.028591497209332 0.025910327018931 0.180335257853522 48 117 52
0.030816201844190 -0.011287840308247 0.189904234424882 68 141 65
0.021695357178047 -0.005164021761234 0.135786642284491 66 145 67
0.026869710704804 -0.037033825855801 0.161784953115447 69 208 78
0.022196545372329 -0.017825328226695 0.130979873983748 44 111 46
0.026192243763660 0.009131095844930 0.152768524597453 42 99 47
0.020991354298911 -0.018915888834969 0.123559655364347 88 186 84
0.024254947525985 0.016436331736555 0.141406633269443 40 88 35
0.023625571314711 -0.005361933794702 0.136592301520623 49 124 54
0.030191460092615 0.006102641206242 0.172587443514959 26 77 31
0.024442833558989 0.016276638495000 0.141504364146064 22 55 23
0.026772617978684 0.007094643461644 0.152880136237051 43 122 45
0.029178179774837 -0.035633916353499 0.161674851281845 110 242 109
0.026002716133573 -0.019348776089509 0.143650070779178 74 172 70
0.019886039644368 -0.011474265412480 0.111287722249871 73 148 66
0.021828906644997 0.010646177908247 0.120638864481958 63 146 68
0.027870753725659 -0.012358121509375 0.148411036692680 76 148 69
0.028894670205659 0.004872477169389 0.153402953889514 61 139 61
0.030311482001791 -0.038075103561504 0.160960333822595 81 241 97
0.024493423353611 0.008502841387629 0.129632007224991 59 145 59
0.024698940904439 0.025658375456406 0.131684667213704 47 114 44
0.031188376367982 -0.005683428831452 0.161112982121261 62 151 55
0.033265960262513 0.023806243456279 0.172355214403765 51 134 62
0.018915760364072 0.020412035213425 0.100987733900895 80 163 78
0.033856461627691 -0.036709201167920 0.175311857667998 87 215 84
0.031758669467048 -0.036315136219416 0.163162198459652 93 248 97
0.027241527945537 0.023598321444301 0.138527696831680 51 116 56
0.027709507207214 0.005935702420553 0.139059809037956 52 130 58
0.024132740445227 0.010636802565887 0.120768504841461 73 167 74
0.029606146184339 -0.017182815831707 0.144460383733136 76 169 77
0.036151882598582 -0.036252344671759 0.174423025073273 60 175 66
0.029506771266586 0.020425166444088 0.142700436642982 62 120 58
0.020503849097616 0.018554614758485 0.101163720575646 88 167 78
0.029043940061501 0.022376453770485 0.139223662932922 56 118 55
0.033961931397166 -0.038282593346600 0.162118611544782 105 255 119
0.025486077740130 0.008635122769879 0.121046256225222 72 152 82
0.035830202824753 -0.037112888043557 0.167699114064731 127 255 125
0.035097276374821 -0.002571106723292 0.162280858904686 60 134 61
0.022231098021531 -0.010284954466406 0.104361515164910 100 194 104
0.026118811927028 0.008361432856076 0.121322618246804 36 82 28
0.027762111845511 -0.024261898676686 0.128791007768622 60 133 61
0.039201101327351 0.002517681085297 0.175871187825230 52 107 50
0.029295881666054 0.028005198706234 0.134450968242098 44 119 47
0.033596507752409 -0.036340837801201 0.153063938311823 104 255 114
0.037831701873182 -0.037308478343783 0.170395824925417 56 189 65
0.032353741787846 -0.017613742139689 0.145328929450662 70 157 73
0.036100664963168 -0.012303107913383 0.161049921877292 52 139 56
0.030453207609087 0.026557173504337 0.135898750565804 50 114 50
0.038856751228883 -0.035864377266658 0.171186897641209 79 215 88
0.023405977564542 -0.009082523152587 0.104662424696094 73 159 71
0.022257226591017 0.011541385574776 0.099846465573748 51 107 48
0.031226373013786 0.024118953276570 0.138266080687467 44 105 48
0.042968709330977 0.008014342283658 0.184715745466198 48 121 50
0.033630167200676 -0.024130789483631 0.146135708353247 50 114 44
0.045847049415899 -0.011536267275528 0.194762690129835 13 24 14
0.024095084323131 -0.002695439709050 0.105351091665717 79 167 79
0.042752919899088 0.002763472742788 0.179331849838083 8 11 6
0.043247337858242 0.003231459825446 0.181338200415026 29 47 23
0.040061004065915 -0.037510388182649 0.169820349256338 88 242 95
0.040322672271959 -0.035091105112081 0.170588734777657 89 223 90
0.046842096612554 -0.012265849128455 0.195098215732236 34 77 35
0.028805826287890 -0.000325282318251 0.121748537513727 80 188 89
0.040887424075537 0.021822672194276 0.170999702368241 47 114 49
0.032381176328673 0.026495056238439 0.133570501257402 32 92 33
0.046266097010528 0.005518581331233 0.184817671632579 63 133 57
0.029556151910466 -0.023113387951246 0.120672735896016 104 209 92
0.040774817626088 0.000957616746367 0.162826798870785 59 134 61
0.032970280891175 0.026929996156644 0.133502371428510 54 126 50
0.042027882483252 -0.037695880404487 0.168368069711904 118 255 118
0.025581748839850 -0.007314742578341 0.102747765819969 79 164 75
0.044824380936277 0.027388258663659 0.175775097376921 61 132 64
0.029379313572877 0.008642877009808 0.116060197778198 80 170 82
0.050419148361343 -0.012399675912619 0.193963413125305 29 77 37
0.047672383452601 0.007884586144584 0.182891301770023 28 72 29
0.033529014155163 0.024322002501687 0.131348747447443 56 133 55
0.044796460669006 -0.023725709642786 0.172203541147727 51 121 55
0.033334604166333 0.000080899815686 0.128509540224885 59 152 66
0.044133687947864 -0.038795746501064 0.169114777585717 76 219 84
0.048981758935759 0.008169267202926 0.184571112742463 46 91 47
0.044908494760714 -0.037154668704556 0.168919475823991 98 247 107
0.035617668096048 -0.024763288028425 0.133447898684468 58 127 60
0.048065324587572 0.023392516121595 0.177578862259113 70 146 67
0.037947731791035 0.024425266126876 0.141713903847065 45 123 52
0.044539720572288 0.002716482054319 0.163437687398306 58 136 65
0.038465955508331 0.025103371974793 0.141878046133266 38 77 37
0.046564244571762 -0.036751764360053 0.169924294486590 90 232 99
0.049475434774158 0.019170432146617 0.177915118801276 18 43 17
0.047414162628813 -0.035673903393240 0.171387111812721 54 163 60
0.041611389958449 -0.022054471781195 0.150186703897549 35 100 39
0.050167241121869 0.017687528708612 0.178090745173872 54 115 78
0.050363671278777 0.018536446370030 0.178115403344423 47 88 40
0.052777560101392 -0.014162805916538 0.184546263056573 76 156 69
0.053267225522821 -0.011598714607091 0.186108031229198 49 110 49
0.053741835776150 -0.011606319954992 0.186266084626449 24 54 26
0.044133748768254 -0.035777068473935 0.154144297014694 75 222 84
0.052651329755960 0.026728468889101 0.179552733148006 70 154 69
0.037588992426671 0.002195121594286 0.127911894537265 76 155 64
0.035491161865447 -0.014893789561085 0.121015681463663 103 196 94
0.050947472921113 -0.036605656331575 0.171591042916652 109 255 118
0.044732119498236 -0.005703863666730 0.149009457637072 84 167 80
0.048554704776668 0.027947299234199 0.162594714031755 22 56 27
0.046236231438037 -0.036189287782588 0.155341894846714 93 239 100
0.031593657856870 0.020640008838901 0.106592613128591 63 135 73
0.049308739524809 0.035923377023598 0.164673761781495 55 119 56
0.054761079057237 0.028525222568179 0.180593696155982 62 127 64
0.052167488021977 0.001336991624955 0.169133971300263 18 38 16
0.048755878005767 0.027976642888682 0.159764886818363 71 143 75
0.039394417172572 0.001738224985723 0.128534601918891 76 157 78
0.048317552268351 -0.034570990855089 0.157821288207814 73 216 92
0.049504561361977 0.029516433668921 0.161124889302891 23 46 24
0.048996874450774 -0.009461567645071 0.157605601790788 65 152 65
0.049169430487762 -0.006822053406185 0.157520635869244 74 163 64
0.035436978428383 0.006152555083998 0.114153908874641 88 163 76
0.035534669088899 0.007486362314315 0.114082334576988 80 164 77
0.056496484934681 -0.023627394687696 0.177254333298157 63 142 63
0.034069378270435 -0.019425478745947 0.108303914123207 85 158 88
0.054066336504772 0.026401709902184 0.169128346202883 79 155 78
0.050582737022877 -0.034972362287038 0.158297298802818 83 211 83
0.034356026535168 -0.017928664506122 0.108336682004545 77 159 78
0.039757153876732 -0.003277130763176 0.123541909012666 100 187 84
0.059225265356598 0.017701315953039 0.182184094308983 22 69 30
0.051959780847160 0.029488431701649 0.161435484010535 83 149 77
0.035364641497370 0.000768896834772 0.109667406662256 96 182 91
0.037020318106629 0.006298023326073 0.114628276091609 80 163 80
0.062217873401608 -0.026033935829862 0.188353218751108 73 151 73
0.047754226845121 -0.013614515543455 0.145247373226327 89 188 87
0.057146099954436 0.021906057943741 0.171675561455270 74 138 66
0.054362357769723 0.034988731077060 0.164818518595236 58 122 59
0.031946500969093 -0.019216373851044 0.097552518838024 62 128 56
0.055616781766974 0.027577071141246 0.163990759065762 39 82 35
0.053200433822755 -0.036096395352372 0.157384438163475 92 220 98
