ply
format ascii 1.0
element vertex 440
property double x
property double y
property double z
property uchar red
property uchar green
property uchar blue
end_header
-0.065198182855270 -0.014909348601384 0.187010109774290 42 72 34
-0.061029534568187 0.026100693363931 0.177337074053570 83 176 71
-0.059756006620401 0.035699503745713 0.176910048116776 77 196 79
-0.052161911546199 -0.008945209834508 0.155768245177529 83 185 88
-0.047917120198319 0.010193505762541 0.143564079696249 65 157 64
-0.060804333956756 -0.042945530077314 0.183913480602850 84 222 88
-0.062108582681806 -0.017455618959026 0.185415141213274 82 173 76
-0.048033408137707 -0.026307165280066 0.145782399128133 53 116 50
-0.047621495056267 0.011904607287277 0.143707002434375 69 157 69
-0.058660798168016 -0.025859728154490 0.177122356924142 91 212 95
-0.057844910797355 0.031947099195587 0.176066370398323 51 120 49
-0.057114111176867 0.033516207925190 0.174663649130195 47 109 49
-0.047283867271065 -0.025925680422615 0.145462581053002 74 175 85
-0.054715314530357 0.018765059126788 0.166897390080726 88 206 97
-0.058855014579337 -0.042996322381427 0.182977341341404 90 251 98
-0.041293825158689 0.006258153115654 0.128050129489584 45 111 50
-0.053914171913627 0.025017441851235 0.166643117178649 55 121 55
-0.058315878381934 0.025626965831900 0.180393136318770 25 82 34
-0.059529137524182 0.032060857821391 0.184612763832931 55 135 57
-0.053632352781843 0.018541397815538 0.166445529179162 70 175 78
-0.040544183320959 0.006089409656408 0.127533179188073 51 121 50
-0.045077067545637 0.013922495800195 0.141489328812380 24 64 28
-0.057213655169868 0.022962311173623 0.179294502198343 30 83 33
-0.050609348722798 0.015372531588707 0.159902559419626 64 143 61
-0.054845784611424 -0.028037585089431 0.174747461406867 87 194 94
-0.049198976862754 -0.027994114143959 0.158033879458707 89 199 93
-0.042272772937221 0.002788125653307 0.136440449462759 46 102 43
-0.057047432605662 0.029631162096889 0.183733810351202 78 190 83
-0.036590690522138 -0.006658160086405 0.119308848142276 66 145 65
-0.053744090943174 -0.025916688610862 0.174210864090924 72 179 72
-0.039375600083888 -0.012108004165310 0.128601109110141 63 151 72
-0.057723840474827 -0.014902100876919 0.185940820227505 16 34 12
-0.057610350279247 0.004109308280873 0.186004210950384 25 54 22
-0.053151726139036 -0.014048155995981 0.173491085241427 50 122 51
-0.038128353142915 0.009305284276279 0.125933303324883 57 145 61
-0.038736009780865 -0.016356087144949 0.128635304530147 75 167 78
-0.038229248970041 0.005768092030796 0.126620582467154 71 193 73
-0.028358352954588 0.020688610971478 0.095768443215034 71 165 78
-0.035531490942873 -0.005516960915759 0.118940469272085 58 140 57
-0.053581098229787 0.020419111039225 0.178509271749859 48 109 46
-0.053054200538611 0.019665594772758 0.177414319141228 45 103 41
-0.053291288684309 0.022400852837531 0.179027490167152 46 105 47
-0.057516548905037 0.001702480608881 0.192560187430571 77 178 74
-0.048949988245767 0.014824850676028 0.165718660343222 51 115 50
-0.056588425543664 -0.041287997750083 0.193365026047980 51 131 54
-0.038354031332595 -0.014770856157751 0.131613422183303 52 125 51
-0.053798109214825 0.005491139491826 0.186076816263868 41 98 37
-0.055547202835654 0.000786818922688 0.194116852161846 78 182 78
-0.044096757056195 0.005385382774170 0.155359255880845 35 79 33
-0.049816285384513 0.020002197904452 0.176079876018737 61 134 59
-0.048973757726088 0.018999676917068 0.174511303137340 45 137 56
-0.048302933338142 0.008062257916382 0.173067113864558 75 160 70
-0.051036790109443 -0.020960485915036 0.183727284536863 74 171 76
-0.033330910274562 -0.005463792735092 0.123190215025924 55 129 58
-0.028393230008319 -0.002624175158476 0.107104125838299 71 167 75
-0.046493293450182 0.011166042968903 0.172427400930779 77 186 83
-0.035518809813973 -0.028836390958761 0.134945770859984 47 144 61
-0.043816945209707 -0.038269155351406 0.166952385906990 64 161 68
-0.032083974840744 -0.006468704144050 0.122817570304206 59 133 67
-0.029178377168004 -0.003481969276381 0.113161448447786 54 121 54
-0.045128676812032 0.009276859599615 0.171755233393100 79 196 85
-0.048807541075227 -0.023940576208609 0.189074689048492 71 176 74
-0.031310244377407 0.003334699116152 0.123588146041902 60 156 70
-0.040173602821030 0.029634277648473 0.158296777740051 68 165 73
-0.042433918301185 0.008212130944180 0.170592804319447 73 127 69
-0.036775992787669 -0.032172412291492 0.152312460693919 63 140 53
-0.041910415561336 -0.028458254268769 0.171974847098863 79 177 81
-0.029312116193786 -0.004830747861344 0.121974324723437 64 151 65
-0.024033989287338 0.000651508444409 0.101607570990588 77 168 80
-0.030541350731616 0.022279217545701 0.128196185054077 48 131 55
-0.030538180026426 0.022732319650645 0.128217994512044 34 70 26
-0.036362862364810 -0.016187672994011 0.154369378545685 68 146 65
-0.046926536869823 -0.014560474117980 0.197025019326454 73 162 70
-0.031907245173761 -0.004966017428675 0.139250280179179 86 190 73
-0.031732387695487 -0.000778825958332 0.139164569619276 77 188 83
-0.037307951850128 0.005235532068701 0.166601439412766 86 190 83
-0.036764518830851 0.026272302512019 0.165427733440190 71 165 72
-0.042981243428072 -0.041694545575503 0.194290956380707 71 190 83
-0.038667640625498 -0.003248966273486 0.175030885078090 56 151 68
-0.022170108731802 0.018669440428454 0.103749144673660 78 179 84
-0.036632401412063 0.023439088407831 0.168875566636458 32 62 27
-0.038199205504967 -0.007207187710775 0.177627348719041 67 134 65
-0.035846387097211 0.022316113067448 0.167945102133174 66 156 66
-0.030721418026991 0.009144990371228 0.145084830059310 76 177 77
-0.038905718146886 0.001508000094843 0.184662012760827 41 89 40
-0.036250687624226 -0.003684106637729 0.175397402324124 25 40 17
-0.027251851619455 0.027044898687420 0.134863345713541 55 133 62
-0.036017818164354 -0.004567128857064 0.176275780528954 34 89 38
-0.033575444924959 -0.037261715915441 0.169756175583242 79 198 79
-0.031712440110352 -0.024476748434352 0.160544683997114 82 194 86
-0.028263727427785 0.006489229202723 0.143921980686070 52 133 57
-0.031369612572910 -0.023538514698098 0.160654253611034 73 155 65
-0.034042732482786 -0.004069379614779 0.173815798777474 66 121 63
-0.032670336512901 0.028072275422735 0.168466684658088 51 130 51
-0.025477091852416 0.008600010394339 0.133554330698907 47 115 53
-0.019391833159367 0.008959257593603 0.103370393347164 65 170 77
-0.030461433705652 -0.021688660720796 0.159795943577074 81 192 88
-0.032974523860803 -0.006147854535106 0.172658444735945 82 183 80
-0.035375375454595 0.002427371660934 0.184678389543927 78 173 75
-0.031607232756977 0.027428368197266 0.168082191107467 39 95 41
-0.031605924840086 0.027833190060496 0.168113500378482 12 27 13
-0.026794381634970 0.008902608507344 0.143478012746746 21 55 24
-0.018733589794616 0.008696438383689 0.103097259786662 78 200 74
-0.030933556755612 -0.026385323920417 0.169515862062210 30 41 21
-0.029175170803139 -0.037163254978945 0.162494285979981 67 117 59
-0.023778298125708 0.024556759091447 0.133875109026508 16 43 15
-0.023767832811813 0.027897832499761 0.134120680059864 44 77 40
-0.026418657865809 -0.024169337485988 0.148651099119146 87 194 91
-0.016724536198162 0.017031089443590 0.097761202355418 55 136 58
-0.031137161562036 -0.038795701856450 0.184314514550157 34 73 33
-0.026981878417333 -0.038077882503659 0.162174519615439 33 68 30
-0.016928061262645 0.008592114955647 0.103162763184469 60 162 80
-0.026792282050659 0.004699672484558 0.159919319434903 11 26 11
-0.024779319643176 0.005099773067427 0.148474021858623 68 149 67
-0.018399257939296 0.021513387060080 0.112862070317721 51 140 52
-0.017285801184349 0.006994529492649 0.106574913498311 58 138 64
-0.028264771459910 -0.037616292540427 0.175162351788437 74 194 77
-0.016495161297082 0.005001880263642 0.107087151083324 65 166 67
-0.029009118903330 -0.018224625556363 0.187076959596331 67 163 68
-0.026029324225007 -0.022258078495976 0.170250038178399 91 192 86
-0.023788816032754 0.002748883696178 0.159175730066082 42 103 47
-0.014816981347390 0.008512600493216 0.102107505034152 58 137 57
-0.021536771216417 0.002763968612084 0.148245396662053 28 66 30
-0.025763834136196 -0.005226375231333 0.183102691428964 49 133 56
-0.016199569740852 0.004420107339848 0.118988967046386 46 121 53
-0.012948372128027 0.003586937884800 0.099058180135209 73 162 84
-0.013397085930484 0.010109003276947 0.102343058696236 44 97 41
-0.025136573487273 -0.018416250755526 0.188644937604515 70 165 69
-0.015181668264991 0.005984740041366 0.118849266255455 62 139 65
-0.023094818544076 -0.038731334393088 0.185387893576659 43 98 41
-0.023316472845560 -0.016113892798321 0.188690947289935 52 135 53
-0.023339292831804 -0.014963953112170 0.188815842295817 66 137 61
-0.011907474110695 0.009604063192995 0.102039577708042 63 154 76
-0.011404979508941 0.003467712594397 0.098887034285017 74 177 77
-0.021920383161790 -0.017276982794217 0.188653730152521 78 179 84
-0.018241943149105 -0.004684724020799 0.166374311529462 50 109 44
-0.013888013849674 -0.007902098839373 0.130028475567332 53 156 63
-0.016235428406969 -0.001594839519744 0.150524893920052 52 109 52
-0.020214505241492 -0.013492974113942 0.187702249453217 58 136 52
-0.018107374540828 -0.033427391980507 0.172338960934805 104 229 107
-0.020050539617288 -0.018654249408531 0.190630666109363 87 208 91
-0.013119645109750 0.016625784631132 0.136696956409384 67 153 68
-0.018623400542287 -0.016734832728575 0.192614063326143 54 127 55
-0.016510361963358 -0.022955659675703 0.180874790112248 74 174 78
-0.015934447783979 -0.039797646890428 0.181076260092956 89 184 86
-0.008014524527545 0.019536016640529 0.094385933692798 49 144 56
-0.009423034094319 0.002062696086502 0.113380844876340 59 160 59
-0.011455067128335 0.014307776613535 0.136425925581193 70 155 76
-0.010482066277289 0.007947099531927 0.127018863802105 56 143 55
-0.009472070692416 -0.002941558147271 0.117084047293052 42 89 44
-0.008904507782882 -0.004064809850950 0.117044855306285 81 181 85
-0.012661129716727 0.023038307202479 0.163843065638937 71 145 80
-0.012166970772813 -0.038822769776742 0.166620973533203 97 255 118
-0.012370280572021 -0.022802959502183 0.167642890114688 97 228 101
-0.013247119598207 -0.013233081255887 0.184136583791151 72 169 78
-0.007431975328727 0.022048848316792 0.109294892797986 50 121 54
-0.009371345544376 0.000768074761526 0.136948497613267 87 148 61
-0.007739669808175 0.003731566727964 0.114570419740836 81 188 83
-0.011118011278786 0.018218773746568 0.161525100988844 66 168 69
-0.010163233732287 -0.032068390464826 0.157329351318892 97 193 91
-0.010544262670525 -0.038195617884546 0.166413582530006 78 242 85
-0.011842383403273 0.026728827162506 0.184527809875444 52 134 50
-0.006648987308842 0.018294018038186 0.109008108696179 66 158 62
-0.010130384568767 -0.038563106624285 0.166298574387514 92 255 98
-0.007622141243295 0.010133161642802 0.125614168690388 48 122 59
-0.007972422165483 0.000601260189491 0.135896267158942 85 195 91
-0.007363078435175 0.006230582076756 0.126217696716704 41 125 55
-0.006282892071807 -0.003018314683846 0.111028651566244 68 174 84
-0.006127245238553 0.019841551600850 0.109068737873980 96 195 90
-0.007674487786110 0.002427614041743 0.136454966261107 75 176 89
-0.008565834856694 0.016732689767419 0.151821698798199 55 127 48
-0.005476046829637 0.021131212260216 0.109124961590043 66 160 72
-0.010056178904716 -0.014225638565970 0.196752413236781 72 164 78
-0.008227978800178 0.020987748098874 0.163113053045783 54 136 59
-0.005896147102237 0.011698078267754 0.124588901252025 75 175 84
-0.007689899440950 -0.038272555969230 0.165850961483308 116 255 122
-0.006026622443370 0.002433967940269 0.136752673970259 38 79 40
-0.004694204428603 0.018412633507151 0.108913806578948 64 138 65
-0.006877748195411 -0.020926693739021 0.168720263132642 49 144 52
-0.006718325392157 -0.004218074241332 0.164389212284222 52 137 74
-0.004034882445927 0.023303467365311 0.105863936979648 73 157 75
-0.004569250774125 0.008902335856772 0.125222556248353 64 147 71
-0.005036592504850 0.029238130656710 0.138480190321984 51 128 52
-0.007121020550408 -0.016171059737542 0.196655133516223 56 106 51
-0.003924787025806 0.017585707769116 0.120237086955527 68 108 65
-0.004196890120974 0.004102909454318 0.136897886592973 65 187 83
-0.004710682320601 -0.013401069947047 0.158765205523682 80 179 89
-0.004109475000654 -0.016844360478610 0.158341271463833 96 203 91
-0.003891373168677 -0.037352492046655 0.166863762548101 86 255 103
-0.002165118171598 0.017120338502525 0.095977261727208 81 174 71
-0.002269934577874 0.010045682750076 0.104984471028302 87 197 98
-0.001796643782574 0.021298645570327 0.094829979800094 87 189 89
-0.002768387389254 -0.011095706802865 0.159113740876943 69 177 68
-0.002361922232871 0.027567567238388 0.138238145935205 23 54 23
-0.002538641280730 -0.017698927974122 0.157423161340903 72 165 75
-0.002387543279064 0.005359316137262 0.173123560998312 11 36 20
-0.001362438271752 0.011310236182679 0.103010704074088 84 178 85
-0.001875324805922 -0.037033765964240 0.168018700532182 68 234 87
-0.001550221756001 -0.019526688294681 0.155371680961494 110 224 117
-0.001816725403743 -0.004455240757689 0.179731130204443 74 142 67
-0.001069902644269 0.009424225195590 0.124138292420345 66 145 61
-0.001194376733219 -0.012955774870317 0.158109833344188 79 167 81
-0.000920303811122 0.003886939339899 0.124117605667953 85 164 74
-0.001005751556910 -0.009711576135486 0.158842823785339 80 173 75
-0.000501391519344 0.010559528628240 0.102816698088113 30 74 31
-0.000468873520140 -0.000161808738061 0.124091620958857 61 142 63
-0.000238286927078 -0.037859314471206 0.168134144000125 94 255 101
-0.000017127062212 0.018910994904357 0.121340711615475 20 51 24
0.000163660761012 -0.016820994379992 0.156469705054255 83 191 82
0.000528842454517 0.013542661749506 0.113054402324791 34 99 39
0.000519402016254 0.019538340305249 0.111513228175388 50 114 59
0.001141552417666 -0.005793390305229 0.158451607715379 45 108 43
0.000874035775347 0.019827304912817 0.123372529223023 73 154 69
0.000785697690702 0.024840791645745 0.111906588684597 65 154 64
0.001072652181099 0.015039966522224 0.113213236455290 54 146 58
0.001849179223900 0.006244665732684 0.152775683056619 36 100 40
0.002221058499840 -0.037092665499647 0.168272506501039 89 255 106
0.001620458958657 0.016900085437138 0.123402281125069 23 45 17
0.001415733776315 -0.006535611384986 0.099784122849845 85 199 102
0.001852645599226 0.025240183437780 0.111952054317707 56 138 58
0.002964176890098 -0.015921104816916 0.162356800805747 9 23 8
0.003632360292390 -0.036849167869376 0.167245978722897 119 255 130
0.002745021169009 -0.011353792515202 0.126694670185726 79 161 74
0.003054695672220 0.024316101748648 0.127647428007618 57 139 57
0.004285827445145 0.005492720065562 0.152715152745839 71 139 71
0.002722783144686 0.010828878304318 0.099863181513594 97 213 112
0.002841703511952 0.009412375762622 0.099826401525237 90 203 90
0.005180805254041 0.009186537227169 0.169020973204712 57 144 65
0.003536940063001 -0.005114436109244 0.105888937210290 31 48 14
0.003536952604886 -0.004609717564967 0.105879457478076 90 196 100
0.004106123218534 -0.000271081156429 0.117692795427499 79 152 70
0.005405690773719 0.005487369609965 0.152596281487500 80 174 80
0.003509831537920 -0.018759849880101 0.096249751816800 91 208 104
0.006416241565803 0.020789477786322 0.169292071860855 58 149 62
0.004111359300145 0.018380378062822 0.108010130441663 87 180 83
0.007358708711575 0.005502214521065 0.171018405311418 36 87 33
0.007643095831047 0.011002994314922 0.168307988964505 67 147 68
0.008714450539242 -0.036813503315918 0.167185794421121 82 255 99
0.006039147930171 0.010389777510906 0.116885564564690 54 136 57
0.006662436496577 -0.001682851303985 0.125220697266323 48 121 55
0.009248635747678 -0.038482797685096 0.162840410425026 124 255 140
0.008292552993528 0.003791281564621 0.144643178273897 83 186 93
0.006017869897404 0.018554513654103 0.107609535615189 55 133 61
0.007365484132407 0.015144558521216 0.124754737349635 23 51 20
0.010840292431716 -0.036723991863502 0.168569763053668 72 224 88
0.011667376017292 -0.012149589902551 0.178693234150642 54 139 64
0.009358297348261 0.001142246158057 0.144707973218323 74 151 67
0.007586288126122 0.011927739919789 0.116956919836758 64 132 58
0.010187022952019 -0.014775542648112 0.146734745041292 82 167 85
0.008002641235816 0.011778816073546 0.116880937264617 71 164 77
0.011588473122692 -0.038861210092621 0.165189288428304 82 247 85
0.008464886708667 -0.004083658876920 0.120986191577609 24 58 32
0.008441587330849 -0.003780335485046 0.120670253772734 91 167 87
0.006795384267800 0.019224618578353 0.097574464505704 54 138 58
0.013221773476107 -0.020121785268185 0.179266095419323 35 86 35
0.010605109728506 0.004323435714570 0.144886054639884 55 134 55
0.012598789054887 -0.036465928908016 0.167517668918194 104 255 112
0.008975624777325 -0.001589236269267 0.120049044998314 104 221 117
0.011258395628845 -0.027492015546572 0.147659346357202 90 192 83
0.011495451145195 0.002378981867864 0.144948725079077 56 142 67
0.008369004986143 0.015588554743138 0.106480747163761 50 120 50
0.008623550763881 0.016851639948719 0.106558883908880 110 219 101
0.007952745050971 0.018546190863168 0.097609231656741 64 151 69
0.011025269136312 -0.001015534326176 0.120313275086648 72 171 72
0.016067204431343 -0.016285186059199 0.168006557549882 52 126 53
0.011480547251411 -0.000148304093412 0.120518779079595 29 93 36
0.012353650681348 -0.009950591702944 0.124851079698283 89 195 104
0.016144428072319 -0.004892191492836 0.155222576966299 59 135 59
0.013109598363706 0.021814015482942 0.128306796668343 50 152 56
0.019454056918519 -0.021953598483744 0.180113465141655 27 65 28
0.019172637411215 -0.011577605289944 0.177099895905985 15 31 12
0.018363056877312 -0.017966763861224 0.168450744674461 51 129 59
0.013593045816357 -0.006959610600735 0.125093980056845 89 192 81
0.019533790625171 -0.008921880620187 0.176396711801623 10 23 11
0.013342729415521 -0.001618675237304 0.121588817759454 59 131 59
0.014471813114533 -0.021583998075468 0.130716536662814 102 214 93
0.012150201906978 0.009570887966486 0.108232062074039 58 129 57
0.012763357571315 0.022609213153997 0.114008971403955 71 168 78
0.021245230128522 -0.021977325583385 0.180387592030362 50 97 48
0.010876324106983 0.011801743654956 0.094942923252915 104 214 94
0.021389446455555 -0.007798852121697 0.175706773067989 56 121 60
0.020587948189133 -0.036516115570100 0.169849927406425 86 255 105
0.015869546523428 0.020215765623341 0.131757367595125 61 145 64
0.021446318086014 -0.034273186766379 0.174598038887281 88 211 94
0.019656911537647 -0.005059294220788 0.154681681428391 51 121 52
0.017600376493905 0.013886873718789 0.135943462501324 65 161 67
0.022662108815521 -0.036809091588107 0.173037071843123 67 208 78
0.020395865278973 0.027391638744957 0.155926736630070 77 180 82
0.017936288797241 0.011593103997007 0.135905252155998 73 142 75
0.026687716129222 -0.013318718219735 0.195005460744286 86 165 81
0.024083914589029 -0.031046675149119 0.176496235048296 52 132 54
0.026909433197511 -0.016530186497752 0.193393162926443 50 111 50
0.019380867310386 0.030103034919084 0.141577772810658 41 108 52
0.020522807653637 0.032222493424590 0.149622227839254 33 88 37
0.017401505790340 0.013770474673953 0.123724627513475 73 154 71
0.018640585222083 -0.015674542703200 0.131045273978035 80 201 91
0.017884740628160 0.002691697110008 0.125627808460164 13 31 15
0.018020877398013 0.006163628918783 0.125588627520654 74 179 79
0.026379722785038 -0.036901633375087 0.175530887323934 75 222 87
0.016392213274569 0.002269085892369 0.110553033707952 77 179 87
0.020635964237419 0.012117325806959 0.136502614487581 67 165 82
0.024380836159087 0.023614020037639 0.158266126284902 59 132 61
0.031004330784222 -0.013080276821306 0.195277597364215 78 171 73
0.019535364109232 0.004499330170028 0.125648446373186 68 159 71
0.019605795084024 -0.002589371177236 0.125149716834844 53 104 51
0.017565563390161 0.001607651682447 0.110515516964284 84 176 83
0.020172587260842 -0.018822737179021 0.125596496814299 106 228 109
0.023123338461845 0.018363496208571 0.141806775098854 54 129 57
0.022656125555787 0.014606697535403 0.136982301675885 69 151 68
0.023644176440550 0.018367360158992 0.141885107914961 24 44 18
0.026454385733352 0.006685041968487 0.156234464959218 57 144 60
0.026473503331352 0.008972674888437 0.156409062819126 49 117 57
0.025413826539709 -0.019379561965751 0.149895116251289 92 212 87
0.033518254428970 -0.011031878104297 0.193425164730868 71 167 76
0.023617574193060 -0.003099789321599 0.138324367389089 66 150 71
0.026887056698472 0.009172540747544 0.156629318235719 85 209 90
0.021441765167090 0.003429337360911 0.125420777303678 27 73 27
0.019549834808455 -0.011140414893454 0.112997546930314 88 176 85
0.020948281089848 0.023571598962744 0.120488736054792 70 153 79
0.018058248542856 0.001890216959970 0.103389268808846 89 186 88
0.029199141414571 -0.036245894454334 0.161855466464225 115 255 108
0.022483111095566 0.013179833098345 0.124146624500558 82 177 84
0.027783413330419 -0.010559387711756 0.150624815141326 89 187 84
0.027435208259726 0.021346178049122 0.148569466219922 58 128 62
0.029815263917066 -0.038182780237917 0.161339471973236 104 255 108
0.032825323365294 -0.036738081143010 0.175343203394772 96 243 94
0.026632191498817 0.024576366032445 0.142973508067330 52 123 54
0.022420745548479 0.025466161977494 0.120933579426715 27 59 22
0.027073835365486 0.008224473507683 0.140867147274070 66 129 61
0.027422506185223 0.007591081878464 0.141740934533187 53 137 53
0.022827416940663 0.024712265351790 0.120080594305355 82 180 87
0.033054069538251 -0.003840185063125 0.165430791525008 68 153 73
0.036655065066447 0.008605869884988 0.181800888302101 16 18 10
0.028444923189489 0.022761787283027 0.143427579170994 44 124 44
0.024910722855515 0.013125462559499 0.125238772268549 74 182 80
0.035278355041614 -0.036437129285579 0.175159354213031 63 201 75
0.035295624763156 0.001217270104506 0.170336135997521 66 157 67
0.029324121478768 0.023631879881824 0.143659445894280 70 142 69
0.031014727319377 -0.016287580355834 0.150102685143523 99 188 101
0.028802387054383 -0.011378013872533 0.139696736019775 60 141 57
0.033842821223827 -0.038626139970043 0.164205496632003 135 255 145
0.020660331983449 0.020842548592733 0.102015869654496 88 187 83
0.034024886284320 -0.036241849222106 0.163871918513977 151 255 156
0.025218175703613 -0.019408129876642 0.121673209410310 88 191 95
0.031813718219777 -0.013315407399546 0.151165111721783 13 16 10
0.032236721010951 -0.017006450283631 0.151645305559670 59 140 54
0.020259885703389 0.007396501767581 0.096047052818699 70 164 71
0.022983239591976 -0.008616988403283 0.107602861085333 96 193 99
0.035623997194961 -0.038838623293932 0.164469096764403 129 255 132
0.028291409919194 -0.023331305379675 0.131018726022422 62 160 71
0.038238801034579 -0.036875168242673 0.174670557127661 52 166 65
0.027395886655506 0.013758245042748 0.125840595123639 67 167 74
0.031214460829688 0.027273398283030 0.142682713854337 42 110 46
0.031382982087354 0.027780808155172 0.142739651034785 15 46 20
0.038794377849820 0.021214697817035 0.172280383509205 58 139 62
0.027224387191858 0.026791427141270 0.123490655389375 105 153 75
0.029362035933965 -0.024741168811062 0.130503948980316 118 254 112
0.021422513189600 0.007742628473110 0.096247109829691 82 186 82
0.029820417239839 -0.023151022176440 0.131013246077777 69 141 68
0.034988283788591 -0.022883296722680 0.152353153839151 76 174 76
0.042364288722496 0.005911714086193 0.182154718942395 69 158 64
0.028170255456207 0.002157179471781 0.122650907406124 85 197 95
0.045785373892982 -0.011520013454522 0.194509321716474 17 31 17
0.040299462296908 -0.038332167596383 0.173282054621044 106 255 121
0.040345764750007 -0.036081772863954 0.173207318842806 111 255 115
0.025030270781236 -0.000222644370868 0.107123271300811 71 186 84
0.023161542032492 0.013324801713878 0.099348830562708 89 157 90
0.042044258069173 -0.034339346958532 0.175755890736151 111 246 115
0.034418687993993 0.028221094625371 0.143631834149962 59 151 60
0.025985139324885 -0.006189315428432 0.107529101906180 93 192 94
0.038887173171473 0.035371529841045 0.159871435459082 42 75 36
0.042987012443460 -0.036423493691215 0.174126051013097 64 197 76
0.042788912879149 -0.038374017190628 0.172074040891299 114 255 114
0.039669961062738 0.035006355201573 0.160001040502295 64 144 60
0.033376640201178 0.002936914729321 0.133228558917752 81 163 79
0.044607684457982 0.026794758358695 0.177221019632402 66 153 73
0.038458402388381 -0.020870157000512 0.152585745846506 63 139 60
0.045890100288309 0.007344354118480 0.180161139642946 74 174 80
0.046501207020439 0.002763012217177 0.180786194629872 38 98 37
0.042893941626155 -0.037753709103885 0.168710826574290 145 255 132
0.029919506742522 0.010473043457046 0.118139838251643 83 185 90
0.031923450441911 0.023387334394609 0.126384577538992 83 186 86
0.046737567795413 -0.011343625567336 0.178691483623048 45 97 49
0.045096806220218 -0.036695135718260 0.173793682163898 46 152 53
0.046278893251645 0.029320460357152 0.177565691005161 67 151 74
0.032876834949422 0.024767299516138 0.126789194975208 82 155 78
0.045812481495257 0.015332099848863 0.172591198008012 31 71 32
0.047580269639282 0.022819418100824 0.179489947847430 66 169 75
0.034194210822031 -0.023102648220521 0.130389700568558 77 161 72
0.048597866506276 0.006718527154218 0.181595506884414 78 178 79
0.042574327973076 0.036334144836443 0.161350770897333 56 129 65
0.034549263991381 -0.024684117434952 0.130717434673207 81 187 83
0.032625207146474 -0.014061633739928 0.123124607118731 108 221 95
0.048341989783561 0.018973186596228 0.179719451651080 72 168 72
0.048642611541140 -0.011827298547864 0.176673132712759 71 160 68
0.044970154356995 0.029295189449685 0.165098591002306 74 168 79
0.047224776277345 -0.036829115563390 0.172898036252796 87 252 101
0.042019330781735 -0.021841560976481 0.153394509050366 47 132 55
0.049987082897007 -0.013189587167668 0.177841202985693 69 150 69
0.052223211117955 0.019045790389646 0.183058059642957 90 177 83
0.041888338493409 -0.005793413487024 0.146901441348693 76 145 78
0.044098331682323 -0.036574692092315 0.155869012256158 127 255 139
0.052514858496095 -0.008213151747791 0.181356937273537 42 99 46
0.051310283010707 0.026383715882542 0.178458201309889 97 189 94
0.037063899647591 0.004957677100048 0.128633637214701 72 160 84
0.053203930563248 -0.011241990438398 0.180969645326214 62 130 56
0.048284133837071 0.030757833453513 0.166233331128013 75 130 70
0.050406261987653 -0.036655432881697 0.171727367561264 77 218 103
0.049180618607687 0.028051103851790 0.166429421256329 80 161 79
0.055278835206018 -0.036382287738518 0.186098957571991 47 67 33
0.046360949872841 -0.036398805038633 0.156886862320890 101 255 121
0.054573836366091 -0.011214842992684 0.180722090324452 65 160 70
0.031591519369517 0.021176587339194 0.107403939931601 84 157 78
0.055879497633263 0.000970166225791 0.182756102507424 49 115 49
0.050936918935859 0.026557323558235 0.168278658519637 68 135 64
0.049399463160984 -0.035539005842874 0.163564848159984 85 250 98
0.055815918026062 -0.011078844456894 0.182043135438305 41 93 38
0.055602440052608 -0.007914253871033 0.179991024999027 88 193 79
0.051277072362381 0.030798775394657 0.167960723110552 57 124 60
0.039873963154287 0.006660376261824 0.129643430390090 74 178 87
0.038544781396119 -0.001255492772714 0.124983059400851 106 208 99
0.053800722930355 0.035298628997859 0.173919492931440 34 76 34
0.053036989445655 0.025383652114899 0.169968893341505 55 129 55
0.052417995971325 0.029170757305524 0.167821297542092 91 175 86
0.056210811384384 -0.022409984299483 0.177514756084481 68 168 74
0.048709195753255 -0.014492170719787 0.153664540194925 103 199 90
0.036101138995643 0.007247732834774 0.114617565972225 95 192 95
0.050766588245059 -0.035312339200569 0.160481768964708 87 245 105
0.050285928644818 -0.037086468551242 0.158710076640468 185 255 179
0.036624122911443 0.009734038725581 0.115475500878523 102 193 95
0.056900959351519 0.021199488251115 0.175476341504015 81 163 77
0.047683599667046 0.004475685994360 0.145260976394009 98 216 109
0.055008135324853 0.016175846360294 0.166717680611217 71 129 57
0.058368901609416 0.037530687582625 0.178469623049031 62 130 67
0.062209816504417 -0.027182151934166 0.187198561027559 83 161 75
0.056741707086457 0.028323639893758 0.171590571606104 61 125 65
0.053693384488843 -0.033530914526396 0.162030043976849 64 150 61
0.048980896166908 0.002245576728248 0.146626729056691 97 183 87
0.055853271119629 0.015088080211145 0.165871925593894 94 185 88
0.053601653495881 -0.036445727612827 0.159547255921898 95 252 110
