ply
format ascii 1.0
element vertex 453
property double x
property double y
property double z
property uchar red
property uchar green
property uchar blue
end_header
-0.066297344546050 -0.014892095561007 0.189489688836967 44 93 43
-0.045541781717779 0.009355482694066 0.131952364992996 48 128 52
-0.067182016903751 0.003045084389069 0.194106717501990 82 195 92
-0.064991330708681 -0.018068212669692 0.189511374290101 59 142 64
-0.061201774100604 -0.026671965512691 0.179916898995381 34 89 32
-0.058343780342401 -0.024460661587095 0.172187628736099 73 155 69
-0.051357275008838 -0.008008876488938 0.152431963438342 70 160 73
-0.047858913500601 -0.027720969232503 0.144467357260108 91 174 83
-0.056990131430632 0.032967961638195 0.171997067094808 68 136 63
-0.061039492747653 0.026352112921743 0.184281947248886 61 170 62
-0.047381866240194 -0.026986314210083 0.144890773705357 73 159 63
-0.052886539988175 0.017641595950896 0.160374754157636 47 120 53
-0.061334480791623 0.032203983293060 0.186903928763755 68 165 71
-0.043511413272724 0.004766903344748 0.133284342526876 47 115 49
-0.058734514613615 -0.042589861557829 0.181382196215677 84 227 91
-0.057751173882988 -0.029535777753122 0.180046679844486 56 129 53
-0.045255995836041 0.012752232513152 0.141493710122711 59 132 46
-0.049224897349068 -0.027554800594910 0.154870239586778 75 170 78
-0.034355117268195 0.006378692240548 0.108844999624872 54 126 55
-0.058859259219993 0.023831011100773 0.184340336514853 15 26 11
-0.059088871642479 -0.028242994560976 0.186446232947156 61 152 58
-0.055679291692643 0.020717766651454 0.176291388014185 25 64 29
-0.058773689415102 0.004091823832489 0.185689572400212 44 121 47
-0.039317054295779 -0.010400876570256 0.126558463114146 44 112 45
-0.047064104447621 0.013233951458598 0.150542673596407 29 71 30
-0.054685319526165 0.018636885374706 0.174318338713246 27 76 32
-0.057837931271733 0.027598579447794 0.185994081266220 49 109 50
-0.039009229522822 -0.015396859475732 0.127163093182346 62 136 58
-0.042455639166270 0.006307339035105 0.139026184169542 55 134 58
-0.036245824688806 -0.005709149058554 0.119914080162101 55 132 56
-0.038081494738538 -0.013731905859401 0.126886238042876 67 148 72
-0.056962484710916 0.027710848567107 0.187894087014365 43 93 44
-0.057299714771422 0.030475007958571 0.189904848666620 29 57 23
-0.045090489430955 0.005405094785222 0.151094573730167 47 127 53
-0.051455649521771 0.020402135013024 0.172942388325174 75 167 72
-0.051403205063812 0.021414526106985 0.172843652603853 12 24 8
-0.055966667454527 0.030497606780807 0.189771744790190 68 135 58
-0.044296639367307 0.006481736210999 0.150781463107214 25 61 26
-0.050726775796873 0.020981789716340 0.172532190855232 9 22 9
-0.055253517879425 -0.041087654533488 0.190406991143896 17 35 15
-0.054371304514394 -0.021692294103258 0.186427711996871 42 92 37
-0.036471728570239 -0.028240812318311 0.129322665417009 56 140 60
-0.043127854770600 0.004315151193888 0.150297333450095 67 152 63
-0.048935498190565 0.011981674879750 0.169985875750893 35 76 29
-0.056829757885346 0.000073266270727 0.196923657788400 55 148 57
-0.048070296514940 0.011973853261463 0.169699183580418 38 87 43
-0.048366503511110 0.007559649986572 0.171224964438073 16 42 15
-0.033002750345736 -0.005536384860688 0.119148210091646 64 140 69
-0.046492925821575 0.010519902715228 0.168911300388546 54 134 58
-0.040781642124866 0.004306077307655 0.149353811142002 62 158 66
-0.045251158634064 -0.038856643243206 0.168707253820945 67 154 62
-0.050528234097295 -0.024583145250244 0.187444354104568 57 143 64
-0.042536266068912 0.030769649059048 0.159690545221796 44 126 52
-0.031703877106941 0.018804009835730 0.120919910837858 50 119 54
-0.029557587377899 -0.004233655907968 0.115049317971392 34 98 34
-0.039724183208145 -0.032855265663863 0.154823775960530 28 55 27
-0.029060118813938 -0.003790954569013 0.114184895173797 35 91 43
-0.026394041916608 -0.001574122653760 0.105167702196883 57 141 64
-0.030408608082707 0.004536906506072 0.120224358426253 50 133 58
-0.040083083241949 0.028439404569797 0.157840541234726 50 122 61
-0.042993725094046 -0.027465095698305 0.169950382010073 63 157 69
-0.038348916451561 -0.033331867172015 0.154395878171491 38 115 50
-0.037359074554005 -0.014353683122139 0.154647828813975 62 144 62
-0.028179845616018 -0.004533964544958 0.118599774308798 80 170 84
-0.046689318638567 -0.014484086594237 0.196062164137282 62 135 61
-0.027853827958151 0.004810368829413 0.119512061030810 66 158 70
-0.032261947663917 -0.000769277725786 0.137997025447655 53 116 58
-0.033378755042004 0.009052278505958 0.144071588727843 50 119 48
-0.031559703249381 0.001386566506262 0.137772641387851 68 154 68
-0.041161436568653 -0.022702084476527 0.179264177620025 71 159 74
-0.041454688380096 -0.039961487023851 0.187567988003619 53 147 55
-0.039644731232027 -0.002670442755785 0.178357379779512 32 85 35
-0.031540144319154 0.012375785190923 0.144302790515539 53 133 60
-0.036685988362193 -0.024395025340186 0.169039863603013 59 121 58
-0.029647553851897 -0.000096797999749 0.137197659882433 64 140 62
-0.039287250100309 0.000596825341572 0.180517251737882 43 89 31
-0.028153225469972 0.027630433536528 0.132621947354531 56 131 60
-0.037957308299777 -0.005830475300544 0.175592454227552 42 92 47
-0.035039777809249 -0.037051308709697 0.167352891593390 65 155 63
-0.029748602212693 0.006873549193126 0.141397675580491 62 107 55
-0.030228543308523 0.010266129963709 0.143670811044344 41 82 41
-0.035200007039822 -0.025990817279565 0.168760615163974 43 115 40
-0.037275220537995 -0.007192732255937 0.177264292436740 48 108 46
-0.034667665812218 -0.024524256640713 0.167120815208102 78 173 85
-0.029832242498258 0.024836542108846 0.146669659172372 37 76 32
-0.025991453781779 0.006177401447524 0.129944900608619 53 112 56
-0.033531150235431 -0.022344638377300 0.167198075303660 68 159 66
-0.034536700598595 0.003332136611019 0.172223056780991 64 158 70
-0.028556446487344 0.008731796006144 0.143750191786887 65 147 67
-0.028539690687636 0.024614903922299 0.146248967843207 57 137 53
-0.031948496776562 -0.034702689282378 0.164501858643177 76 178 78
-0.027850178861266 0.013330026807604 0.142983082102201 70 167 74
-0.031411698328192 -0.037467975591275 0.163154942701360 88 171 84
-0.034358724037242 -0.005183926541159 0.175375043676854 70 157 70
-0.023553258100936 0.011840128312730 0.122689441270487 18 44 16
-0.031124562845093 0.024153631010130 0.162441533381068 47 110 44
-0.033390503530071 -0.027378459060499 0.176873948655740 11 27 11
-0.028729728940958 0.009330526266142 0.153326121396481 47 110 50
-0.027870761253320 -0.023599867111173 0.150612894528111 58 148 53
-0.032103522234767 0.005421601818365 0.171401737202340 34 97 38
-0.022493449709171 0.010218301569975 0.122394109356725 58 148 53
-0.026929115386867 0.026345671038537 0.146118368427391 55 127 58
-0.032355744836344 -0.003026144601851 0.174772658256574 72 144 63
-0.032032501836984 0.023029782609917 0.174036590781733 16 32 15
-0.026757643149612 0.029166214321419 0.147290187173798 50 125 47
-0.028963731906425 0.021273694044877 0.161003040735908 38 91 44
-0.026607722113717 0.007271874460999 0.152680050957125 71 173 75
-0.027640445474871 -0.038297893360146 0.161602530114464 58 136 66
-0.025862457074338 -0.024863118188562 0.150498836805602 83 195 89
-0.032307806635315 -0.017787901838920 0.185323576936503 37 115 46
-0.031915141162222 -0.039782116297608 0.188758710510420 30 59 29
-0.031557260990689 -0.035266834396797 0.187508530033255 87 176 83
-0.031695883634646 -0.040088885900832 0.190100914537473 24 49 23
-0.028807140862658 0.003972128720027 0.171369513302155 72 155 74
-0.016849992759337 0.007636494711995 0.103388479227889 50 136 60
-0.030376592864040 -0.021115345596760 0.184680554449563 65 143 64
-0.015561031163184 0.014034305196111 0.098190329944914 58 155 65
-0.015440917699373 0.015874299604778 0.098234924099771 39 91 36
-0.024665013613182 0.031066684674939 0.153623338236147 37 85 42
-0.016192803983545 0.007618324316936 0.103104294511119 50 142 68
-0.020246743355643 -0.021176039084358 0.130465201786208 76 184 78
-0.014617397707387 0.016438788796988 0.098153310461092 55 129 57
-0.026076729436287 0.004157911342152 0.169840076383356 60 144 63
-0.028129555289847 -0.005253650253871 0.183977527085830 68 164 66
-0.014179581565859 0.006258740634187 0.102637964480455 53 126 57
-0.015170659886414 0.020745544557156 0.110770443740300 57 133 59
-0.026917221239258 -0.016098634339532 0.191264933228602 62 146 66
-0.026461570457876 -0.018536229947285 0.189860855753427 63 147 69
-0.014141428661051 0.004464331467217 0.109314550964312 54 149 63
-0.019559013176466 0.000240246907466 0.149462865992911 62 139 62
-0.011642236510628 0.011004877792394 0.093042514677182 20 64 24
-0.020493765282610 0.033337205068441 0.159567060556638 51 122 54
-0.016422238653112 -0.023741707054012 0.129976064294497 72 165 73
-0.020151166314739 -0.008384273636452 0.156600183695029 74 149 71
-0.013742815842159 0.003161749174402 0.109237310289688 51 111 47
-0.018815487062663 -0.002125889931896 0.149318464756433 31 68 32
-0.023346946351065 -0.011693722057991 0.185251555284041 32 84 31
-0.011196891015060 0.010999257474287 0.092980576977112 51 138 64
-0.022543208859053 -0.037880522419296 0.184492907038006 25 29 20
-0.015472630981296 -0.025436454453972 0.129972915415299 87 183 88
-0.022750099192343 -0.014265646220230 0.185990213428851 56 142 57
-0.022599644803065 -0.017961795541011 0.188585215823981 40 115 47
-0.018766433167632 0.033934930714710 0.159603621571411 37 88 38
-0.018414073996771 0.032841986335983 0.159731663371431 14 36 14
-0.009657981893219 0.011432485165468 0.092920546058994 65 141 62
-0.019887000096624 -0.016890939962304 0.186979930461382 52 116 53
-0.010353289333707 0.002584845339200 0.101000998877880 76 155 75
-0.019234491691282 -0.013745425468571 0.185060412057339 57 150 62
-0.013506553062744 0.003022789203100 0.133680733960047 20 55 23
-0.010097512273328 0.009361823314699 0.103216174177273 65 140 70
-0.015878570258620 0.034151914119812 0.159551981405812 37 82 38
-0.015886406762489 -0.003580564330326 0.163226279242332 37 95 42
-0.015689262647315 -0.001775967513562 0.163239721796692 14 40 14
-0.016102976154284 -0.037787129601171 0.171598953537171 78 160 76
-0.017578634219795 -0.013421839107452 0.186689414695736 46 94 46
-0.015104317538260 -0.022176560881337 0.166224163322657 82 188 81
-0.011922036739785 0.013132003581956 0.137854418935378 62 140 60
-0.011583956822053 0.016133786827966 0.137964344773033 56 138 58
-0.011372447258288 0.000771214242105 0.138905011654428 12 40 13
-0.011714452980001 0.030261345658580 0.146480235529278 50 113 51
-0.013267049698752 -0.039090261016207 0.167740229590898 102 252 115
-0.012067940092691 -0.030599721178200 0.154882089744481 62 132 61
-0.010397243181678 0.006576678641046 0.133347582030295 56 133 61
-0.010249912576409 0.010966712492372 0.137746863616738 42 107 43
-0.011573840392626 -0.038868496071335 0.166784830251657 92 254 92
-0.010117160881061 0.028491365726503 0.146196048878165 35 88 32
-0.010177302798277 0.016937263699948 0.153680021724784 42 94 38
-0.011037768817909 -0.022210868212079 0.172141255480298 24 58 24
-0.007937408197800 0.007708446518033 0.128002775600410 65 156 64
-0.006990736146723 0.000713188275937 0.115740970758019 87 159 79
-0.008872243084420 0.029002785889754 0.146120519226504 65 149 64
-0.009649169172279 -0.018393791908299 0.163223785578401 69 155 66
-0.010120528466629 -0.022316192506788 0.174405365013464 45 125 49
-0.006621356383566 -0.005431704672956 0.118931888951615 65 140 69
-0.006475421226463 -0.002711058294127 0.118847973186404 57 124 55
-0.008674533505526 -0.038170934411147 0.165460529438330 92 255 99
-0.007721092550156 0.012042109531620 0.146431073896808 59 123 59
-0.007721107481240 0.014539798392321 0.146549278072276 47 124 57
-0.008601815960964 -0.012411508809198 0.173522020788850 78 174 74
-0.006068544248543 0.007857416650702 0.127850259405544 78 168 76
-0.005285484864040 0.002093881050972 0.115085153238473 70 159 69
-0.006565165076637 0.029149783661824 0.145930109561196 26 65 31
-0.005007867324079 0.003751324095968 0.115090287285166 69 162 75
-0.007051524774348 -0.016004025469755 0.163184763622366 62 136 58
-0.003897913356316 0.015889283077347 0.096629866756573 65 151 71
-0.003783371851877 0.016796899389529 0.096663613100770 52 115 55
-0.006674905023964 -0.013912329010327 0.173557076003923 96 187 87
-0.006095626384933 -0.037373240365832 0.166156697045879 53 180 69
-0.005849678501352 -0.015807718774315 0.163196476297872 55 125 58
-0.003782045908629 -0.003718589670820 0.111913674751430 70 154 68
-0.004165814139629 0.012374488070328 0.126805688965832 81 177 78
-0.003463344715155 0.022545329418724 0.107431570339429 38 100 40
-0.003707681173106 0.016459861454198 0.122384926795294 59 104 56
-0.004890071670442 -0.037224406888994 0.166338542933970 86 242 91
-0.003189705291923 0.021626376451130 0.110880608242553 43 106 49
-0.003223017021594 0.001548472282109 0.115654444028216 55 129 80
-0.003203962043151 0.003751207828219 0.115039412934145 63 134 57
-0.002951160335711 0.008318780903421 0.106733077992884 61 142 63
-0.004042718726468 -0.014198129070220 0.163056761152541 35 76 30
-0.003974618097486 -0.007443777699837 0.160246961161735 105 211 110
-0.003776756762763 -0.003697613473196 0.160161961303235 53 114 46
-0.003438881144193 -0.014390083252139 0.162970152286487 45 106 50
-0.001952652984304 0.015202851988832 0.096551745700634 63 131 60
-0.002907091801351 -0.037144055982095 0.168496218615229 55 194 68
-0.002837969348039 -0.011385325424480 0.162881783771472 60 158 53
-0.002601156278365 -0.016958358445499 0.161011957816193 62 130 54
-0.002348699465452 0.016839205459932 0.146402720500978 23 71 26
-0.002362239396759 -0.038037464356151 0.160200908508845 104 255 124
-0.002028001084062 0.000041539127554 0.162122856575996 50 124 48
-0.001246666473430 0.015117870075089 0.126830146569667 47 101 45
-0.001262340126628 -0.037879563876443 0.168220868360738 77 228 79
-0.001212478560776 -0.006258764367648 0.160165748096676 39 104 41
-0.000738803614835 -0.015248173442224 0.146059819762995 71 166 75
0.000134653370858 0.016949354180807 0.126915851838331 26 69 28
0.000236236884682 0.010148340246750 0.103547946665718 75 159 79
0.000540829387204 0.004031237464007 0.154053497879823 14 44 25
0.000461954392716 -0.007654311465246 0.099107761504571 73 141 69
0.000724790707736 0.003441245861624 0.152943421311628 47 118 58
0.001198679299377 -0.037378120937146 0.168631509232934 94 255 102
0.001047762231892 0.018950077391669 0.126175890969361 62 135 62
0.000951877279214 0.022161001929036 0.115445878615846 37 96 48
0.000951713909995 0.023946554425255 0.115583414778821 55 129 54
0.001090455583026 0.013226318739326 0.114892638116522 53 128 57
0.001217948480995 0.018428590589457 0.114255770719449 58 126 57
0.002223646629758 -0.008551128073578 0.152762363159168 38 103 53
0.002593917345003 -0.036758798243446 0.166011208345929 123 255 132
0.002598822724590 -0.003680089205874 0.152671626516304 54 104 55
0.002786521834414 -0.004055038550278 0.152686604531807 29 69 25
0.002986410362025 0.006455507341086 0.153362140138496 62 116 49
0.004123446073989 0.006089016862068 0.153616371123793 47 118 59
0.003025602123532 0.014330427597762 0.114995364380949 41 109 43
0.004769167433795 -0.036973204309836 0.171261188182815 63 193 74
0.003248920635319 0.008557116751372 0.113044163110563 53 125 52
0.003665815616240 0.023221481715408 0.127439113615906 53 128 56
0.003898664897110 -0.011914092767730 0.129186394669396 59 144 60
0.003552132843125 0.011360505404554 0.114081194111495 18 43 15
0.005462537026369 0.004218528322200 0.154095692966239 42 128 48
0.003515872110262 0.009745890954103 0.101995628226965 59 141 62
0.003988533760181 0.010195103895445 0.101690399174530 93 184 95
0.006667896164688 -0.037609178936142 0.162348402316955 123 255 116
0.005257507341721 -0.001729134911127 0.127776902912820 10 27 9
0.004483277585068 0.017277595881881 0.110571431884789 70 145 68
0.005412934838365 -0.002503115257773 0.127791327514764 33 79 38
0.005152721004800 0.009774815013400 0.113117537305199 63 151 64
0.005818457563235 0.022314986420396 0.127461298555144 43 95 42
0.004663891177670 -0.006360407506309 0.100622110899621 84 192 94
0.009168827395682 0.000663084493826 0.181263325768597 5 17 9
0.009192888040147 0.005926506907016 0.177644833172489 83 164 69
0.009102966908509 0.022074038323982 0.172887270283359 46 109 50
0.006968683833960 -0.000028308831216 0.127880715815144 75 154 75
0.010091744444509 -0.021586921642124 0.178628399676378 46 111 46
0.010328066238219 -0.007057456062643 0.178261741926554 6 15 6
0.010326076415216 0.006604886424861 0.178269175054003 44 111 45
0.009796763421062 -0.036655377361778 0.168242721253886 64 195 80
0.006338588585428 0.017286694483789 0.110665062825069 52 115 52
0.009067588929197 -0.012912673151294 0.151558412253041 34 67 29
0.011423022833410 0.039670512241430 0.191281410859476 50 131 58
0.005755651407495 -0.017345079455016 0.097581402101257 89 197 91
0.006330765176209 -0.004994362796651 0.106019180860292 75 171 76
0.006030496957976 0.010044634588240 0.101436885234691 82 202 92
0.009989232227514 0.001590126979612 0.156756582571994 43 99 44
0.010646107116950 -0.038540493129884 0.163110933660608 91 255 103
0.009881041285407 -0.026965359616361 0.145859930622216 94 216 97
0.008683821631871 -0.001269575957898 0.128029582547180 74 157 71
0.007932206627098 0.015586001528647 0.110683194796149 41 114 46
0.007932018208162 0.016507355158536 0.110729390183991 51 98 45
0.012240138968817 -0.036202061707244 0.165522464677805 69 204 82
0.009675470025503 0.025608285820411 0.131961447131294 52 130 53
0.012982446009540 -0.015468877909085 0.167952343493073 41 92 45
0.009934322842913 -0.000186423558177 0.128155932380293 75 171 75
0.012290169633100 0.004277010531375 0.156749560911453 33 77 32
0.014688874502184 0.012159169185478 0.186069331055605 51 117 51
0.010676211136568 -0.009584909572915 0.135317956489427 67 144 74
0.012772793416746 0.004057120455018 0.155673122736998 15 24 6
0.013092331937784 0.016369902108572 0.155454811294829 61 136 61
0.009262568825188 0.016122168750014 0.110816623982749 82 165 83
0.010596647567679 -0.004187081433947 0.123571235362500 82 171 84
0.014979069318925 -0.017080150381183 0.169600873594413 43 84 36
0.016842990721715 -0.024452224478888 0.185229720113877 39 90 39
0.009656714195468 0.018300873175363 0.104303562827349 63 143 65
0.015054753508997 0.001002007025564 0.155644320328101 35 72 30
0.012527930014902 0.030013114590052 0.132415975826266 61 130 59
0.010029876165522 0.019904050534910 0.104421419563052 74 161 71
0.015835843349873 -0.002855737293270 0.157650610740433 14 24 12
0.016641983786613 -0.035348426706929 0.165407667856438 73 179 79
0.013399284369019 -0.008546494465712 0.130238191193068 88 195 95
0.013484326753575 -0.006384413001711 0.130957165030992 40 95 44
0.015254337042292 0.005747028090455 0.145512235500259 13 34 13
0.013672144898377 0.027547755277635 0.132509052538041 58 133 56
0.017936788984271 -0.021673999663506 0.168547240271549 41 115 46
0.011526900955925 0.009275903374069 0.110715400854826 43 84 38
0.014119348597561 -0.020584178628808 0.133056667041069 96 199 99
0.010009585777454 0.000432183976778 0.096024085402074 87 212 93
0.019778874001401 -0.029644530987406 0.177888684306014 17 42 17
0.013599220351935 0.004604622264053 0.123809060279887 67 163 75
0.019966731677946 -0.034499927417763 0.174598860609229 63 162 62
0.014211802195681 0.002518577696053 0.123927636670173 54 129 50
0.014373693274733 -0.004503371575974 0.124061349834993 76 173 82
0.012735630593169 0.008096002926144 0.110852182764702 70 168 75
0.015824900785894 0.024344023855039 0.132973735291796 59 150 61
0.017551418025377 -0.001153383817628 0.144109527467997 43 91 32
0.017578566817866 -0.002705769028304 0.142984369561761 51 120 50
0.021793824411228 -0.036970278821873 0.172790126468919 80 213 86
0.022214641233697 -0.030535090384913 0.173665511673501 58 148 64
0.017064858778547 -0.011916588085257 0.134289830101075 44 94 47
0.011876783019703 0.012913037227246 0.095772863337256 82 174 85
0.016861944656335 0.002470288166125 0.130228942063211 41 99 47
0.019071676699456 -0.000976016437129 0.143770739280690 57 144 67
0.018242481614070 -0.015202274203722 0.134784700448033 85 189 77
0.015303967524483 0.024647583940441 0.114937686226736 62 138 67
0.012854532418949 0.011400732951674 0.096257921791177 58 135 61
0.025260785853951 -0.036819213969519 0.175082889474244 64 200 77
0.018555360277095 0.005868131709453 0.129087660607494 38 95 39
0.018457201102279 0.005993910935572 0.128446578621309 29 68 28
0.013917362023011 0.009842981737270 0.096501295384189 69 145 68
0.019072203376752 0.000112013183279 0.128385314157465 74 155 78
0.019252414002856 -0.018655127220922 0.127269069336578 93 205 104
0.023953297033730 -0.011184825511388 0.155969588412278 52 132 53
0.022014320766007 -0.001852211938632 0.143766648727360 49 121 50
0.018757257507142 0.017042611089630 0.124081414334881 56 134 61
0.025044223041826 -0.037318277023984 0.163583477122351 74 222 85
0.022548722551691 -0.017619486312549 0.143348362555816 78 185 77
0.020366467467514 0.007921938751247 0.129820536394032 59 148 63
0.019543939625204 0.012915144013623 0.124164844736752 49 119 52
0.023500134410536 0.020762304255033 0.143169405770866 60 122 52
0.023757547502135 0.028997083918841 0.145372536062720 70 150 66
0.019412893436572 -0.010723499374437 0.116713300217468 74 151 72
0.026907245992173 -0.010356871158810 0.157785681168797 39 121 45
0.024808920180383 -0.016932258564212 0.143507718713699 71 150 67
0.028165007572861 -0.008983980185384 0.157394741127732 73 159 67
0.025722589343940 0.025028098177865 0.145379629221813 61 135 62
0.028981557489156 -0.038627349400086 0.163013913245180 91 246 90
0.022433965520956 0.015424635236066 0.125547155238863 69 160 74
0.026058922349087 0.021701292540932 0.145063249285290 50 129 56
0.022657008761207 0.027386569267474 0.127607356342308 66 158 87
0.029812626259208 -0.036773523008634 0.164096252737548 122 255 122
0.032031913593460 -0.036799690097411 0.175544144713115 83 222 87
0.029085640045097 -0.004412290370005 0.158171451616092 61 143 64
0.025059648230369 0.010151857697460 0.134925264370310 81 180 90
0.025359454591943 0.008844014687030 0.134778751409889 51 140 59
0.027493205821627 0.024168422258362 0.145559310772056 36 88 36
0.026551196911741 -0.011681549827114 0.139202398605845 69 128 63
0.026553326528611 -0.009498742264252 0.139133684376212 54 111 51
0.024563728909457 0.026712629967158 0.128084555610660 62 145 72
0.024223956256309 -0.019444656948393 0.125148693476074 71 152 74
0.019909833653410 0.002866399262071 0.103541752168552 83 168 76
0.034559707586570 -0.036571896993703 0.175689934114550 72 192 80
0.024821386754960 0.015045229506629 0.126320677849436 73 163 73
0.028786282940049 0.024596479973172 0.145209169441732 61 141 59
0.033045425354948 -0.036465584009423 0.164713480832854 126 255 125
0.024937818546486 0.005770091231613 0.124432083911559 74 142 61
0.033113326828040 -0.038495543763308 0.164374732732314 110 255 124
0.031469404969971 -0.015902485476118 0.154698850821705 33 67 31
0.031324522352126 -0.015173355630793 0.153135720570254 80 161 78
0.019924764348720 0.022090038440051 0.099754459499017 80 172 79
0.022697886625121 -0.008133718552592 0.110887103565939 77 175 76
0.026400890156973 0.015078003480651 0.126749413536244 46 109 43
0.031170096374330 0.012842714080905 0.147484723781119 66 148 66
0.030148960973879 0.028596730111178 0.142520432562714 44 104 41
0.034964468201874 -0.038759242185056 0.164089985959996 103 255 118
0.037569967806350 -0.036835137204887 0.174423721365132 69 194 77
0.026946886172803 -0.022444106236855 0.126377420043319 65 176 76
0.027064621387279 -0.021364282523313 0.126164628655359 60 120 56
0.030683514309826 0.028446950579520 0.142659691464860 28 71 34
0.032347780809085 0.015556070144090 0.148209469043417 52 135 57
0.025890924419169 0.026610252921885 0.119550936350061 63 146 68
0.027974836274754 0.004429951059509 0.124884649138748 83 185 88
0.038573703847633 -0.037643128706644 0.171044952196872 93 244 94
0.028460822872736 -0.017583945933142 0.126829424630220 63 144 59
0.040622390942988 -0.000274322828757 0.176581243277569 42 91 40
0.039385530077973 -0.036583824403645 0.172630709521122 51 165 61
0.028608148870474 -0.024107446899395 0.126685111147022 87 202 96
0.028569074159579 0.002936431247053 0.124905532694207 62 154 61
0.028966541475925 -0.022649013905882 0.126831018784153 61 137 56
0.045493320935768 -0.011147172130404 0.192371010549872 18 27 10
0.037709529824176 -0.038147781562175 0.161247834877229 93 255 99
0.046043340449071 -0.011875394182802 0.192785797243258 15 26 13
0.046140875287228 -0.010900901952158 0.192235716288159 68 164 69
0.029832401070582 0.027715504581475 0.127163392055227 48 100 53
0.039394445003027 0.032583218914809 0.165250647168864 38 102 40
0.040910338495855 -0.036525338760939 0.169948673304692 101 255 107
0.030112951165941 -0.013209114366844 0.125539854296581 88 190 95
0.025132801433814 -0.004321183697785 0.105604421054573 59 145 64
0.043812697290006 0.002539846467041 0.179354445666438 14 46 23
0.022823245995467 0.008430389368293 0.096503603189252 81 162 76
0.025909116650022 0.002323582508962 0.108132728338186 87 186 80
0.040403936724278 -0.036715585714110 0.165730070507210 93 255 101
0.030589116190154 -0.016816720032514 0.125878759499014 39 106 45
0.032021092453437 0.005532935687969 0.130416419637193 77 165 76
0.042997039723983 0.026340315848053 0.174131858057763 72 134 70
0.031917435265732 0.023370699971077 0.128588788282055 50 124 54
0.032068297134341 0.023976964150907 0.128646384549366 68 131 61
0.030320551517219 0.009659642201863 0.120136676850468 61 136 63
0.043511618050939 -0.035849607327565 0.170783171411778 45 149 55
0.033503612902081 -0.023225589339082 0.131737121355058 55 135 57
0.046851908372372 -0.011482644500407 0.180667736046308 35 83 35
0.030626899821231 0.012230657060747 0.120333797357890 79 183 89
0.045409411987414 0.021341807557767 0.175941370333870 58 129 59
0.033759884527799 -0.022561040181427 0.131510336722617 28 68 30
0.033022813515223 0.028738442427052 0.128760467481485 48 118 53
0.042996609445958 -0.036397334939013 0.164716608681760 89 238 91
0.047947004433332 -0.012144546042610 0.180852834771864 26 53 24
0.033654123835642 0.026449674305554 0.129234677712491 77 164 78
0.048613853217304 0.005401079238509 0.181622729802524 67 152 68
0.045045853405843 -0.036294690922033 0.168621559321714 58 182 68
0.037684715792311 -0.004977511245485 0.139776134977663 78 158 72
0.041753177534806 -0.021158343040402 0.153650470289674 43 116 44
0.044226039960704 0.028747747449781 0.163091151049466 71 150 70
0.046394271159228 -0.035558210238341 0.169872174296389 57 177 67
0.026560767035855 -0.014580031129170 0.098202320040278 95 196 98
0.050300955363009 -0.012958244318774 0.180337515323022 51 126 52
0.044305502074735 -0.037037820989098 0.158414733296955 110 255 108
0.049388132496996 0.025628040553830 0.174634734386591 85 161 77
0.052204853166178 0.018740815228215 0.182269472845288 85 170 82
0.046502237504903 0.029404643051046 0.163913856430386 49 90 46
0.049525892658342 0.028065110932746 0.173306237305946 74 138 71
0.037869297871583 0.007769710175806 0.132379357213239 74 160 74
0.031963320965945 -0.017045190305956 0.111755771614655 76 169 75
0.048893977373334 -0.035775449147116 0.168586812463854 76 213 91
0.042517790645895 0.007141274957716 0.145690923961902 52 119 53
0.031865051078513 0.021956145479303 0.109960020372468 67 132 68
0.055385743275452 -0.036603259488681 0.187146238915401 47 76 35
0.051008436544170 -0.001310453342385 0.170363552042710 76 153 68
0.043852033096712 0.001398981751887 0.146142195416982 54 133 59
0.043857515080724 0.001573554909846 0.146160906649636 37 105 45
0.044996077480313 -0.013692435459148 0.149017880039446 93 199 98
0.054707642682230 -0.007905804422865 0.179748987347641 71 162 74
0.052709190610241 0.028504354613210 0.174082070833489 64 131 61
0.053114582513421 0.032058107994608 0.175723138036017 62 130 65
0.048920909916974 -0.035379310532605 0.162042157890238 94 249 108
0.053380657746776 0.024782099933402 0.175253800427546 40 85 38
0.053479007742132 0.025454892491332 0.175621135493072 16 25 14
0.055657465593535 -0.010957223107975 0.180243604713607 56 146 59
0.056015500009006 -0.021353137666240 0.177459589742176 72 174 66
0.051077825855388 -0.016120483234625 0.162056023657763 73 152 63
0.054599080574966 0.019863886073695 0.172568608700814 83 170 85
0.055652195590665 0.036161695492598 0.177290222986735 24 59 26
0.050664813483987 -0.037276380796390 0.160942381263777 144 231 121
0.050540244806720 -0.035095494951383 0.160315705004141 86 231 98
0.050247409936536 -0.033190036346526 0.159224654352398 83 169 95
0.047235441588208 0.002092076836294 0.147339069181367 81 157 78
0.047708199799167 0.004555138280233 0.147788996185018 57 144 63
0.037228170056889 0.008449080386902 0.116466828565992 69 149 76
0.049745729254908 0.013426043673169 0.153142076698476 66 147 63
0.049741802580492 0.014697456346335 0.153192262279811 62 128 61
0.057290369296669 0.036964039976683 0.177552577094521 37 86 40
0.030937587225393 -0.017843870318205 0.096764362544169 100 178 99
0.058171891314153 0.028816931905526 0.178117845038357 62 127 64
0.037643741792994 0.006195396967185 0.115315595609755 78 164 88
0.062554204964517 -0.028357353548953 0.187687434167106 76 142 71
0.053898512912968 -0.036665313640341 0.161935846417540 78 206 87
0.041744691057991 -0.025317243898208 0.125526263403413 79 158 74
0.061303361949690 0.019489155877898 0.179526648606033 80 150 83
