ply
format ascii 1.0
element vertex 452
property double x
property double y
property double z
property uchar red
property uchar green
property uchar blue
end_header
-0.062889952595971 -0.017314611879088 0.180126903985945 42 65 34
-0.061329700559849 -0.013730312079211 0.175627104385993 51 100 45
-0.059296213778594 -0.023453210923342 0.171043073564233 66 146 62
-0.055683210557091 -0.007609710743027 0.162239572521957 70 163 74
-0.043561421872715 0.006724242966955 0.128766109024889 58 131 63
-0.045976703145809 -0.027832052754766 0.137291910037048 90 191 96
-0.063492195542319 0.002499189630206 0.186031550414672 93 209 88
-0.063053899731103 0.027078366523704 0.186588847579176 79 191 82
-0.055612267570140 0.028620508528938 0.167566110143406 84 202 89
-0.045015504134468 -0.025897876134260 0.136993728089853 73 163 68
-0.056320981822884 0.019029064576042 0.169411880889778 49 130 47
-0.058867903009565 -0.042531364987300 0.181176861296557 82 219 83
-0.050491205596707 -0.027467833952262 0.155525517563726 63 154 59
-0.050511556744811 -0.026373128419700 0.155491130464288 25 49 26
-0.039503833387298 -0.009831379398883 0.122012554541552 77 172 78
-0.055449635289132 0.019756648977029 0.170252100444317 77 177 70
-0.048475768866487 0.013125934519955 0.149677807868543 56 146 56
-0.058885612949580 -0.028164312478374 0.182102301428554 81 176 82
-0.060129559298549 0.004057589535426 0.184729018773808 42 112 44
-0.040999327671302 0.008377227058300 0.128086632857712 50 129 51
-0.054971547370238 0.023051680555316 0.170773762514772 70 180 87
-0.058103069329280 0.029278676126219 0.184400208293620 81 184 85
-0.053314839706599 0.020536072587145 0.169632837247849 62 164 66
-0.037567122625575 -0.012055199420589 0.121238496294316 77 156 66
-0.046746462006807 0.004824202314292 0.150348307728569 64 146 63
-0.037176234066902 -0.013927519726927 0.121391079105445 64 145 69
-0.037035733487691 -0.009168555477788 0.120763288491463 58 141 53
-0.042749264707791 0.007874817568028 0.140492532378312 70 154 72
-0.051632431879684 0.017694273462881 0.168983985190191 68 145 69
-0.036172731985653 -0.006004445273338 0.120121734451710 54 146 56
-0.035839088935325 -0.013904802280660 0.121086699314303 59 155 64
-0.036612697430898 -0.027922949818353 0.125022141626938 88 189 82
-0.033207729423963 -0.004124824054185 0.112736043940775 59 137 64
-0.050969438694217 0.012582569280041 0.170299012203024 39 88 38
-0.054815627208802 0.029300221170859 0.183868703277616 69 176 74
-0.055018286591300 0.023335238394916 0.184686975809540 43 100 40
-0.054270105125874 0.026948533598518 0.182563744418014 60 147 70
-0.050082744225007 0.013128364724363 0.169333220254745 43 96 46
-0.035853372667418 -0.025994098668384 0.124678810546267 56 136 63
-0.031779878433848 -0.005431090962577 0.112301631767329 69 158 72
-0.057233682193502 -0.000646847864075 0.197515608602980 58 158 64
-0.056270924636154 0.008648889800500 0.196718812466280 43 89 43
-0.048614828059002 0.011438019072398 0.170861927836670 78 185 92
-0.055749675835111 0.008644459604362 0.196485603217027 22 54 22
-0.056128615010942 0.004887727777538 0.198467921561744 67 170 71
-0.048938077781894 0.034825483181351 0.176488041987280 68 168 77
-0.051795095966421 -0.025225807572952 0.185901197517419 66 166 67
-0.044836449596247 -0.038007319510560 0.164505372670451 69 171 74
-0.046267979063351 0.010607303149602 0.170192952770674 64 156 66
-0.042714661210618 0.026845811872251 0.158644257163648 54 114 53
-0.042342276131385 0.025832512859966 0.159180961584045 63 167 74
-0.052579464715747 0.005082900297308 0.195618028121700 69 166 75
-0.041765304241726 0.028985245311930 0.158055105901204 34 94 39
-0.043324752726453 -0.026373636015967 0.166040870685508 84 188 88
-0.027824848590884 -0.003185520273671 0.108659397866895 50 133 69
-0.042806931799745 -0.036657429389813 0.166570584282189 54 152 61
-0.043270930133933 -0.036256867460464 0.168227931402821 12 27 11
-0.027023710280128 -0.003179808761517 0.108483265763119 49 118 51
-0.040460500972039 0.007741556487506 0.160770782516445 58 143 58
-0.037897935620662 -0.012356567356106 0.153156955327230 75 175 75
-0.026352443488720 -0.004069862269550 0.108332262539562 59 151 58
-0.039792871865639 0.009515078279824 0.161150549497928 72 167 77
-0.044008917245896 -0.023692274945458 0.178968976678592 72 177 73
-0.041809516735277 0.001604812512490 0.170366503703821 28 73 31
-0.031409906483640 -0.001036872287634 0.132633004988513 67 152 78
-0.039040507452168 0.024277510464532 0.164296342230366 53 117 52
-0.039997321073295 0.027492106226631 0.168415653902426 70 177 74
-0.038757429831068 0.023044307121943 0.163828881713957 61 152 65
-0.043673345390428 -0.013359451002797 0.184694103282454 46 109 41
-0.038838795485894 -0.025086099020233 0.169779320086213 80 172 69
-0.037420622128748 -0.035021170394258 0.166443513136318 63 124 56
-0.040231906267419 -0.005858446703379 0.176416869706484 70 164 75
-0.030512601629748 0.011018432144490 0.136289855276951 49 95 45
-0.040060440751118 0.001242792613986 0.178333961659873 59 141 65
-0.036347474906850 -0.036745000423450 0.166205388105115 50 113 45
-0.036383225293025 -0.035181165024361 0.166180641824380 54 159 58
-0.037347076476522 -0.026070321794820 0.169447360474901 55 149 53
-0.036971742709133 0.029249534427768 0.170006099437721 73 181 81
-0.032060571441419 0.009241271165579 0.149518582061028 66 146 65
-0.035244745500721 -0.022618243681063 0.165154714205707 57 144 65
-0.036074353989560 0.028578802824825 0.169502864640206 52 138 54
-0.028629104281525 0.010667847289209 0.135733383259372 47 118 51
-0.034648978055585 -0.021417981424921 0.165022712892528 67 162 70
-0.037496029837788 0.005197354025658 0.179251475066019 7 19 12
-0.032996750402978 -0.037656230502257 0.162531698832987 92 173 90
-0.028820254740737 0.005217615551498 0.142499306074785 33 87 35
-0.028637080941562 0.007107118092602 0.142474105588102 79 181 77
-0.023202706134179 -0.004627405082208 0.117398227062755 50 130 56
-0.028092077657210 0.028369435293007 0.142001137583140 62 150 64
-0.018126027583644 -0.018360497572913 0.094314767296452 62 130 57
-0.034564913960992 -0.003870390978046 0.174330215230675 56 138 65
-0.028841808647682 -0.022270497884046 0.149155512182730 54 129 52
-0.019283875074905 -0.000543689691499 0.102146374530335 77 156 81
-0.035330457872379 -0.017373935742413 0.183743428031782 31 63 22
-0.035329493733928 -0.016923434024631 0.183715900023192 11 15 11
-0.033531879970858 -0.002591987602955 0.174367439772249 41 87 48
-0.023405800557269 0.007250340709739 0.129327894412004 62 145 67
-0.030014831259125 0.003013881422772 0.164717887067444 77 175 82
-0.030010556977946 0.005625248494674 0.164740479516397 63 158 67
-0.029926168655388 0.007613554519195 0.164347405616108 60 107 59
-0.032222708900105 -0.028760855108162 0.178615638975115 62 133 67
-0.030704804612255 -0.041362870390500 0.173102830347893 45 130 61
-0.031471507728670 -0.022430081942047 0.176389754854229 71 166 70
-0.032420892377593 -0.034698203944105 0.183677290734390 68 159 66
-0.027594778515491 0.033463580698224 0.159918973232828 69 172 76
-0.030646060029286 -0.029362888726224 0.177053693320736 69 169 71
-0.021095627754051 0.009650796232112 0.124266633375297 66 151 72
-0.018201581702382 0.016972818549824 0.108532185931877 76 174 73
-0.031537492869586 -0.039303289179975 0.186601400709327 33 66 34
-0.030450085178706 -0.021167805049102 0.185109724767344 69 165 71
-0.030066089566724 -0.005645269783836 0.182280459914061 76 168 75
-0.029909169212713 -0.003637175491667 0.182630261164886 52 127 54
-0.026685134393029 0.005012435989402 0.163804580964669 85 182 81
-0.025394216137017 0.002007968059566 0.163115334076063 60 141 62
-0.029200698068408 -0.015229201520079 0.189527354477956 68 165 87
-0.016155927662131 0.006694809584248 0.109779188761328 63 156 72
-0.024460147566084 -0.000385678564967 0.163430629144311 64 151 74
-0.014483063509721 0.015282953961060 0.100196926969806 72 144 68
-0.027128167325349 -0.006304461114341 0.181868795599951 67 155 66
-0.027538743494315 -0.020224841051993 0.186482068428176 68 134 58
-0.027284712458472 -0.018299844169250 0.187674895556651 44 88 45
-0.024627353320383 0.038152823153470 0.173602851369320 35 78 34
-0.014324352224947 0.005875146225058 0.104429676422416 17 50 20
-0.015076015520917 0.006683771525418 0.109522387991736 76 155 75
-0.026508303968089 -0.013521977044727 0.188377952744607 63 152 69
-0.017004450043582 -0.024849410925138 0.126599668145136 50 135 55
-0.013043245192004 0.016089657071272 0.100058095051274 66 142 64
-0.014787086186363 0.020600536174055 0.112682488548040 43 78 36
-0.021349038131997 0.034815168351848 0.160376089492857 34 94 41
-0.025309184578738 -0.018139939530410 0.188224339254574 81 180 87
-0.014481438485921 0.004523576702404 0.110810093314570 60 125 64
-0.021823607912578 -0.001192662886121 0.164413425638853 67 163 70
-0.020768816171644 0.032696059308491 0.160101170110382 51 110 49
-0.013710017207124 0.019343845381387 0.111521795149289 62 141 66
-0.022769318343214 -0.038333970970059 0.184569236152144 39 82 40
-0.023483312461860 -0.014741998112184 0.191731635340244 65 162 69
-0.012186902069256 0.005867870691138 0.104169238823610 69 140 67
-0.019746271905477 0.021502664667022 0.164639240456579 62 146 57
-0.019576557143761 -0.002595551517807 0.164047687545633 103 198 91
-0.022223574302548 -0.017050666255745 0.191131111075501 53 138 55
-0.019283944439182 -0.019860086092871 0.168852212550509 60 139 62
-0.020623164190174 0.039733752167864 0.182064696326856 25 72 27
-0.013942288385809 0.002239340374407 0.125119265191103 53 133 60
-0.012101161860105 0.003471840608045 0.110768384963246 90 197 92
-0.018982800707231 -0.001510495396545 0.174636396156612 25 82 35
-0.017971466793384 -0.022048428050844 0.168297750907109 108 230 110
-0.020014455431082 -0.015325805617199 0.190140787479584 51 133 51
-0.009498073010314 0.009411992042584 0.095432178289954 61 145 63
-0.016943694642691 -0.037334011489187 0.169707754608389 83 181 86
-0.015500668278206 0.019295686425641 0.156415243664992 46 143 52
-0.011956436250945 0.000280880589934 0.124844487384756 69 163 63
-0.009925898749471 0.008398362963948 0.106351041225567 70 185 82
-0.013997335452366 -0.028783444271423 0.151491598006943 80 175 82
-0.016391566693088 0.038357551800802 0.181374425532039 52 129 52
-0.010890199466853 0.001185188590531 0.124714937725391 34 78 30
-0.011071074762115 -0.009659796296122 0.128471924158569 77 160 73
-0.014209151966527 -0.039083154949026 0.166956404018188 157 255 172
-0.008902712736879 0.009277579505821 0.106272995822120 61 141 61
-0.012081885397610 0.028529636434584 0.146468501075274 53 132 56
-0.010129447406814 0.001937572170263 0.124625580148247 69 140 66
-0.013986825085060 -0.023829989659694 0.174703860389965 40 92 35
-0.012413373047134 0.017353140702146 0.155779172402894 42 114 48
-0.012711260867826 -0.038832110506543 0.165890381268624 106 255 130
-0.010636791729516 0.004803273083077 0.138213389345398 71 172 71
-0.012375230115471 -0.016284025164027 0.162226633409999 72 171 73
-0.010111823941475 0.008681038723697 0.135924018458989 72 160 72
-0.010118322428951 0.029199340456002 0.146282258135453 78 174 85
-0.010177851626309 0.013817635184177 0.148368903772535 58 126 59
-0.009222775196036 0.030751742029071 0.146262116179048 33 65 30
-0.010124399403274 -0.014796365809083 0.161161163943320 78 172 78
-0.008608541746879 0.003861979179694 0.140616047072295 171 222 108
-0.008721753784061 0.015976941022236 0.148343886833325 57 135 59
-0.009437895843427 -0.038005603752602 0.164807312613212 94 255 106
-0.007836325611224 0.004841846072420 0.139188077815661 60 125 53
-0.007577767216313 0.030016622748242 0.145189848258426 45 91 44
-0.004892124997910 0.021637941043313 0.096290054113715 68 141 75
-0.008554587685247 -0.013692499398353 0.168697293046321 66 165 71
-0.008126588963993 -0.011600674266250 0.160624084938511 39 72 34
-0.006771423253698 0.002288572804917 0.138252566212636 77 163 72
-0.007102540309078 0.032697789955160 0.146454796153810 20 50 21
-0.008077456111335 -0.014823328016445 0.167531179348277 25 55 23
-0.007086982671091 0.013442291939026 0.148084865226273 50 121 50
-0.006725340249341 0.014706919911842 0.148149361121837 77 165 86
-0.006535171307645 0.028668156700145 0.145261110277740 30 72 26
-0.007093510797657 -0.037306591258535 0.165897382855755 65 203 77
-0.005507132210270 0.007469961224539 0.129120764977019 64 159 66
-0.005015774807120 -0.003520060947631 0.121512755833133 51 165 62
-0.006179738359812 0.013077935716711 0.148004149033732 15 34 15
-0.006428218459759 -0.013174095036194 0.167450645093446 93 210 99
-0.006174281119444 -0.009265998349484 0.161059991616037 69 171 74
-0.004557272162999 -0.002920728278140 0.121069248259829 14 28 11
-0.006103397491560 -0.037421624244340 0.166358975655007 60 221 77
-0.004711789352743 -0.021199844720561 0.133603740881318 56 135 61
-0.005980605853353 -0.016582827641100 0.166679021266517 80 183 85
-0.003272874911857 0.019347544450325 0.113392247276591 48 113 54
-0.003079981882881 0.000298270568548 0.115527819702671 40 119 43
-0.002942384237264 0.000714811356590 0.115589417363662 41 101 50
-0.004652740003718 0.021954486596671 0.178448169705035 24 31 15
-0.003922181708592 -0.037242498840863 0.168075642160318 70 226 85
-0.003058164147629 -0.012517904055534 0.174813505642214 88 175 81
-0.002388639328512 -0.015175413522710 0.148587491412549 83 192 85
-0.001778935507015 -0.004431274781881 0.112818661288945 49 120 54
-0.001731012567505 -0.025823873854969 0.140842009312931 88 191 88
-0.001339562178591 0.007037825366736 0.110433944805774 86 172 88
-0.000778411505033 0.001326804884320 0.106599992275562 51 130 55
-0.000851245882498 0.001964886709212 0.115584425081086 14 49 21
-0.001337491106847 0.023412065828956 0.176378060040970 12 21 14
-0.000247069155403 -0.009817183465885 0.172996335391145 47 126 49
0.000171167570124 -0.037247308653760 0.168074216720694 95 255 101
0.000119736953083 0.007319387128426 0.110695758977685 42 102 52
0.000997466047824 -0.002159434152383 0.119731378587337 67 166 72
0.001108961276586 0.022828528410887 0.117392791139386 52 126 56
0.001660450711327 0.007550194765259 0.152712166221673 68 167 75
0.001254330626725 0.016591571248285 0.117351925761746 39 93 41
0.001019740729606 0.020989671837866 0.096820885062432 53 127 60
0.002011176999527 -0.036999488617367 0.167873711376817 118 255 124
0.001377229111542 0.011525082896505 0.115645463841643 64 131 59
0.001680980871509 0.017327728455805 0.117617212366872 63 136 66
0.001997385063623 0.001829592303812 0.127655194850248 81 159 68
0.001997507507143 0.016356624513552 0.128166064051233 52 116 47
0.001936508741688 0.009228291580141 0.108406575373081 61 159 67
0.003192734469011 0.006490042124614 0.154192753898536 77 157 63
0.003674807954204 -0.036463336612592 0.169026150370299 71 226 90
0.002163202782679 0.021218426387918 0.096847160946446 86 177 86
0.003773224442218 0.003475153226503 0.154616769019849 69 140 74
0.005020538627221 0.019100041324994 0.178228312608955 22 57 24
0.005622398528092 -0.002953237746906 0.182595805169602 82 108 57
0.006073774313743 -0.005215672357947 0.182588716188061 37 89 39
0.004168652014654 0.022685156329732 0.128620026028017 47 120 49
0.005501008208149 -0.038112969042778 0.162813075238654 110 255 114
0.006131454482463 -0.006384639724478 0.177930927203801 50 133 50
0.003610340823357 0.009190123743995 0.107994060606020 78 187 84
0.004620891653160 -0.012497526890062 0.131774853523772 63 149 59
0.003436286286338 -0.007366124062867 0.099851287047468 72 174 83
0.004038023625034 0.012263715932164 0.116121476171612 60 141 63
0.006744472229106 0.000666361084260 0.182369310736322 50 136 55
0.006484900094226 -0.038484916557597 0.162784265855303 112 255 123
0.006820202759053 -0.036465770375315 0.165659549420180 109 255 106
0.006674800080394 0.006173668176535 0.155857369755841 50 151 47
0.004958428297066 0.015293104782809 0.118099796745149 44 115 49
0.004782901584635 0.016396705243019 0.114253002904648 68 157 78
0.006826583631316 0.007280055370168 0.155034103545196 28 77 25
0.008033269689775 -0.008062403033787 0.176331233688047 30 75 26
0.005375162092780 0.013289600503146 0.117810143115518 51 119 51
0.008928115355942 0.039914094289072 0.188162944042243 42 114 48
0.008616207036546 0.028441736828749 0.172273112419959 59 130 56
0.005658960823968 0.010053063153692 0.107672084317775 90 202 90
0.008428186611205 -0.011012602024470 0.153231912806774 73 149 65
0.010135587249498 -0.000446293514751 0.178667998824451 57 133 55
0.008678058290022 -0.027658305569430 0.149296161558616 84 189 75
0.008991286401430 -0.013078304338772 0.153323273783781 61 144 61
0.009657397126223 -0.038539567193465 0.163077509533311 90 255 98
0.010432094348970 -0.036007855861685 0.165470815309881 85 255 100
0.011311228680490 0.026504478203045 0.174555388715959 27 62 25
0.007252442079594 0.017491375416454 0.114398692178961 16 30 12
0.011537243527055 0.034864258330812 0.175619768677936 52 144 56
0.012290988505462 -0.006165792498996 0.178022074972310 9 19 10
0.011114225756818 0.005900375062966 0.159060476712330 63 141 61
0.011137039079255 0.009626513650520 0.159481455018283 45 119 49
0.011879430090237 -0.015168127833995 0.166958259952979 48 117 49
0.009405142619645 0.000277754007860 0.129335510387641 89 162 68
0.011740958048403 0.002168140498452 0.157055424811283 12 36 17
0.009821962352803 -0.004315637698028 0.130662999524279 50 117 50
0.007981376483384 -0.006133461560471 0.106101828325898 90 216 93
0.009021443564041 0.012646734043417 0.112457151781306 33 73 32
0.008747486502851 -0.005505698233199 0.106163366031098 90 174 95
0.008675280984734 0.018335258534790 0.105792702192832 86 182 85
0.010993872116064 -0.001449811686176 0.129595228118425 11 29 17
0.011018533206187 -0.000825060608364 0.129866062473978 78 170 73
0.008801595149893 0.018961584590616 0.105837314065842 59 153 59
0.009559389668389 0.015058426825038 0.112568756283985 86 188 82
0.014883956329392 -0.035467564307306 0.165848453372974 80 207 87
0.014263602280273 0.002359810261527 0.157321568728025 48 104 45
0.012441210636460 -0.004602781656722 0.129995771091539 87 197 96
0.015059393401099 0.034137969767076 0.157779796182686 62 140 62
0.014857453762394 0.008414283605231 0.152024447416946 56 129 53
0.013398965874810 -0.007151062525356 0.133133304949772 77 187 86
0.015247767884445 0.011997029702278 0.150618354215666 41 117 41
0.010441047134261 0.018839905843879 0.105905069140380 69 155 76
0.014086581566014 -0.020121870249918 0.137096338372145 95 197 95
0.015958635950874 0.008405133820162 0.151947056225528 48 138 52
0.018614541729768 -0.034974007702008 0.175776196178175 51 142 53
0.014126507641890 -0.009143866272086 0.133942927376496 75 157 77
0.017931191610277 -0.035924537848532 0.166270183455521 91 248 106
0.010330020137982 0.015041383502661 0.097112360497647 58 143 61
0.014748372398502 0.025772796938537 0.136175333263818 63 149 71
0.013865984439167 0.004078973680493 0.126080287262959 60 124 59
0.020269833593774 -0.030822629587772 0.178490025454272 27 48 20
0.017493170166022 0.007866914942161 0.152409698396981 58 154 65
0.015255247407520 0.029890638420892 0.135373032997925 72 162 75
0.014415551463388 0.001942966308970 0.125591078116393 74 197 92
0.014944186611861 0.009690733085822 0.130080576221331 16 27 14
0.018571519993208 -0.002477744299715 0.158027358221641 17 42 17
0.020915182338268 -0.030917395720586 0.176739690067198 36 101 43
0.022445687686903 -0.017899808561711 0.187981288621593 40 110 41
0.013220909282243 0.009394041790919 0.113725100898563 74 192 86
0.014947425846767 0.013034064684603 0.127730158403019 18 28 11
0.013233026759525 0.011848309081955 0.113908592120644 40 81 33
0.020443415847791 -0.036421140110701 0.170306090640805 80 221 83
0.015377193755035 -0.002363924164579 0.128406859333271 104 204 105
0.019352729738230 -0.001124879313364 0.158120719316106 35 79 35
0.018508491183047 -0.000643311679847 0.146053699201358 48 129 44
0.018397752273486 -0.015048382844713 0.141776818260121 77 175 73
0.012490374115113 0.012161139246612 0.097746504980948 67 148 74
0.015275332009941 0.025971525612473 0.117775736970453 68 145 70
0.012722589457179 0.013886050209465 0.097821005147746 92 196 91
0.026365985522365 -0.013151745704464 0.192744325392491 71 160 67
0.023748411972622 -0.036564587013591 0.174767687388356 55 189 67
0.018001762123706 0.002945344241062 0.130543313074401 100 207 90
0.024181065554561 -0.000215311380332 0.171348401545638 15 35 17
0.013424538285088 0.014007974548379 0.097902826866114 31 67 26
0.021070999192502 -0.000472933092866 0.146672062341443 55 120 52
0.020504429154339 -0.016807335446380 0.142279413230106 73 172 76
0.018825058366895 0.008314898304860 0.130918546532090 51 122 47
0.019158472013798 -0.019041563783542 0.132580428737629 103 222 104
0.025345173161785 -0.036952782183545 0.172952579284330 77 215 81
0.019451090096851 0.009099445476142 0.130938255323285 72 155 69
0.021136848347082 -0.010995113470548 0.140617327333288 70 169 77
0.021832642391387 0.023439111804442 0.145790852219853 65 144 66
0.021905497194688 0.029212106722104 0.144617745140263 59 164 71
0.020100778433695 0.003263149008292 0.130954071839077 40 103 37
0.023137974630843 0.023156136397323 0.146288687098334 59 121 57
0.020722431948558 0.010754809536876 0.130187804368981 64 162 74
0.019229760702625 -0.010317294903783 0.119659246170784 83 167 84
0.029331557326872 0.001491649437669 0.177165003842924 63 134 59
0.019671571000479 -0.009034230402798 0.119705493597221 60 123 60
0.026587422382345 -0.004985639496284 0.157990377725323 68 157 64
0.024300786228707 0.025010229593177 0.145142750814798 67 145 66
0.023869135302086 -0.006520795303427 0.139775492426278 74 152 66
0.028490253880242 -0.039233207986899 0.164597722246475 110 255 119
0.025116580621734 -0.015345798667656 0.143236122243975 59 133 63
0.024869106496339 -0.012272754422434 0.141755845226917 49 130 56
0.024561824627772 -0.007880860413358 0.139946155097794 39 92 40
0.031389539393404 -0.001116906505171 0.176735018714070 62 152 70
0.022143075670663 0.017315197470897 0.127297680410774 84 168 81
0.029284800343914 -0.037370488358991 0.166526283379916 109 255 111
0.030745259137826 -0.036735641507831 0.174232055159352 102 255 106
0.025347312726340 0.022111705122866 0.142234501832729 34 97 39
0.025669680277685 0.022264125152631 0.142169103303344 21 52 25
0.022506573887393 -0.018930712967012 0.124612200706107 84 181 78
0.025771105569056 0.024763330453977 0.141159466510623 61 120 55
0.020843880109186 0.006661355530769 0.114001380701881 78 164 79
0.030896916705274 -0.036979156182527 0.166665351068448 102 255 101
0.033699285053563 -0.036556696238606 0.175539591152946 78 219 88
0.029856985290812 -0.016023140185069 0.153997896277059 48 88 39
0.024685107915306 0.017022783662002 0.128691095721297 88 181 84
0.032714222258779 -0.038967251560523 0.166206051745971 125 255 134
0.032956988601848 -0.037044088677253 0.167126990421669 143 255 144
0.025424766468338 0.014939350473124 0.129214579405142 52 127 51
0.028610070631215 -0.012687630832347 0.142747950913279 90 190 81
0.022270877692841 -0.007474413011102 0.112540281325899 93 185 82
0.025731368670914 0.027441843983898 0.130140064436050 76 172 74
0.025462792458628 -0.021537788890202 0.126970065775239 82 173 81
0.033844624146548 -0.015161006462479 0.162174172807717 71 84 52
0.034649965474938 -0.039103109400001 0.166166527441166 122 255 138
0.031757821671472 0.014790622886520 0.151034809658123 44 101 40
0.036779788968195 -0.037094663312925 0.174578709398890 57 170 61
0.036645707704050 -0.000664302691862 0.171851862599812 58 138 56
0.027036070498626 -0.020221593901321 0.127259685962250 69 166 69
0.032453509204155 0.014954941100891 0.150967813356502 45 86 41
0.027179534114191 -0.023403038765354 0.127478106345464 101 210 96
0.030666626080181 0.028261721839610 0.142567341562054 57 142 62
0.027255492642379 -0.012370557381736 0.125822247133029 90 186 83
0.036234853936337 -0.039496920250426 0.166356731034345 116 255 117
0.027746864067912 -0.016457019378202 0.126240745506076 53 133 56
0.038369173935447 -0.036600786109447 0.172593116653213 66 197 73
0.029766206469274 -0.025347089782261 0.134202101535362 70 150 60
0.038527189210040 -0.037596807784414 0.170845184006325 97 241 98
0.024179788825323 -0.000735000709031 0.107742405110540 88 162 88
0.039475658551183 0.003088425637729 0.171806626713018 10 26 11
0.030441307984702 -0.024416753092699 0.134331136768518 41 72 35
0.036917106764734 -0.038121825203556 0.161060265285372 101 255 112
0.046156828063417 -0.010841025843773 0.195069072150558 22 40 17
0.030201881927504 0.028176354240615 0.130517144746890 61 118 64
0.046658743676857 -0.012279965556319 0.195285352193299 29 69 30
0.040715313539960 -0.036891498976454 0.172362157648528 100 255 103
0.031714098095488 -0.018260878118836 0.134600882874205 45 104 47
0.040121348379046 0.033144201277235 0.168987836250670 57 140 65
0.033835525802059 -0.004028063618769 0.141259073252142 80 163 76
0.026008580765169 0.006720156515828 0.109075910819703 79 181 77
0.032437703408628 -0.022551094898356 0.134669291778540 82 161 76
0.026123260164485 0.008003437974233 0.109056257976603 57 132 62
0.043028845138937 0.025348588062165 0.175753276874189 37 110 39
0.043208487856074 0.026385904900571 0.175746434410951 28 56 25
0.026800289812707 0.004659893976971 0.109166443037856 21 50 18
0.026851593637572 0.005055388880397 0.109368972492129 88 171 86
0.043860836440092 0.031044374119226 0.176345070512450 80 172 82
0.044113947023395 0.029591164261550 0.176384590824801 98 169 89
0.044066150460090 0.033574748545721 0.176620352428094 70 143 72
0.042572152853089 -0.038194212166739 0.170483980767658 154 255 165
0.034141618951526 -0.021816952763975 0.135157786748602 67 154 66
0.036339483869471 -0.003729534658927 0.142615928135766 52 112 51
0.024505492363720 0.009262066053184 0.098234497038592 88 193 93
0.030904604955224 0.014048870421792 0.122507392386581 75 171 75
0.047521245922513 -0.011654711297356 0.183162464730400 40 95 41
0.049852790265153 -0.013124407983840 0.191055815250044 41 42 85
0.041582075566793 0.035875198139951 0.162412963132390 64 150 57
0.040604157497566 -0.037277116189258 0.157469583806839 151 255 166
0.028885231697232 -0.015390200633629 0.112590633314534 70 181 83
0.045661606349427 -0.036687726083126 0.172954480263895 122 255 122
0.042551533296635 0.003630326221701 0.159686050275960 86 175 83
0.034555273034140 0.028117689059318 0.132118159026383 81 164 83
0.042323820401007 -0.021178921912125 0.156288656613927 63 150 66
0.046729186072808 -0.036347927549126 0.172492046792513 54 180 69
0.049999953741457 -0.012449138034940 0.182189599411899 58 131 54
0.048722724490251 0.031151105780430 0.177723991821664 58 145 62
0.046612663002618 0.026452360775308 0.169229116113408 67 154 71
0.041491616625427 0.006818448273894 0.149669218056417 66 140 68
0.049434670787105 0.026417964357455 0.178328539076808 55 130 55
0.030983179123248 -0.016646718260355 0.113200667162263 106 220 112
0.044369740611223 -0.037006069080772 0.160475056787671 101 255 134
0.037388887486834 0.009890868135974 0.131338988695895 82 168 80
0.048856902402468 0.017287069480095 0.170234394739253 70 160 74
0.049353268388690 -0.036524591866545 0.172739111932336 84 217 98
0.044151644995870 -0.013689576844733 0.152420415583674 87 180 85
0.054233480126953 -0.011119488581544 0.185755525466463 84 181 83
0.043474502611800 0.003391465843719 0.149336496602832 84 192 92
0.032150148578651 0.022774161145743 0.112637316168060 77 158 79
0.049396367738567 -0.002904006726115 0.168268379135645 75 167 70
0.051214344776931 0.039605473703442 0.175594695106966 42 95 44
0.050877760628268 0.022253563554435 0.171446267178596 89 190 91
0.052466940201223 0.028214900481056 0.177104571286425 66 162 72
0.053854226607233 -0.008120223058923 0.179645012429475 90 191 88
0.053005305817752 0.030510488307312 0.178417003696229 45 122 54
0.051980467830330 0.025244351243793 0.173981152920300 79 160 77
0.053172133481916 0.032392714705263 0.178497969712676 64 134 68
0.045386066432173 0.002854877312635 0.149982584821306 63 134 65
0.049489763602780 -0.035605428819668 0.163856246631791 87 248 106
0.053810204117958 -0.036166756514332 0.176252196815035 91 177 83
0.046225248143265 0.002319381884386 0.150467428549171 77 161 80
0.056145972547031 -0.010796523660644 0.181126666863277 44 125 52
0.053262689997349 0.018673066402513 0.172577896926071 92 170 81
0.050656604201753 -0.016886234755876 0.163638894100409 76 152 70
0.046907657785682 0.004862354960599 0.151564489105205 59 150 64
0.036576439878381 0.009834503204306 0.118168670439564 88 168 77
0.029902904898932 -0.017699704926277 0.097618591017580 107 193 94
0.055853512038815 -0.020521029368389 0.177524390470886 110 219 103
0.050595179409931 -0.037462009885328 0.162395189264434 124 255 111
0.050985283991618 -0.035490600667164 0.162800389071730 96 243 94
0.057447817867618 0.036839940790974 0.179786589685705 64 130 67
0.055157390786304 -0.014960283837583 0.170370614058728 47 68 33
0.057639879333794 0.028236643578624 0.178256132801948 68 139 68
0.038528427899694 0.010838582864728 0.118827278922377 71 147 66
0.038882078701114 0.012813897298051 0.119152266780227 67 141 74
0.038194212192264 0.008417692815709 0.116210996266994 76 178 77
0.053433669956335 -0.036604908526324 0.161622818281329 100 244 104
0.048478604589041 -0.002250811416160 0.145165756533157 87 165 80
0.061868541177037 -0.028936594154331 0.184564268569016 72 151 70
0.046156240267774 -0.004395799611381 0.138010219381472 72 125 65
0.041936495869916 -0.025198625520382 0.125664089030651 75 154 74
0.050526802911248 -0.008885053720402 0.149276899925102 112 202 109
0.062033354423413 0.039709355926750 0.182400910483058 45 73 42
