ply
format ascii 1.0
element vertex 445
property double x
property double y
property double z
property uchar red
property uchar green
property uchar blue
end_header
-0.061476482626264 0.017565923220293 0.177426308397313 84 165 80
-0.063313587940888 -0.039691751874774 0.184866436070064 74 159 71
-0.063723254249988 0.027454147397360 0.185019967164301 73 204 83
-0.060305656253404 0.019854287927421 0.175377867256320 65 159 68
-0.043087008311994 0.010782165198618 0.126720322832810 68 180 77
-0.059965196306832 0.022666952820885 0.176270250328497 65 133 63
-0.043272748711810 -0.023876216588079 0.129251138162112 70 150 73
-0.058720675105677 -0.014115114845965 0.172660564948488 46 138 53
-0.039532618384322 0.001341455727571 0.118366077055393 52 139 59
-0.056970441594371 0.028599988753739 0.169859151116751 67 166 81
-0.054324727224640 -0.028963711288722 0.163719977812261 67 175 77
-0.060298802194596 -0.028659225556314 0.182702834066561 61 167 73
-0.057922306556834 0.021574093744935 0.175384080182576 62 166 67
-0.049725086621141 0.003755704393992 0.151594059208519 22 68 30
-0.044235590679683 0.009679355567227 0.135993292340500 65 152 70
-0.052718720705984 0.031303082538487 0.163129346130105 74 181 80
-0.057475503514494 0.024840643619351 0.177819633097064 70 186 72
-0.052356730642763 0.027584188336233 0.164424954021043 78 186 80
-0.055077752183571 0.014258616908020 0.174070757506641 41 99 43
-0.056615218007956 0.027470335380167 0.179688396100964 60 126 57
-0.036860436000759 -0.010878580629006 0.119434316002111 61 142 61
-0.036723600461225 -0.009013066537726 0.118946757779025 73 182 72
-0.050194914886068 0.012460447070669 0.161282611773808 64 153 71
-0.053934498959604 0.014237625605307 0.173576656193363 37 99 43
-0.036123254022665 -0.013988104219426 0.118538534244390 86 206 86
-0.035850749833359 -0.012594311079667 0.118464602010709 61 138 62
-0.035852554066411 -0.006314957375352 0.118261355476638 58 130 56
-0.049255585138001 -0.038046280936479 0.163758914953547 84 178 81
-0.035448742257590 -0.007712698887171 0.118298500373247 54 135 64
-0.052620205426334 0.022104406886681 0.173640260728146 54 143 56
-0.034884135426267 -0.013378390674012 0.117995089607353 36 92 38
-0.029066998535536 0.015531818298777 0.099254107466251 33 80 36
-0.050578129277758 0.012433859031202 0.170918969368313 89 196 90
-0.034021968974063 -0.024525042901797 0.118097995182666 50 128 49
-0.034166092338495 -0.006003066565099 0.117596406633496 60 162 65
-0.031102428584777 -0.002957830669598 0.109571810133570 60 153 77
-0.057406335122343 -0.001602623398889 0.197333150199369 77 196 91
-0.051587135613663 -0.025347260172023 0.179524040835566 76 171 75
-0.027485151221853 0.011763477555935 0.098377174014650 75 157 70
-0.045001181800562 -0.037514932540908 0.161828304493453 74 167 71
-0.027101202667743 0.014211951951048 0.098689299415678 66 140 70
-0.054505814841654 0.008532764926211 0.193758527792779 64 176 74
-0.053382960183776 0.004067382872261 0.192855302594492 68 164 71
-0.044479270848726 -0.025520549360774 0.164639546456287 91 207 86
-0.039215221374293 -0.033327512760561 0.148616924491671 81 167 79
-0.037158510545202 0.017202336264245 0.141105544330288 58 136 67
-0.046289779287137 -0.024267957191327 0.175954814145138 71 169 68
-0.045474759683061 0.002642356370432 0.172140330395980 38 95 39
-0.035505514020403 -0.028686036181800 0.137709580582124 71 182 78
-0.044545266893207 0.009776808692676 0.169633735647750 68 168 69
-0.045213337707227 0.003904970590261 0.172669646732284 80 162 80
-0.039229839957681 -0.006580432142418 0.151971069823982 78 188 83
-0.038425944408062 -0.010583504350221 0.151716297824527 93 193 92
-0.029241753643252 0.007254924611641 0.117952474418094 67 148 68
-0.028575926752238 -0.001660681642721 0.115855725278323 60 145 67
-0.032419036717754 0.000078043553099 0.130568517882195 87 191 86
-0.041982207856524 0.024544660278473 0.169009387055589 79 182 81
-0.042088224906508 0.025419672106473 0.169490781351973 28 72 27
-0.041236258530316 0.027906631388405 0.168697924848133 77 194 81
-0.034620758372928 0.002101780615631 0.142844626084607 59 137 63
-0.027565046467650 -0.003987652430870 0.115613413086584 12 29 19
-0.027131689453863 -0.003571910052378 0.115489049854737 51 130 55
-0.033950882025023 0.013438079713729 0.143154449891872 34 89 42
-0.042774120017679 -0.027560131357705 0.180193822410364 32 76 36
-0.043748156854406 -0.013465980160802 0.183249398223775 73 148 66
-0.041843761676602 0.032504680156179 0.177142851464320 60 159 64
-0.033001188312971 0.031880831516650 0.143445676728303 58 134 55
-0.037011000685463 -0.036413973456982 0.160966846071761 94 186 81
-0.041155955347885 -0.026840640283684 0.176964595760611 42 102 38
-0.040658790538635 -0.026364533179705 0.176585810574340 22 57 24
-0.034193868410825 0.017245251091663 0.149243857607350 54 143 63
-0.029458878242078 0.000864312416852 0.129675402122152 67 150 69
-0.032501302865782 0.008788865444777 0.142516583647026 65 164 79
-0.032075715625583 0.005692261490718 0.142052635979327 53 130 56
-0.039471951441958 0.029994642785912 0.175598804688425 75 188 80
-0.030900609844009 0.028780641402883 0.142688205907060 62 161 72
-0.042448432796642 -0.041627527150793 0.194934293685701 67 180 67
-0.035275398784477 -0.020165462042589 0.161725516440452 46 102 42
-0.021904561469216 0.000174432050903 0.102634347314724 75 166 71
-0.030699259850962 0.030956752662270 0.142757808107314 47 100 44
-0.034196474562737 -0.037239388583415 0.160234870872353 94 185 95
-0.036834833024235 0.005781732310570 0.170643225415712 29 75 34
-0.036940923635628 0.006213565761707 0.171124587543457 8 10 3
-0.030177727689977 0.030269802877793 0.142588358385376 45 113 46
-0.029491917867755 0.027894516111954 0.142263969316922 74 175 75
-0.038331593063091 -0.015429606976574 0.182350512305044 67 158 73
-0.038116288542072 -0.017660749224977 0.182466096731029 73 179 80
-0.036583517853350 0.026835338023263 0.176255191142573 44 104 48
-0.037229849262397 0.032914192086690 0.180797277177588 56 119 65
-0.032373268684868 -0.022699399089481 0.159064489855461 52 123 51
-0.038398669748054 0.019194332077595 0.188100471348320 65 164 73
-0.035189491312825 -0.003231561236209 0.174326067423983 41 81 36
-0.032958909765992 0.002410764968809 0.165612125420207 72 154 70
-0.033208086276775 0.007303217831011 0.166903600648171 23 68 27
-0.028433603389237 0.017085457250952 0.144361432707282 49 142 57
-0.028395983876278 0.019490803749319 0.144334401499720 21 52 23
-0.034561877667212 -0.003443932358579 0.174311900196172 57 117 64
-0.028036812791491 0.018790929398520 0.144200449097013 37 88 41
-0.033240569231119 -0.026263743185662 0.173947052741817 47 125 49
-0.033021611593123 0.011934324667926 0.172093767805266 50 129 50
-0.021503336947695 -0.004660557381685 0.115123296683512 69 151 65
-0.017260681260866 0.013934656444808 0.094001279252720 73 163 82
-0.017309846192173 0.015514631561032 0.094306167445753 65 164 75
-0.032807514034815 -0.028583549206506 0.174049647877841 74 176 73
-0.032513498883804 -0.021398355514032 0.172013050772613 74 168 78
-0.032093700128690 0.014623846710771 0.171683853074395 86 199 82
-0.031340773396217 -0.041032056121860 0.171087153968905 86 178 80
-0.033217589579851 -0.034342128377403 0.179884290685942 87 186 92
-0.031831400347793 0.013348353268523 0.171328177458847 34 87 36
-0.029393510711007 0.003968641443312 0.162494369632566 63 149 68
-0.019946466090421 -0.003551383555115 0.114775977119786 75 168 72
-0.028364895381331 0.005944783276198 0.162237685558559 83 186 89
-0.022046153036930 -0.025812040013647 0.131380887196162 67 141 65
-0.027721610971882 0.001591816311655 0.161843553789053 53 115 54
-0.028990447761517 -0.035656375722730 0.172004448203266 31 64 28
-0.017388107193094 -0.001193447814491 0.104977689431923 77 184 77
-0.027876362296512 0.011406096454193 0.164043431968250 72 178 74
-0.021543905680917 -0.027075121660270 0.132175331200574 50 109 42
-0.031638893819172 -0.014584681374487 0.190325809990374 71 159 68
-0.030428585352810 -0.021941107241912 0.187658696367992 31 62 31
-0.029693346165382 -0.014776703689642 0.189709865012426 76 170 74
-0.023545117750655 0.034822643565150 0.157341748814855 28 81 33
-0.019398359181068 -0.026630916339433 0.131434784169289 101 222 104
-0.028539565330375 -0.018136971805746 0.188398889319642 78 169 75
-0.014385359614457 0.004029780033445 0.098542530425098 68 111 67
-0.025973026743170 0.036855802008203 0.178106070304606 62 159 66
-0.023238000263952 -0.000782099643362 0.163196860240182 54 152 55
-0.015222627320811 0.004044586445995 0.112274261248925 49 118 60
-0.013773441846806 0.014115140539741 0.106940193290709 66 164 70
-0.023149884171877 0.040659392022815 0.179832209642284 66 155 67
-0.013265403978192 0.005294494665884 0.107626554461201 76 150 64
-0.022517923117650 0.038961900368265 0.179729908144109 60 157 64
-0.022975404809846 -0.038527650712528 0.184464962621511 45 102 44
-0.020732763298320 -0.021726864396211 0.169067284566048 93 231 105
-0.022232974208026 -0.020450973105586 0.180559862817417 75 167 72
-0.013613984672207 0.003001767642606 0.113271565669335 67 179 79
-0.021606502974203 -0.002878148452965 0.178494125919210 89 189 87
-0.022657162322990 -0.016841601078825 0.188986339468114 24 62 27
-0.022861743356876 -0.015820666496595 0.190566691121871 61 131 63
-0.012411538371102 0.005263317287234 0.106940303098067 99 184 87
-0.020802880031180 0.000423187976802 0.175535172469639 47 96 52
-0.018606611501989 0.020955117105963 0.163423382297599 47 135 53
-0.012438944667363 0.017443685473062 0.111842674674305 53 143 59
-0.012461427789666 0.019071060429883 0.112126179754135 62 110 65
-0.021151403816415 -0.017647759909154 0.189999582168970 70 168 77
-0.016143303206077 -0.027578192145510 0.150967624504831 105 231 104
-0.019525291947344 -0.040838108828801 0.183842051190957 95 181 94
-0.011364400580206 0.017967160367292 0.111778264936561 49 129 52
-0.019475424384796 -0.014331493319021 0.189429178642894 76 193 80
-0.018093224133498 0.038409573324575 0.178828013943349 50 130 58
-0.012929372894610 0.000587713066018 0.129753695553672 84 196 82
-0.010483753693790 0.005641568459708 0.106777199484412 69 159 64
-0.017747274556627 -0.025266028731340 0.180167449483868 44 100 43
-0.014911401341234 0.017754367888670 0.156125189594213 39 101 43
-0.017049359724470 0.035251326781780 0.178816782287332 55 125 58
-0.010400160526619 0.002881799645879 0.113647693901236 76 209 88
-0.015135739995821 -0.039061560030234 0.166125158624339 175 255 185
-0.014541282822047 -0.014071315530519 0.159905112608156 63 140 64
-0.015920750157693 -0.024168736985106 0.177090114806558 60 159 63
-0.010733928832536 0.028674308141771 0.126058737078748 59 133 61
-0.014061530718797 -0.038870945839369 0.165318367755406 144 255 137
-0.008702504079705 0.010956518259314 0.105501113857646 57 127 58
-0.013221778541076 -0.013734862528844 0.160437764962027 65 155 75
-0.008473231009264 0.006589919556725 0.105641827427843 61 143 65
-0.008072933687589 0.008577893161911 0.105417534326953 68 159 72
-0.011932029676183 0.031213925502354 0.153442812072324 51 137 60
-0.010817892004112 -0.002643955600318 0.140389705883646 5 19 7
-0.012322995821838 0.034240505565146 0.163222597955368 8 13 7
-0.009891469272761 0.003604728585720 0.137240160725134 76 166 65
-0.011365981213396 -0.010502201405203 0.159133157197340 88 191 94
-0.009996985325301 -0.001967755943330 0.140829447985257 45 163 58
-0.009393523078978 0.005108465441661 0.137301213507274 22 40 18
-0.007052472296445 0.008938768528479 0.105226303888018 66 142 63
-0.007993098236888 0.014298411979231 0.120358672384071 71 135 71
-0.010642371584872 -0.038220857003905 0.164927082097708 93 255 98
-0.010820275547430 -0.016365052811961 0.168586236797563 55 130 55
-0.007556512142087 0.013430270241549 0.120284162922181 44 121 50
-0.008279505147189 -0.002481977838093 0.140813781508588 96 215 96
-0.009395322923466 0.036808389278241 0.161000194143274 31 64 24
-0.007891657329171 0.000770267872007 0.137278422452371 67 166 78
-0.006829369136519 0.012416915438321 0.120187064195356 69 163 77
-0.008163369567131 0.028823284288363 0.146062947479316 65 153 73
-0.006434225120060 0.026392661887620 0.116894244890989 20 40 12
-0.009111026048669 -0.015859609069801 0.167645233711387 85 198 96
-0.008849627219739 -0.011451020175239 0.166473329285346 41 103 46
-0.007261727583531 -0.003175121899583 0.141053269323962 54 118 52
-0.006745900413186 0.011928189615028 0.131874883856346 41 108 48
-0.006694125649788 0.005095281894851 0.136809568213535 56 142 58
-0.006097063121776 0.010638513395855 0.131642381077804 57 138 65
-0.007334598208374 -0.037511191968587 0.166757185932493 65 229 79
-0.004288805861963 0.012722068458236 0.099981138306204 50 112 48
-0.005157916720174 0.007000196335191 0.131998974733078 72 173 80
-0.006389119668591 -0.013296168321778 0.166492474370853 101 207 102
-0.006482125412205 -0.007510305816124 0.173899114937841 54 129 54
-0.003626671053512 0.000063932406642 0.104244640223838 32 69 31
-0.003783499977866 0.023962702785260 0.109251958875709 70 144 63
-0.003982778647117 0.015127402462367 0.130726334225924 22 35 14
-0.004943776587002 -0.037434374660957 0.168057430981265 76 252 95
-0.004753815954885 -0.017623782060081 0.166846589691194 25 65 24
-0.004752776393047 -0.016182488404888 0.166737522440261 89 199 92
-0.002743513804036 0.023059854980718 0.109176984943728 57 133 63
-0.002386055770676 0.012599384347010 0.099918619512412 52 137 57
-0.003678590357134 -0.011778099800155 0.173562118076116 89 201 98
-0.003487870813614 -0.010566092544606 0.174643722789717 20 45 13
-0.002146518658626 0.001569673898760 0.117636466696475 44 118 40
-0.002167643706311 0.007847309534003 0.135492183102468 81 187 79
-0.001573431392668 0.021511456508055 0.109064644989435 45 106 42
-0.001837980030223 0.009989110713297 0.135591780047164 43 121 54
-0.001316564988410 0.011771765370061 0.099871541068384 80 172 77
-0.001407761593636 -0.001644106743265 0.115502303681643 59 147 64
-0.000854607308328 -0.037347353172629 0.168499666465327 90 255 98
-0.000440826075980 -0.000551472150197 0.117439107032236 72 153 65
-0.000016329799556 0.011254493539547 0.119952964626493 61 152 67
0.000400043425992 -0.005068910133065 0.114678161889325 66 138 61
0.000714692221819 -0.026454406961290 0.152284875015239 44 134 55
0.000638639252062 -0.018352656474212 0.135954948588527 63 144 63
0.000986260121296 -0.037103077080729 0.167463616769943 134 255 140
0.001009609781261 -0.037175734051176 0.171224659188290 69 223 90
0.000647905681265 0.005436459468709 0.110045458477356 73 163 79
0.002135135434281 -0.012790038315717 0.175522025592320 63 142 61
0.001435176120695 0.010123841591769 0.120174943419437 60 135 61
0.001404654178013 0.021510067262933 0.118431903164691 58 129 60
0.001153936554294 0.020088169351692 0.098356861026406 57 127 68
0.001687895095046 0.002134202238252 0.117532337634939 36 74 27
0.002664416820113 -0.036951335190406 0.170261078648625 81 255 88
0.001827704810925 0.000861170518168 0.117398873659101 70 138 62
0.001705508979447 0.004384376785954 0.110042680511507 107 196 94
0.002398209624762 0.021641091921026 0.118395923803146 23 61 22
0.002539270758231 0.000720115196902 0.117521730179220 49 111 51
0.002758371008761 0.012656093804608 0.120981058534773 22 52 19
0.002937927339884 0.012357879147637 0.122278231896325 12 27 10
0.004096206066320 0.009230152712849 0.152745304697880 33 65 29
0.004768095584031 -0.038588860263516 0.164712239541493 75 237 85
0.004713057401691 0.005928395909683 0.154357589530868 16 26 9
0.004650241361800 0.007721071949938 0.152449312736104 27 62 27
0.005616214907827 -0.008902080881331 0.175741821242035 36 95 47
0.003769877328194 0.009575338874681 0.120543771567630 87 202 92
0.005027775175835 0.006791895823239 0.152526831055506 55 149 57
0.003750835848155 0.013349718782727 0.115944965330373 48 121 53
0.004461193211623 0.022444670441462 0.132428838444201 55 137 63
0.005900227179827 -0.037028641907816 0.168043260058800 85 252 100
0.004719645007582 -0.012940686390968 0.134439208964333 46 103 44
0.003361168721055 0.020989729249139 0.098325777611160 88 195 94
0.006308347665227 -0.035175586586438 0.167801873314762 119 248 117
0.006539448958095 -0.013518635612722 0.166700278572053 55 122 54
0.005147914199404 0.015021101775996 0.116096364873367 80 182 87
0.007146688067757 -0.028063170016192 0.151287354232606 79 183 76
0.008561174936691 -0.002645533698093 0.178091690861053 56 134 54
0.007873520338020 -0.038318924433566 0.162916571612002 109 255 123
0.005891412790152 -0.006042522157176 0.122095054136256 74 153 78
0.009001240661631 0.001539844649460 0.178097990901740 39 105 41
0.006849424987826 -0.010827324689294 0.134478602224799 55 132 59
0.008683580185153 -0.038606365469813 0.163316538815100 91 255 103
0.010301828506842 0.028761780009128 0.179258435507328 21 42 16
0.007763310828369 0.027338565370219 0.137241299919684 65 153 70
0.009681208416703 -0.036416701225528 0.166360520890315 84 253 102
0.010990704960635 -0.006397289920251 0.178290767003542 43 100 45
0.010376255827268 0.008229077779651 0.162661011334219 38 91 35
0.011652774470403 0.001097375467660 0.178284613390202 54 126 58
0.006466223753404 -0.007082388368854 0.100738915827586 96 190 101
0.007854869039927 0.014314268968244 0.114978178911520 57 137 54
0.012766331805707 -0.003315628219490 0.178475319201827 45 125 56
0.010839872002401 -0.008312550650879 0.143476328185542 93 195 107
0.010238010934158 0.026321158592646 0.137093223322629 61 158 64
0.013344151840146 -0.035867325275806 0.166669598778594 52 158 63
0.012069824802125 -0.008666496627613 0.143574231825486 36 77 37
0.015204159248826 -0.005529397078125 0.178723429507444 59 126 59
0.007718229007976 0.016107774761670 0.093581197748107 93 190 94
0.013493984348537 0.035877940202193 0.159610550172519 58 129 59
0.011489736476150 0.001564373424022 0.133302471859530 79 158 72
0.014221936773126 0.002637256776438 0.163174012509453 35 79 29
0.009734321725682 0.013826438205082 0.114427202651386 90 199 94
0.011989854449676 -0.001186782556119 0.133463812748212 88 197 99
0.011780000445502 0.009056525579925 0.129766829925601 40 109 40
0.015659475206105 -0.035867815112015 0.167635084787284 97 229 103
0.016207002451485 -0.033302318696847 0.168733386164965 48 121 53
0.015641139578714 0.008154292574727 0.157756543386528 46 113 50
0.013518178000746 0.027248305540155 0.138613530271045 65 159 76
0.013025417988273 -0.004742133220128 0.129589682600191 81 194 85
0.016402960509745 0.007459487925702 0.159445900758626 28 64 32
0.010792723471078 0.017497368366557 0.106755256169350 73 164 81
0.014077651754674 0.030506403713001 0.137977600654893 78 170 82
0.010660338739241 -0.005248676745158 0.104013846650714 104 226 107
0.013951352372771 -0.002973622107864 0.133690687669467 64 138 57
0.014118108733977 -0.008975874204752 0.133862631597669 75 172 75
0.019202127370850 -0.030372909851382 0.174861113238904 43 118 50
0.014647472673395 0.008445754970352 0.130176850132855 67 162 66
0.012922698076541 0.010431702721630 0.114661769808275 78 179 79
0.019812148706541 -0.036791191966247 0.171888640198205 81 222 82
0.019155529565512 0.002038462135840 0.164388484473476 15 24 12
0.019511657570575 0.000830888746731 0.165640976502224 23 41 18
0.016436741431903 0.000098019075751 0.135437797816909 82 194 96
0.016437518795781 0.004365777800210 0.135480752428220 81 184 82
0.012065494556461 0.013020829795433 0.099818305600894 73 151 73
0.015731954982569 0.029050690140827 0.127889846731658 64 146 65
0.022485120800361 -0.036792990338065 0.174778381372564 75 223 83
0.017804233184904 0.007501434860203 0.135989044449834 64 139 71
0.026526891081208 -0.013235252853950 0.193875175985020 82 174 86
0.020003833110213 0.003302836206589 0.147901731563201 56 131 56
0.018463979900385 0.011382610436051 0.137309529300098 84 172 83
0.017321425278853 0.016456650669308 0.129533190214674 65 150 68
0.013140398324184 0.014794300104653 0.099995008850611 89 195 95
0.013138643080809 0.016910251978681 0.100077870357575 94 189 81
0.020189579371533 0.000781406708972 0.147928803831684 68 159 73
0.018455849277160 0.005852338332822 0.135930793915614 76 170 78
0.018604543321862 -0.018996877563713 0.136392495356041 103 214 96
0.020580547467796 0.030070408319865 0.148569687170148 67 145 70
0.025050423822983 -0.035734793889322 0.177758774763481 73 157 77
0.019126050811620 0.006347844476104 0.136054548474241 15 35 13
0.019307761906084 0.006846801547348 0.136188691834957 11 25 14
0.021700073273025 0.025541842690120 0.150818636323148 34 100 42
0.022220628156891 0.002402889891933 0.148375983144653 54 144 64
0.022858266234896 -0.012567680202587 0.150365433309929 45 80 35
0.020854823893478 0.013739957155972 0.137946246226015 26 49 25
0.024534506294006 -0.005623660712944 0.159420594757826 74 164 71
0.020929094570033 0.014508884924403 0.137422019530506 74 130 74
0.023612245409485 -0.012764465045917 0.150563188241117 60 117 57
0.021487333660212 0.012885822930247 0.137739024987844 74 176 78
0.023604563625751 0.025987722557566 0.151475933836615 53 133 60
0.029175567671204 -0.000253163623652 0.178754269575252 74 151 70
0.026152422952422 -0.005836145865092 0.159897952674821 43 95 37
0.029493749406337 -0.002238612170225 0.179350847441636 52 131 53
0.029728273331822 -0.007531398918511 0.179518718283024 38 99 43
0.021421451346481 -0.019143148088341 0.127606900538002 90 181 84
0.025653243153520 0.028392229464738 0.152060247123702 62 144 58
0.028513081648147 -0.037681145283907 0.167749940027041 114 255 121
0.023127687454355 0.013834488393016 0.135936501241882 88 195 87
0.021899990752913 0.019464280149676 0.129439300879926 76 162 73
0.029603111432612 -0.036358856608182 0.172470497774592 106 255 113
0.024690875417109 0.032845273828293 0.145232979534164 60 139 63
0.026219556570301 0.024203158440917 0.151810372114571 24 56 23
0.020042001330381 0.009582327010865 0.114831758862979 85 171 76
0.022733792219265 0.019510503979094 0.129805946378792 49 79 37
0.026926153880627 -0.014795898313197 0.151024009834991 77 154 60
0.027920654643260 0.025523683746955 0.152330474336153 70 156 69
0.026509368451695 0.025990356118694 0.144203253014245 58 133 71
0.032507244594977 -0.036164416347315 0.173678002495173 82 231 97
0.031535662880489 -0.037468996657299 0.167948958920701 147 255 155
0.024453884611435 0.019010356615328 0.130713376532689 74 171 78
0.024267357576009 -0.020739327024746 0.129132639308788 70 168 78
0.021877594235894 0.009325982046008 0.115195714320126 85 184 90
0.032083689983556 -0.038771951981469 0.166917585533695 106 255 116
0.025035853793790 -0.010389793255443 0.128607534342667 84 179 85
0.024576504166583 0.027166533556277 0.127457041607110 66 156 75
0.025193859383818 -0.011781079751463 0.128691543304534 73 171 77
0.024757440261585 0.026593155577099 0.127558089048076 69 144 65
0.035529353086472 -0.001129704050287 0.177287408753479 67 164 64
0.025165452602195 0.005851917307261 0.126209686019994 79 167 75
0.034369895329754 -0.037131714137983 0.170989457471198 125 255 140
0.026137812899331 -0.022593852833778 0.130208855907999 93 212 96
0.034052657099796 -0.038902258880553 0.166078019525444 108 255 128
0.040322663354982 -0.018519872655730 0.193012804875752 27 29 17
0.027742311460472 -0.019824367141451 0.133120190788642 74 159 67
0.036184084489899 0.001000444887292 0.168875015451527 68 162 73
0.024442685746364 0.008115054359559 0.115740859562915 96 203 90
0.026836605164980 0.025031286519376 0.127386774802416 57 137 60
0.035571808912757 -0.039221887503831 0.165967409426611 114 255 118
0.029743756441221 -0.017101843176238 0.137609332245208 65 148 64
0.037200171691177 -0.037498344353581 0.171130670184912 104 255 90
0.037489743948640 -0.036549211488384 0.172273890552483 71 204 75
0.037577728125796 -0.033304294913929 0.172297933587575 93 197 92
0.038044416379443 -0.002295740687913 0.169133241184992 55 142 64
0.038530220682506 0.003500205302765 0.171239044612390 74 169 74
0.029994549371084 -0.020800115960987 0.133486502685612 85 187 91
0.039176576447315 0.000582792010213 0.171377572180995 54 124 56
0.023441842080516 0.004881239886127 0.105186037610352 76 170 82
0.030314519731954 -0.018188325668410 0.133996507316837 38 95 41
0.025394580701535 0.024213048348860 0.113750480671934 70 132 70
0.023701866211844 0.004137872275724 0.105240000858248 97 195 85
0.031639724208179 -0.025269818641245 0.138711339027195 66 165 70
0.023968576874623 0.007245542137948 0.105376571828531 40 107 40
0.046019044751501 -0.010331822548485 0.194492455692996 17 32 13
0.040249073242122 -0.036012669118996 0.171996047604366 65 199 78
0.046236592775136 -0.012703327883591 0.194519418189733 47 127 53
0.026649505124885 -0.001195331152063 0.112590007263027 68 155 72
0.041558490496583 0.024357468836816 0.173077211954869 25 59 25
0.041590686022894 0.024793234465357 0.173241819609806 24 26 13
0.040853303206142 -0.037696730389687 0.169862364004577 109 255 126
0.042558965076902 0.002057009528488 0.174397007797197 53 143 64
0.028788634485016 0.023223277197833 0.120888126022748 59 135 63
0.036378383723017 -0.003938620998162 0.149303805084980 71 159 72
0.024554812239304 -0.012716148328684 0.102641668703822 64 165 73
0.029816990884533 0.013571359776047 0.123234362009625 55 124 55
0.025659790392805 0.003772732568294 0.105714876860399 82 193 78
0.023463855109729 0.009062736020069 0.097270622214105 72 164 82
0.041142750434037 -0.037231986129540 0.167154446753289 165 255 161
0.033302595740356 -0.020665799669549 0.134854209138915 71 160 78
0.025342621226215 0.018342951705221 0.103542134043050 74 159 75
0.049040769937359 -0.014458036510190 0.193102043204201 43 120 48
0.041643899899444 -0.038776696566578 0.164899101107646 155 255 158
0.043648904291205 -0.035142951308693 0.171214254910498 95 230 102
0.031353106394704 0.015354615326602 0.123721313560073 100 192 89
0.049863391953075 -0.012490201766466 0.191899979190672 66 158 64
0.039963862349621 0.034464099219147 0.156920287928002 39 103 46
0.044898655253459 -0.036191222344146 0.171574443388116 92 255 102
0.033988583372788 0.002234689473750 0.129270110765557 69 153 68
0.029704303438290 -0.016218408260575 0.113720801991950 100 224 106
0.025541943384240 0.009904493822103 0.097900311469451 93 197 98
0.041527270735464 0.035074420665019 0.157436230757488 93 182 91
0.051518724819396 -0.013313061545323 0.190671203274820 69 141 63
0.047160920247156 0.025887427936457 0.174574779319727 26 57 25
0.048141410082660 0.030418854669899 0.177037393475330 73 153 71
0.043788920503633 -0.036995970543659 0.160360886815565 123 255 125
0.047159115601265 -0.036202938758976 0.171917529973939 61 197 71
0.042490867858095 -0.013494868136233 0.152113795319549 99 212 101
0.048431270405480 -0.036445164118526 0.172269410944092 77 192 76
0.049878856262317 0.026081037978759 0.174982058822934 91 177 88
0.032015486035634 0.023419765148423 0.114408460023983 72 141 70
0.048796066585928 -0.004766539364734 0.169511203043674 95 185 81
0.037296261468275 0.005199929494762 0.130906547811086 81 193 87
0.046628672680157 0.036750328040144 0.164523122632883 65 144 71
0.038199698900488 0.012594008131637 0.133654913669950 52 127 56
0.037866359892415 0.012802081424339 0.132547110955696 25 65 28
0.050109339765549 0.021190356089442 0.174028428468618 83 180 82
0.056309919509672 -0.011567092093565 0.192656740292058 80 169 76
0.051814493975813 0.025465058310187 0.176698391912996 66 151 65
0.053360040249015 -0.008142594468144 0.180042986308100 82 194 73
0.028903288971323 -0.019633406188324 0.100267139862249 95 195 88
0.043076922575383 0.005056216405760 0.145837683084002 68 155 66
0.043266225948827 0.003663966949436 0.145888598539460 34 90 33
0.053346474265335 0.032759395349477 0.180410888496715 65 146 71
0.053403454627260 0.029667382289003 0.179619590477294 28 58 27
0.029283248246643 -0.018137194045253 0.100298685307796 112 229 114
0.053059099745706 0.017991572281708 0.175641370497428 100 197 100
0.048858364482370 -0.035230029971971 0.162983300715927 94 252 102
0.048047725279586 0.012665029138897 0.158744810096183 106 210 101
0.053389972603042 -0.018805844041737 0.173476660762972 38 83 40
0.061038372472468 -0.011787853051667 0.196459378578108 48 126 52
0.054261040333321 -0.019106807647068 0.174367564224459 64 149 67
0.050392677458091 -0.037453019851042 0.162330440293805 136 255 143
0.050404560049603 -0.035156435083241 0.162102219550222 101 255 110
0.050474910673421 0.015791388034851 0.160268775089786 93 195 92
0.042418448493098 -0.002666884398473 0.134193792973151 79 174 72
0.057702182742406 0.028153237722470 0.180237880800058 74 151 73
0.058074265249766 0.037376610552417 0.182336790824580 62 138 70
0.052953862459550 -0.010736876380932 0.162522667122462 87 199 93
0.052239541690201 -0.035972607904688 0.159641365084645 91 255 101
0.059436120758191 0.011149839835351 0.178311622200649 91 180 88
0.038379037000460 0.009825896383551 0.116790400771304 68 152 73
0.061852269774168 -0.029701537818766 0.183996478083596 83 159 82
0.045383865428288 -0.003015649882775 0.135323526046665 79 153 75
0.060202809472202 -0.036225913891759 0.179349843069979 56 119 49
0.041356516970813 -0.024201360769415 0.124320328517395 114 189 107
0.039883755690250 0.014214437365417 0.119391749041157 79 156 83
0.039572728334592 0.010256147287892 0.117206522947114 99 191 96
