ply
format ascii 1.0
element vertex 428
property double x
property double y
property double z
property uchar red
property uchar green
property uchar blue
end_header
-0.046765790586754 0.011547000465701 0.135877099695731 64 144 67
-0.058139281061408 0.021307522265961 0.170436325466110 69 191 80
-0.054244139664262 -0.028303229019812 0.160338957743369 75 175 70
-0.063565203231474 0.031533453320466 0.187283283895759 82 203 83
-0.045047497533756 -0.026622529826403 0.134537581779613 70 174 74
-0.033506397215658 0.002385123205326 0.100722264212570 62 157 62
-0.053457102614185 -0.025440307436006 0.159883094919484 73 168 75
-0.032821870780364 0.008896527662854 0.100136823134740 41 99 36
-0.032674585319807 0.009819662763425 0.100058830241913 58 132 59
-0.051761501739492 0.001069725105630 0.157050897950065 71 160 74
-0.061338005645017 0.031984438283894 0.186891799222647 85 194 81
-0.062940166680693 0.027326650202962 0.192411492760920 64 154 74
-0.031540775815450 -0.017824848364978 0.099498965358280 65 152 70
-0.031910463039721 0.002494668313620 0.100049133075297 59 124 55
-0.031689588713390 0.009923806084506 0.099829700754100 67 143 67
-0.060673998189924 0.036461032698337 0.188504442203606 70 172 81
-0.031582960404695 0.009578631021353 0.099841745557261 53 118 54
-0.058422071055804 -0.022800443026859 0.182145767727840 74 166 68
-0.053775689646667 0.013070645311049 0.169445431761723 74 162 69
-0.035574460647170 -0.009193990125766 0.116219731109779 42 102 41
-0.059305672111214 0.030223490738188 0.191450481887547 50 117 52
-0.052251264920012 0.013455641335421 0.168895539552663 58 153 61
-0.029735607696948 0.008859201371503 0.099374939621841 65 139 59
-0.054434779601289 -0.021922213188648 0.179882673542543 54 144 60
-0.058412067454728 0.025053074767285 0.192966259247816 70 169 76
-0.034262037330935 -0.006301509682780 0.115751658493249 63 146 62
-0.034691964909236 0.023981983693684 0.117957545342553 47 104 48
-0.034094672775225 -0.011342106862852 0.115796189867434 57 129 59
-0.053332425073908 -0.026228555218200 0.179937241582640 65 157 65
-0.057017988768820 -0.002006794735058 0.191637915977372 66 166 71
-0.045802587351809 0.024754090409706 0.156698924519565 66 170 68
-0.033385045590509 -0.006151530980125 0.115476169472402 46 115 47
-0.045412975633691 0.026607304571247 0.156751472417866 74 183 82
-0.036605454828588 -0.026779586038953 0.128172239435469 50 133 57
-0.033322069696977 0.023487629157148 0.117376929341833 53 114 51
-0.032973108587223 0.021655763314395 0.116971510767601 74 174 72
-0.038707486002113 0.019158754931606 0.136604159167886 58 134 58
-0.044718864483715 -0.037113701591903 0.160204932903546 52 123 45
-0.051471985754114 0.007327063925228 0.181117921975372 44 88 35
-0.050072825315362 -0.026733426811983 0.178675593527933 33 96 40
-0.045421844464915 -0.023903811081094 0.163204253821436 33 50 15
-0.049994593695772 0.010229140173296 0.178277435610017 49 127 55
-0.051833519177335 0.002794587110568 0.185166075549609 56 146 60
-0.031367661908901 0.022806662003174 0.115189863001362 53 132 57
-0.048820610409524 -0.003052127021367 0.175430530748492 46 117 49
-0.040559332316652 -0.034131691199386 0.149243179158987 76 155 65
-0.050107435172456 0.003240669170701 0.184366683105277 42 102 41
-0.044893828550144 0.010150073837348 0.165986651158733 72 173 75
-0.047369391024400 0.008189696021422 0.175455217683064 70 157 72
-0.046369727131188 -0.007860795743481 0.173984512256433 72 176 83
-0.024759434018596 0.012762779083209 0.096297860690828 59 141 56
-0.024630333663527 0.013764194396120 0.096263471184132 66 149 62
-0.032614240145973 -0.026440838298424 0.126932127783685 48 130 53
-0.045558464090392 -0.002373297828476 0.173162034886097 69 154 68
-0.039610572816554 -0.008964095911472 0.152130210983828 72 167 68
-0.042730710693043 0.010227441778817 0.163695126808319 42 101 44
-0.034939275946045 0.015526568790270 0.135237139288071 51 131 58
-0.024201712935047 0.014720721990687 0.095939571889218 45 123 53
-0.044376600194947 0.000356014792063 0.171762950652999 65 157 65
-0.046335232459125 0.004335776019429 0.182286334849551 21 46 20
-0.023310614430539 0.015770744206475 0.095529560165259 69 177 77
-0.042000415324927 -0.026529617548959 0.169089610227731 61 143 58
-0.033240813017244 0.013245817970405 0.134621984657399 56 111 55
-0.033218173549452 0.016928281003028 0.134726335486061 71 156 65
-0.042997356012248 -0.013047024811402 0.172868093206996 64 114 58
-0.042481219552536 -0.006532781019141 0.172247076641038 17 52 26
-0.027726111186044 0.008420555161922 0.114737248931950 62 143 61
-0.033298312412456 0.003345187193995 0.137018196666901 53 118 53
-0.040200315318008 0.007715762620099 0.164169557990314 51 124 54
-0.037944164104748 -0.036029752455918 0.158003745337994 80 172 72
-0.043336657985374 0.011764969974049 0.177421900056787 21 47 17
-0.040380364433670 -0.025048643882946 0.167240366376084 54 139 54
-0.030008276330862 -0.000056106376302 0.126413655903541 49 121 51
-0.042624476502869 0.000148063247864 0.177640912410074 33 83 36
-0.046553540503823 -0.014679132854998 0.195520610453619 41 93 42
-0.025419980234919 -0.003053575245558 0.112290422788724 48 114 48
-0.035700311318281 -0.037188024671162 0.158716034503746 57 111 57
-0.036096984124561 -0.018507975072539 0.159475564275855 62 141 64
-0.030837219856147 0.030103353529945 0.138336477073729 61 138 61
-0.041225849495802 -0.014467498139278 0.181756171987451 53 138 58
-0.039960897493206 0.007234828083326 0.176226792427745 13 27 13
-0.040652078583058 -0.017413538328423 0.180367851067734 71 146 74
-0.030394001399859 0.027199367752741 0.138221782651198 61 154 72
-0.041910426315492 -0.041323460300422 0.193549846982934 57 165 65
-0.034438494782102 -0.020362231098021 0.158905387221998 48 106 47
-0.032671158025927 0.001687916271814 0.152881576376576 63 140 65
-0.036827232130279 0.029124161959934 0.173828008760455 78 162 75
-0.036924035467929 0.024220746825144 0.175686772998335 56 144 74
-0.036230048294251 -0.002349138070730 0.172434649833067 74 154 73
-0.036309156063405 -0.025228085375906 0.175635882187046 17 30 14
-0.035880167830597 0.008599214337382 0.172861445349657 43 90 34
-0.040547132358292 0.020967693487998 0.196112977360255 62 159 67
-0.035759467938210 -0.028332501697409 0.175271836095685 64 151 67
-0.033422579960142 0.005948422299886 0.163229666219762 73 155 69
-0.034881856620656 -0.003597205299051 0.171893500753251 73 153 66
-0.033058588562594 0.007941212010125 0.163396197067041 38 79 40
-0.038029345049864 0.026204394907519 0.187941706583501 38 90 45
-0.034940402012581 -0.024791763177669 0.174051770907400 51 131 51
-0.034404121504068 0.030732668785489 0.172227191708818 82 182 80
-0.034601743226532 -0.021322052466086 0.173175204627252 69 153 72
-0.034469690720502 0.013179782766691 0.172200871802665 53 113 53
-0.039268675833536 0.024271566026178 0.195829657353895 64 141 66
-0.030417059803722 0.033849010767598 0.155373440255552 62 161 72
-0.029572425585584 0.000953425179667 0.151923439860716 62 137 67
-0.036103845039323 -0.036169852920163 0.186885272820654 106 193 101
-0.032968076559856 -0.041746248657227 0.173227963772286 64 139 66
-0.021841583196903 -0.003877497296014 0.116119702030722 67 162 60
-0.030387627009487 0.003702609171564 0.159673436571878 68 135 67
-0.032376922505533 0.014327609787420 0.173116395612575 40 107 41
-0.029852276169080 0.006669373220240 0.160905435176690 76 179 85
-0.020411540671089 -0.008152922787607 0.115903530447267 59 129 60
-0.020128737321742 -0.004970479191975 0.115779664343875 70 161 77
-0.028522102470532 -0.000978768088409 0.161958409775517 79 166 81
-0.031308961543993 0.029876958345088 0.178608603665847 64 150 65
-0.030942235027529 -0.023113315790882 0.178169852441840 50 104 50
-0.032223158368769 -0.015814346281597 0.188501132880582 65 143 66
-0.029159318180805 0.011703778885456 0.171252604996892 52 134 53
-0.026392897013087 0.036282371285354 0.159891662220097 33 82 36
-0.021140507323414 -0.026865785731826 0.129850591129252 53 136 58
-0.030840855195644 -0.021446740080247 0.187391689801525 65 154 64
-0.026515223794429 0.000606872991579 0.161616397449518 70 166 70
-0.031013611107115 -0.018004424776843 0.189522047658253 62 140 60
-0.014981113458134 0.014181851593488 0.095456487249225 77 153 71
-0.028967345887581 0.038819564118550 0.183502865775372 62 159 65
-0.014959835490895 -0.001908484867148 0.103723270415610 85 171 90
-0.023885743262380 0.000415304789740 0.161014593274780 58 156 60
-0.018402921791458 0.009959698660152 0.125985303460821 61 132 57
-0.013387614833541 0.012937710580226 0.095236632288357 66 147 78
-0.019417342957931 0.004122600130293 0.138787315342406 51 99 51
-0.023379829863565 -0.021483227723297 0.168943363074840 93 199 102
-0.021682239278694 0.034232585762084 0.158647588801658 61 159 68
-0.024016009721716 -0.019571594000224 0.180689080108903 50 120 47
-0.025045779959509 -0.016493282449005 0.187897217944549 22 45 23
-0.023696979283149 -0.003523931354820 0.177864461524851 62 150 71
-0.022704307028044 0.002342599821788 0.173788385680670 63 166 69
-0.022353862046788 -0.037843968193400 0.181353282452085 41 110 45
-0.018214132997634 -0.025848591262249 0.148585849037724 97 199 94
-0.022142164174371 -0.000672820650371 0.177580275353071 70 155 58
-0.022740505921369 -0.014641350077232 0.187722212324626 30 70 30
-0.013515065470234 0.003995711864599 0.114636527937563 49 85 48
-0.022521479874045 -0.015345445457387 0.187836806587058 11 22 10
-0.020704880891703 -0.025915062891495 0.177478015406990 80 190 82
-0.019217231387415 -0.016735836889302 0.164794623357467 61 160 66
-0.012866486847661 0.018600787728333 0.113232547903709 29 60 26
-0.020141335759479 -0.000223838970696 0.175385758349152 73 160 75
-0.020388426112738 -0.040545341741215 0.181737148492197 77 166 95
-0.013916985898048 0.027644763535443 0.127491210820950 47 110 51
-0.012394525906408 0.004128635797274 0.114431271250240 64 153 73
-0.013453648475152 0.029000573477862 0.127554967800047 58 144 61
-0.019033471555153 -0.024915453569036 0.177901379161533 69 170 68
-0.020176717446735 -0.014393519004476 0.187403255373600 49 106 48
-0.011883735027724 0.015908000404129 0.113924120824797 28 74 29
-0.011863128385970 0.003037760019212 0.114566042003591 72 169 75
-0.018578185591517 -0.025191563880489 0.179712585099572 18 47 17
-0.016743958387743 -0.012609108344146 0.165879463770990 70 157 68
-0.010814011905175 0.004102816820255 0.109866356198518 74 176 89
-0.016159418088108 -0.038813835135658 0.164411715638672 169 255 188
-0.010049002326969 0.015594182540684 0.106578438248610 60 159 68
-0.010517471177588 0.017447361377321 0.112587299196367 30 70 30
-0.013384334846488 -0.002512723060942 0.142165531402458 39 95 43
-0.012886056875151 -0.000955891654031 0.142366516980585 68 153 75
-0.013122165787619 0.031183939076475 0.148404079398838 21 45 17
-0.014468260882038 -0.008384879973670 0.163098113311720 74 165 68
-0.012941004754110 0.030109081632627 0.148263681935684 53 136 61
-0.009388678863671 0.004613386223128 0.116138243043949 41 94 34
-0.008753082649728 0.004977620480818 0.108834349466335 67 150 70
-0.013333699464501 -0.015933678115408 0.166501637437355 79 171 79
-0.010955923712131 -0.003029884096490 0.142078503394294 62 173 71
-0.010964501491963 -0.000605947781871 0.142170914097990 79 194 86
-0.008968137923573 0.001991080578167 0.117793434732068 80 182 87
-0.012230787741622 -0.009725858193955 0.165192064017240 81 181 91
-0.012088025025091 -0.015090557764359 0.166178251882058 59 114 57
-0.010405910139958 0.030933700594477 0.147933873374508 45 113 47
-0.012990240327206 -0.031634099693522 0.184966250774612 76 181 75
-0.006249977500183 0.010006231236126 0.092696998778787 37 93 37
-0.011052574129070 -0.038055110840320 0.165057325959180 71 230 90
-0.005808017594071 0.010977838509239 0.092656444944197 76 165 80
-0.009022347878367 -0.003191382597748 0.141649522525099 61 131 68
-0.009267660325526 0.028247422529772 0.146670948836768 44 115 48
-0.006520757716947 0.004839421828717 0.108552070347472 84 160 83
-0.005672430726960 0.006181991672719 0.099152368754447 70 162 84
-0.004928493925701 0.009558322483795 0.092542392412103 80 173 79
-0.008589219719640 -0.037884110907352 0.167515983989305 62 202 74
-0.009487947468074 -0.013394486704540 0.186111145433053 79 154 82
-0.009501303566851 -0.008332891497646 0.186207911513768 45 128 49
-0.006728207948923 0.023903362575327 0.135284399140171 42 105 45
-0.006764318487952 0.000264798619482 0.141413515004640 50 114 48
-0.004492539954444 0.007120340156589 0.099147494491609 60 142 69
-0.008365649753901 -0.021699576700301 0.192180340623496 72 146 74
-0.006595480863144 -0.037521472452524 0.168452591514116 80 236 98
-0.007597656851821 -0.017757330123426 0.190644753438344 84 199 94
-0.007493577762786 -0.015677408812234 0.193794630724284 100 195 99
-0.006687588273469 -0.011027061090720 0.185055432666480 59 156 68
-0.003687379357312 -0.000320654747125 0.105845546047134 57 143 62
-0.004571789199670 -0.027169548732744 0.144187678926283 86 189 91
-0.005538800576745 0.000440773236235 0.177826960124631 8 20 5
-0.003559717604339 0.012492872402115 0.122179885772685 53 89 52
-0.003578226273060 0.010271744144559 0.132969966283706 43 106 49
-0.002208921875957 0.019755315221386 0.097874096340002 50 118 47
-0.002889099041310 0.007334762719272 0.138211547038381 80 175 81
-0.002753914394183 -0.021036937729494 0.140417043912931 89 192 90
-0.001858660600314 0.020641598747766 0.097775369587516 60 129 59
-0.001210564254573 0.014444998669807 0.092654141924908 52 129 58
-0.002088911340813 -0.037605227162562 0.168749834849181 98 255 111
-0.001973063396071 0.000052021413326 0.157992873552764 80 188 87
-0.002071093374678 -0.013802754746076 0.182589081317085 80 173 82
-0.001448592628580 -0.022032426012700 0.164918110728162 57 133 57
-0.000734406254520 0.009916005519350 0.101280874404525 58 150 69
-0.000554481675794 0.012060640462900 0.092603683135680 53 113 53
-0.000944937058868 -0.013865115612676 0.183345403618539 22 51 23
-0.000582044758739 0.009313864085352 0.151059226360373 65 151 70
-0.000226318217980 0.014337764848539 0.092655844643366 75 163 79
-0.000033782817308 -0.037425137841588 0.168828798305611 118 255 126
0.000283430076729 -0.003761981254348 0.124116485515619 54 134 61
0.000557857397430 0.002588059235157 0.158793003019592 48 110 48
0.001085741637966 0.007468441202074 0.151057942851823 63 159 68
0.001629773985770 -0.037027949455607 0.170586586067740 82 226 84
0.001286499799315 0.020477446275251 0.120466833156888 61 133 65
0.001428995978959 0.023323913528430 0.120516507741976 25 62 24
0.002140385844984 0.010285962894860 0.160338538631133 15 18 6
0.001652873973199 0.008913791754025 0.125336394370780 48 130 56
0.001575154597720 0.023635145891161 0.120655699017193 53 120 57
0.003130524978078 -0.016851309001625 0.171076772356122 57 131 56
0.002252097960992 0.011142838977953 0.124987099596634 53 120 54
0.002117146099033 0.013320822447734 0.118024248722205 18 37 11
0.003128268205401 -0.008432527327534 0.160315057781518 60 122 58
0.003124024684545 0.005248466815950 0.151002202230505 61 132 57
0.003777621432303 -0.013104819591984 0.171524369225434 53 122 58
0.003679939501063 0.006912478456768 0.151049437459117 73 166 82
0.003012629472043 0.009949194783037 0.125098220079343 66 141 68
0.002348488003083 0.021644078555392 0.099680612188646 63 146 64
0.004877516831090 -0.037236062371852 0.168061608268975 82 243 91
0.003859471253033 0.023797137074964 0.133788697948531 30 77 34
0.003588174540831 0.000436865017712 0.114945513265495 62 160 66
0.003784752696413 0.019800121643318 0.121527610162139 71 148 67
0.005375312254592 -0.038641594397534 0.164933057938363 91 255 95
0.005032197439164 -0.028416505952165 0.153939959728451 84 201 90
0.003859225167138 0.001401262444280 0.114782035568084 6 26 14
0.006071557875433 -0.012607029415149 0.170613696343150 53 133 59
0.005602428917309 -0.030902812263242 0.154410433802588 105 221 102
0.004248479609886 -0.002962017274065 0.117719730968640 53 123 55
0.005157279134147 -0.013571610435452 0.137245724101014 54 121 53
0.006930003819394 -0.010950433031674 0.170958358665840 26 57 28
0.004962675469339 0.009008273901409 0.124626771070448 73 158 66
0.006880143202239 -0.036589524265720 0.167033618199051 70 207 77
0.007238387759467 -0.007256910087656 0.173083354022397 26 80 24
0.007557406193118 -0.038933492833173 0.164589756944242 66 230 85
0.007666125590369 0.032861281656172 0.158426962884495 17 33 11
0.004707087864660 0.021057577383856 0.099667194954885 70 170 79
0.006613125469937 0.022040447098277 0.133782119633912 27 66 30
0.008678831830153 -0.036456609545399 0.166504693451798 85 248 99
0.007256182193899 -0.000223443234918 0.135683444459534 31 99 37
0.006509013892502 0.006523470940768 0.113002063699599 53 125 60
0.007294732400462 -0.007301119629859 0.123326711403843 73 176 79
0.009310611745314 0.027831728561905 0.140464301434819 50 128 55
0.011525538972577 -0.035272885548461 0.166599647873968 81 205 78
0.008493340646311 -0.006115103252194 0.123395993504790 94 184 86
0.007169535639794 0.008191680992463 0.103720014218536 77 177 86
0.007606234535840 -0.006301979973270 0.101489217351142 54 139 57
0.010577279018965 0.003737105515571 0.135976095752155 45 96 43
0.013583957967836 -0.035152969366862 0.167022341268142 68 189 75
0.011405838530407 0.002084796203412 0.135995835729953 67 158 70
0.007607656141904 0.015997860627772 0.093572199137637 96 182 92
0.014637349233184 -0.032999262650037 0.167228050730934 57 142 55
0.012436682990152 0.029063749179868 0.143294973943787 64 143 66
0.012414294330342 -0.001387747582742 0.136183708650376 107 215 110
0.014631527901023 0.036105381937277 0.161455675971327 67 145 73
0.009308171175372 -0.006430530302901 0.101631976002126 104 192 86
0.012380018598369 -0.003638353742457 0.129380545325607 89 208 104
0.013565886952992 0.007791548798919 0.137844825219526 45 97 45
0.013707950124611 0.003069928834276 0.135954676515352 84 173 79
0.017082812217229 -0.028920567250273 0.166948505496185 54 131 57
0.010281806292508 -0.006555559287692 0.101715002687705 31 61 32
0.014082727835614 0.002250371148843 0.136364114601754 23 41 18
0.011072022299074 0.013405715123631 0.109118752244819 63 145 61
0.011070127893570 0.016903660155160 0.109271878125295 72 161 75
0.013727732290808 -0.004243996557107 0.128881925430227 84 196 86
0.018627554197806 -0.036717193429851 0.170614310171802 87 238 91
0.017277816106077 0.000426202991575 0.149009862416961 60 143 65
0.012386707898310 0.015102751529666 0.109333581219462 68 148 63
0.019286259699172 -0.036497213771972 0.158328922973690 96 243 102
0.016913594556464 0.006947802230984 0.137944931977094 52 129 55
0.021568750838290 -0.036675898976850 0.174200419161856 56 184 73
0.012367383753286 -0.004882284095144 0.101958819853570 60 157 64
0.018573201885012 0.002972090034780 0.149264576941183 66 154 76
0.015437378849753 -0.011095244809660 0.124410545098838 48 113 49
0.017456403306453 0.008805080210461 0.138326744235567 80 176 83
0.012497940823719 0.016090783070609 0.101428453942713 67 139 66
0.014591643452869 0.011645668837312 0.115928333408664 73 160 69
0.012852667504623 -0.004278946873219 0.101966299428511 102 205 103
0.016892241972685 0.017754823581648 0.132155491614322 24 58 23
0.019523241762160 0.030947074879401 0.152634651750438 67 145 65
0.022576710011904 -0.037297333980935 0.172483717705475 88 234 100
0.016659025325620 -0.008114004422968 0.124523427562070 75 159 74
0.013350727821955 0.015146168401008 0.101495605141628 83 188 92
0.024335255117390 -0.033472018245484 0.177006316088579 62 137 52
0.026500288222088 0.008323870180809 0.188773090629323 36 92 39
0.017292173918084 -0.011585290262404 0.124899961227651 50 104 54
0.019534460301266 0.007315467377843 0.138825062887562 46 115 51
0.027218176249745 0.001343263602291 0.188825000647056 54 124 58
0.020275749848493 0.013629529497122 0.141761301276008 50 131 51
0.018367416125409 -0.009345790949701 0.125019066363431 71 149 67
0.022283921345531 0.025946142965447 0.151127224264444 35 81 31
0.019840490630600 0.016834656901523 0.133769468733225 61 142 67
0.023230804037006 -0.004641839881213 0.153623681654710 31 96 34
0.025195307589580 -0.003619783081773 0.164720709646197 55 128 55
0.021703242166724 0.014804796701262 0.143304454772593 72 166 73
0.025971838529495 -0.037907781751077 0.169316395630313 73 215 76
0.020395365080487 -0.019484073715931 0.131491361536634 70 160 73
0.024219162109213 0.029571670279863 0.153334734274842 63 126 62
0.028237251516912 -0.001519348018252 0.174477446843757 61 153 64
0.025246090378296 -0.037607659715377 0.157983525987962 108 255 116
0.023206409988776 0.016318473117287 0.143153078551524 82 167 72
0.021371851027897 0.021571590676982 0.132786452919957 59 143 62
0.028520039834489 -0.036304882661000 0.172142555839183 90 250 106
0.022029344681668 0.021906751777509 0.132967046610887 16 43 16
0.028647483557458 -0.038138078090285 0.169655777283132 94 255 108
0.025056770232078 0.016042429288468 0.143916460547064 55 129 57
0.023094389516667 0.019927437761563 0.133475483464831 51 124 55
0.023094834287878 -0.020273341386430 0.132637923779789 65 148 62
0.025524773939079 0.014275670091633 0.143575171372117 66 161 73
0.025722549358378 0.026772209590896 0.145537797565208 58 129 59
0.031120208875438 -0.036220133118966 0.172890228459637 65 191 79
0.026096374775037 0.024525823585908 0.145490441984206 58 124 54
0.023973342912749 0.020812224404684 0.133175663432486 71 158 77
0.026409872675759 0.032508468757212 0.146122065634686 45 99 39
0.031083406091266 -0.037862600997739 0.168723190814552 95 255 107
0.033097773679097 -0.001553373895851 0.176785929391601 59 143 59
0.031089628923237 -0.038781340793995 0.166864206968980 85 238 87
0.021658460724459 -0.005674359922085 0.116072062263069 86 191 85
0.025036076510511 -0.021896171610988 0.133056496129454 66 158 63
0.024007100659244 -0.009203787817741 0.127223713539129 66 157 71
0.024592164502683 0.026317926495574 0.130439072639993 76 155 76
0.026592922059064 0.030192608646129 0.137575747106733 72 149 68
0.022572568909788 0.011451018965801 0.116005976455273 62 152 63
0.033874816332181 -0.037267892103696 0.171523198615477 113 255 117
0.034293900683997 0.000805540101721 0.170392889382551 63 150 63
0.038406869200119 0.008531898996288 0.190152951823616 69 150 64
0.023196645457170 0.013419586987011 0.116458732604988 49 124 54
0.028830757250633 -0.020036565995777 0.139539228770393 55 136 66
0.040855371081885 -0.018549853064193 0.193349073495206 98 105 64
0.023998359941801 0.010223548494759 0.116253425302060 72 173 74
0.028589800979901 0.026778133305526 0.137538387983928 53 121 51
0.036882145552481 -0.033410518820795 0.173714999726958 82 188 86
0.029760986530772 -0.016668163481409 0.140553330391893 54 134 56
0.034976605844367 -0.038772972415283 0.164145098742376 114 255 125
0.036845644358186 -0.037771023204233 0.172245634998243 76 226 89
0.036996917832649 -0.036677838648017 0.172783059618339 69 185 70
0.022726269025850 0.006413510890805 0.105834698316218 56 138 61
0.038009245314165 0.003301876634000 0.171611242512741 53 137 57
0.025092685220366 0.024704141508909 0.116508677845908 55 106 55
0.033945124084103 0.000204373674793 0.151615462807846 47 91 42
0.041574892077733 -0.003656960603704 0.183298205181304 9 19 11
0.038863434187305 -0.036894560433726 0.172167152771011 74 217 86
0.040067641557249 -0.032576104386193 0.175019411963468 58 140 59
0.034923655705445 -0.003105029034079 0.151984254744646 49 108 53
0.040221688385611 0.032129408948943 0.174985528521740 63 149 64
0.044853899775060 -0.010633291364442 0.191589700267267 49 127 50
0.024081802132739 -0.011891806450480 0.105543080873852 69 148 69
0.028572343224624 0.016606918577528 0.122992205970438 20 45 16
0.024940943404202 0.006428358153084 0.106313209299566 76 176 77
0.029555747004058 0.024638426042998 0.125778775154628 57 134 57
0.046575629894100 -0.012535424897590 0.192219552700614 31 81 38
0.034283515954247 -0.020647637977217 0.141766298866696 53 137 56
0.042251985990528 -0.013449201325495 0.172624628513825 52 126 56
0.027566700379706 0.000947345349711 0.114645709571304 75 165 69
0.040709618648059 -0.037184794876027 0.167716964358460 114 255 113
0.027703584514483 0.003802188475765 0.114677202612538 72 176 74
0.042416190359080 -0.034202493094467 0.173232043212254 104 223 100
0.042761452772586 -0.011172306787304 0.172951064486733 49 129 53
0.042753806731004 0.030062468527157 0.171998801314818 35 110 46
0.025128704930155 0.019751313017298 0.102793664186361 90 154 76
0.039881228430613 -0.037090935253338 0.158801583523818 123 255 138
0.029078672959767 -0.016230513387803 0.116305177751350 82 180 81
0.029165881335999 0.024661319340192 0.116117436124924 87 143 72
0.043748967125298 -0.035912242804561 0.170215769714206 95 253 107
0.050515690797838 -0.012480872038998 0.191834101798814 64 139 62
0.028758157691930 0.011039231248564 0.111394650002355 82 159 66
0.046335174770653 0.029009564001229 0.176992644241940 55 91 49
0.038798130379350 0.001432727673273 0.147335639441394 63 143 67
0.042595751670467 -0.021328458697081 0.159858754948885 55 132 52
0.041425470414679 -0.013565334117290 0.154579525341854 75 147 74
0.030463213588151 0.023513057561407 0.115898634053798 82 160 82
0.046092517626136 -0.035842179006418 0.170207368792671 61 187 72
0.047337851747344 0.024923201583145 0.173701698675487 44 84 37
0.043253124800973 -0.036669546928672 0.159729163101292 104 255 124
0.048904270441264 0.030626891279628 0.178303913417811 69 154 75
0.031458852360260 0.023947424145299 0.116163112212610 67 156 74
0.030571265474686 0.012122544289421 0.111935497433972 97 183 90
0.049097979360494 -0.006558671699209 0.173227226625580 77 158 76
0.041932244896452 0.003032887194556 0.148750825854466 86 184 80
0.036720391607594 0.007233798640113 0.131037765676668 80 173 79
0.038830755028653 0.031170573070684 0.139818611398159 74 141 67
0.042716347225906 0.005779920390052 0.150880280352677 58 149 63
0.029047778334794 -0.020842427955857 0.104714969641365 83 189 80
0.029191192381285 -0.018901589841574 0.104668285760941 93 188 90
0.051760225041690 0.025216048964460 0.179178626875158 84 177 77
0.046000179689410 -0.036562263042923 0.160393735139912 95 255 113
0.056935084009095 -0.011466218181613 0.194727216168552 76 186 78
0.038164130377334 0.013581019457536 0.132563004916978 31 70 33
0.052341757315453 -0.008294715861315 0.178724207809705 80 179 76
0.038087291104265 0.010063029103397 0.131663981612294 79 176 81
0.038333969863127 0.013270210799075 0.132608968006349 53 123 60
0.052839906158296 0.032847855465543 0.180769815318175 63 135 70
0.053305185396772 0.029852510109797 0.180643250300893 37 89 40
0.048327767148257 -0.035264239488319 0.163054194484192 95 253 98
0.045402335359012 0.004699821517182 0.151716483909979 72 158 70
0.049413896079085 -0.018177068179871 0.164491106001305 54 137 57
0.039985216832337 -0.002336894905959 0.133730150523491 42 124 56
0.061096272849513 -0.011799585196706 0.196640837535458 38 105 41
0.050342056467814 -0.035329850865852 0.163613533558647 76 230 100
0.049053205049774 -0.011270183016634 0.156735680630912 95 191 86
0.057003627199836 0.027488149108372 0.179896177319070 76 147 70
0.056590655220431 0.036416017254301 0.179569465798780 60 126 67
0.042934684345683 -0.002193630443326 0.134371779450395 68 153 70
0.040980798893940 -0.023826504419642 0.127296967695951 121 210 116
0.052446683211555 -0.036194174073341 0.161310813152343 85 223 92
0.038865479753941 0.010049825310094 0.119399933738190 50 124 59
0.055505312137600 0.008988709913674 0.165681960228793 70 149 72
0.040232442027095 0.010138356312591 0.120628057967888 87 166 83
0.054298261527984 -0.033361777232758 0.162200168909336 79 155 67
0.062655274422769 -0.030873997536927 0.185811632026493 66 130 60
0.046993362944273 -0.010070485706854 0.139659004861053 105 195 98
0.053530122215146 -0.035772786425208 0.159768015628352 100 243 112
0.047188561832910 -0.008258529072784 0.139714552543752 85 164 85
0.061544153948127 0.024874150855126 0.181751571047797 50 122 50
0.061939134022321 0.032810974838589 0.181334611206104 58 95 50
0.041184250651622 0.015214917904430 0.120841383537269 74 142 82
