ply
format ascii 1.0
element vertex 447
property double x
property double y
property double z
property uchar red
property uchar green
property uchar blue
end_header
-0.050946301597303 -0.008004212138097 0.146549360246912 59 153 62
-0.065426274012633 0.003844993188889 0.187405068057093 53 148 51
-0.037213815395963 0.006610209463284 0.108929959954491 70 148 71
-0.050368787270893 -0.023771074107774 0.148039871854182 70 159 59
-0.043140832972834 -0.025432153645700 0.128189535740098 84 206 81
-0.062852317565270 0.031840784562826 0.185288946032897 18 44 20
-0.049343364198241 -0.010553472557316 0.145789116907170 67 166 75
-0.057936571619622 0.016839674906324 0.171748089779893 86 215 100
-0.037118933041144 -0.010012412209165 0.112347149157967 68 140 61
-0.035288733606511 0.006212087571772 0.108324021240825 62 141 64
-0.059717735924566 -0.023067359114516 0.181171556799887 103 235 108
-0.062214627323913 0.027495052366873 0.189036717567645 92 193 85
-0.056040160005013 0.013724268769748 0.170525886676807 26 56 17
-0.061196740898881 0.000736050823407 0.187249489854547 74 187 77
-0.055257711720404 0.014091185832380 0.169924839476638 74 156 75
-0.057258045804179 0.034895265906248 0.179339701718832 76 212 98
-0.055121434819834 0.037223392571769 0.177360776732158 76 203 87
-0.035567464188843 -0.008710658103656 0.115366788400903 76 199 80
-0.052453379309538 0.012150822487889 0.167687154714315 86 219 93
-0.058968252244722 0.029824198751967 0.189041239453781 42 95 41
-0.035312172501008 -0.006541427140378 0.115329417800179 57 149 61
-0.028842692268201 0.003775444474133 0.096482270960876 60 157 69
-0.059143984332201 0.025990064652702 0.193282787712098 79 210 86
-0.046627939274176 0.024759179757882 0.153689436733381 64 153 67
-0.028457472239517 -0.016858383232920 0.096096686184708 71 171 75
-0.055240289636644 -0.022730597786607 0.181189891263364 79 188 81
-0.046393952012787 0.026914506295552 0.153686910498160 82 196 84
-0.054525529596829 -0.027155918881523 0.180554372130685 71 159 75
-0.057777892847015 -0.002684857810571 0.190567145111851 84 187 81
-0.050093241929672 0.008893558923588 0.166108463703288 75 175 78
-0.033979759452680 -0.008004853908396 0.114888791317562 66 153 70
-0.033462055587725 0.023808310015753 0.113963016432481 73 158 85
-0.045370277770388 0.029029081600036 0.153391021312987 68 166 69
-0.054264908160247 0.002950311177310 0.182004120232645 85 202 96
-0.043005497311938 0.019092048713942 0.146019772829743 61 171 69
-0.043879282403146 -0.031980141742601 0.151549198354131 63 166 68
-0.049563550969075 -0.025348038327526 0.170177760242715 90 230 104
-0.048667334365058 0.026095486135058 0.167441634285253 83 189 84
-0.042789746926207 -0.035384574454160 0.151732135469538 84 202 95
-0.049531171254252 0.007397424383895 0.172488045142154 94 205 89
-0.030675658406566 -0.009781405096671 0.109564736978770 68 156 75
-0.040941755671260 0.019549152181505 0.145275243029356 69 166 71
-0.030191056341552 0.023028020076656 0.108936206962114 64 149 71
-0.046561615557997 0.011018884060289 0.164525092735547 84 212 92
-0.051878095292091 -0.002586711535735 0.185296947591345 50 119 43
-0.040805222371677 -0.006630308661872 0.149462021202171 71 172 75
-0.045021191581905 0.024092483494047 0.166577346612241 27 74 33
-0.038683078018557 0.020156199181720 0.144405696995203 53 147 66
-0.044754995770865 0.026644761280146 0.166530837267589 34 88 39
-0.045216963257125 0.003019109767738 0.169764649688385 63 164 69
-0.027765596071904 0.021035984928344 0.108142585243816 66 169 72
-0.051933469843125 -0.042295647483658 0.199022569139636 45 120 52
-0.048507962898630 -0.000103254933622 0.183969369123166 15 43 19
-0.048323939162846 -0.030527711216309 0.185417705038846 75 190 79
-0.044493903795073 0.008988150869203 0.170143881254352 50 128 60
-0.043613780511045 -0.000857114529095 0.167460943855509 60 135 59
-0.033880043520840 0.014102736685722 0.132390540901596 58 113 57
-0.043926421886612 0.010645784261207 0.170300832426917 75 177 81
-0.045180806872949 -0.014123900227118 0.175795895642710 67 135 74
-0.039511990524450 -0.036116603538376 0.157061411329673 88 194 78
-0.042230053211009 0.028626629619202 0.167345175350045 84 205 87
-0.040484923005237 -0.023741299593821 0.161619535875992 98 219 96
-0.044343263919284 -0.006668974660525 0.175505600534915 68 135 59
-0.042333742001051 0.004240792517407 0.168587857361582 86 195 95
-0.044349031123563 -0.007168218602158 0.177115674036094 13 22 12
-0.031946260357851 0.027529088653573 0.131204992591963 61 168 69
-0.040904777909922 0.028947694247110 0.166750628751883 105 239 106
-0.029752732974174 0.000544151693668 0.123099916444410 79 186 82
-0.039172951766937 0.005453168903417 0.161570037607283 77 166 76
-0.040106705553291 0.029152527273947 0.166679246974949 53 127 63
-0.037447229452673 -0.037231344647944 0.158350076897845 69 131 62
-0.036465325867391 -0.014142427686781 0.152516665674186 92 217 95
-0.038774964608554 0.007797369183139 0.161551393261300 77 190 83
-0.022532912837666 0.013526115966818 0.096757005796865 88 198 87
-0.045309945139884 -0.014197543440106 0.189567139081581 57 143 67
-0.026249279384113 0.009598527989861 0.112578535100222 61 158 69
-0.034745677620429 -0.017944209582507 0.149340842217666 95 184 82
-0.034694200408010 -0.016207572715502 0.149749117208054 50 140 54
-0.034602112774620 0.001487329199336 0.151895760403389 60 160 65
-0.036930676073533 0.007826432962562 0.161780727182286 26 62 26
-0.036126407803150 0.009099922483820 0.160026981858101 52 120 57
-0.037807678665439 -0.027079443772077 0.170651402427284 89 205 90
-0.020642811070400 0.013934874791141 0.096355295486819 76 184 88
-0.036369255227443 0.028066797218420 0.165562815279070 74 188 79
-0.032601842889462 -0.020762964819259 0.150107599693974 57 146 59
-0.037943013579072 -0.001313624033918 0.173661857035530 85 199 88
-0.041982089489591 -0.041867181878370 0.194925093620079 85 213 91
-0.032483390318355 0.003909677951151 0.152876542722149 64 183 74
-0.033199023368605 0.005719370847736 0.156960646867152 64 133 74
-0.029879986646109 -0.018559439338927 0.143235670782266 64 160 68
-0.037013480146864 -0.004530828889050 0.175077994443231 52 127 55
-0.023850466722226 0.025630019674321 0.116336179994224 79 189 83
-0.031058256026873 -0.017806974031946 0.149327562464170 95 206 97
-0.039508268230270 0.027184789941509 0.188674370808900 36 98 37
-0.034663061835633 0.014944032776206 0.166592343531824 42 101 42
-0.040417041131388 0.021367150957475 0.193403699541054 67 180 75
-0.038231944295010 -0.036277339869361 0.185500884586997 98 182 93
-0.034654051992568 0.011775189932786 0.167314049461700 80 200 83
-0.036873061231986 -0.007068800906211 0.179325568864792 83 182 76
-0.034359953533365 0.015279880059893 0.167964118143197 54 117 57
-0.038986634933675 0.025300159632660 0.191309524339460 68 183 74
-0.030932149530745 0.007103830603755 0.157758108036696 48 132 53
-0.036107142972632 -0.013083145141523 0.186308537340014 80 171 78
-0.031635855415536 0.014848914015116 0.167312993206141 74 185 76
-0.033187659422502 -0.024585709250575 0.176690410334462 60 144 67
-0.029402427837091 0.002331377891939 0.158514620872943 79 190 84
-0.034269221237990 -0.016956142439393 0.186215394981472 26 64 27
-0.030654849570645 0.009980755169974 0.167194948636346 92 197 93
-0.028860079396378 0.000403247313400 0.158640749545494 65 184 76
-0.029130846679861 -0.036032276379186 0.164154394891763 95 223 88
-0.029766739940678 0.012398945242014 0.166828524593490 69 163 77
-0.028538166284957 -0.034644290938494 0.163947890345679 117 245 119
-0.017318639112263 0.001636238875101 0.102550117167009 68 157 64
-0.031767978322693 0.039638936671012 0.184572319263560 33 94 39
-0.031544131634458 -0.040492866308820 0.191880461486280 57 130 59
-0.030522658355833 -0.016989662793233 0.184006828265738 61 135 61
-0.030006101657095 -0.020850885756269 0.182517010822688 79 185 78
-0.018242601142708 -0.005133080062669 0.113590090589447 71 176 81
-0.026440470472350 0.023924139748144 0.166850754299420 74 180 77
-0.024669490726398 0.001182049189455 0.157507408514969 73 186 75
-0.028662270026416 0.022960797074966 0.182696913357694 60 144 59
-0.026121489755999 -0.020951346217457 0.168220131847106 90 207 83
-0.027728149859720 0.039846235271345 0.184115377492695 100 216 105
-0.026638690937201 0.004805410284115 0.178741459699828 46 107 46
-0.026839962559022 -0.016120208281207 0.181749137068927 73 177 78
-0.025866259972124 -0.004181762364431 0.177902034639815 94 199 90
-0.025943628338898 0.004581569017970 0.178448297144604 27 55 22
-0.023493454860511 0.023222678884587 0.165872145185702 63 166 66
-0.020785683774995 -0.024472709370746 0.148974912427216 85 194 87
-0.017654042640316 0.008675704537501 0.126986747900522 66 146 71
-0.025684154918131 -0.018489673583238 0.183012015754615 58 155 59
-0.025535482358328 -0.016812234681474 0.181914433895878 31 69 34
-0.025025847256737 -0.001118488895746 0.178055015084519 84 200 78
-0.022234310645566 0.024787681866065 0.165588936107377 78 172 76
-0.024257895606445 0.032131453017551 0.182078641730206 60 155 70
-0.023280015894255 -0.026281458227923 0.175896772045656 48 122 50
-0.020967376860990 0.024123155472163 0.165031208494767 18 37 13
-0.020996496290374 0.026365936565381 0.165442240742143 33 76 35
-0.021665465603297 -0.019320752774353 0.171291534743698 72 167 75
-0.022341052499660 -0.000878240373945 0.175815800723580 96 197 92
-0.019773760155435 0.018783666873353 0.157161201595528 49 117 46
-0.023389937017728 -0.039005184429436 0.187641840779941 33 68 34
-0.021623134842241 -0.024984653692858 0.172937153375770 113 255 114
-0.020074980064996 -0.010377418678289 0.160402269351950 67 141 61
-0.012692351138367 -0.002786817194625 0.104235330198263 82 200 84
-0.015630120321573 0.009424981761953 0.126665052128412 72 170 81
-0.017676237968358 0.003481196351992 0.147491053010293 82 197 82
-0.021296328984423 0.035704184398207 0.178228773347115 56 135 66
-0.021509635388476 0.039768311907717 0.180410943195943 23 59 24
-0.021604630368271 -0.040981455217685 0.182734820595419 92 195 104
-0.018872279216848 -0.011539179302690 0.160176159330027 47 127 48
-0.019972484582754 -0.025096379077009 0.174924232199802 106 222 112
-0.017628624325231 0.019511988675973 0.156771754410543 44 93 41
-0.019889267714135 0.039382605243056 0.179527786469758 67 141 72
-0.015849028745546 0.009828843275875 0.145763636162098 66 146 61
-0.017412186864640 -0.038696487120181 0.163245986188741 159 255 163
-0.016757651744831 -0.005718425226345 0.156826507893484 85 204 92
-0.016893357162847 -0.002863613113955 0.157995734822113 54 136 56
-0.015477924105954 0.006524718571436 0.147094151060262 68 157 62
-0.013143713260577 0.028687493774666 0.127468880576459 81 182 83
-0.012835945925951 0.026862123496770 0.127259186480634 79 194 79
-0.018230283101631 -0.019525678752180 0.178134574725179 89 201 97
-0.017175968030517 -0.012579448227779 0.168008628348448 83 210 86
-0.015916138004374 -0.038704244676080 0.163964946280792 69 224 78
-0.014221087188910 0.029786195830386 0.146802416619122 46 143 56
-0.011148124746033 0.001285060746293 0.118342141586947 71 183 78
-0.010745499721598 0.002761169694455 0.114368824001279 94 187 79
-0.011762201407603 0.026395633836842 0.127114840945287 35 69 34
-0.015316078241296 -0.008326817084882 0.165654908127024 93 202 95
-0.010223869395096 0.005240757249092 0.114678566015343 60 156 60
-0.015104382765392 -0.014430037292183 0.167913048366968 71 164 73
-0.013947692419365 -0.037999891768261 0.161836089952644 101 255 110
-0.015896225177068 -0.032221505558046 0.184631065438431 95 218 102
-0.009529147358210 0.015041852810596 0.113407215595453 63 147 64
-0.011904781589122 -0.003577973635596 0.143037311584227 67 179 70
-0.010772085763395 -0.013658782872373 0.132326470390469 92 189 94
-0.009172501612038 0.002747410213453 0.113631916438158 102 234 99
-0.012539528604218 -0.037900805617055 0.163694553693374 89 255 108
-0.009184998491203 0.000578949021302 0.120437409742845 84 189 79
-0.008014389048243 0.015068457770937 0.108052345749208 82 190 83
-0.007434389117452 0.004867276759542 0.112242185894873 78 209 96
-0.012259165987845 -0.008788114212800 0.186138188102014 69 151 65
-0.010402397580495 -0.037273604838245 0.164222620642516 68 235 85
-0.007433587147157 0.000870019120066 0.120312698435905 109 233 109
-0.010972248600114 -0.021919181863371 0.192103983218256 82 197 81
-0.009158677480330 -0.015203524813094 0.175990731118874 102 221 100
-0.009736202679931 -0.011571347072687 0.186377577034506 69 165 72
-0.009538058728650 -0.012772102406297 0.187023777857774 29 58 25
-0.006444380934567 0.019639118842143 0.139128603153580 67 149 75
-0.006390871469909 -0.027478972148145 0.145738182949577 104 240 111
-0.005182913085134 0.003439095190000 0.118811759215090 89 207 87
-0.006924000839302 -0.036006467536405 0.162064246341014 77 251 85
-0.004628100630130 0.023938081060817 0.116839315217724 45 126 58
-0.004697686556607 -0.000292035340921 0.120910359938811 70 155 63
-0.007136889729341 -0.015181510589385 0.190810443038092 100 235 100
-0.003690922504609 0.004828489648992 0.102729281656794 77 192 84
-0.005364838877868 -0.035919254237245 0.162480144082757 116 255 117
-0.003200131277484 0.004828520976187 0.102721400869093 44 123 54
-0.003732870254956 -0.022316487973962 0.145062854883715 105 220 95
-0.004424328004053 -0.014107793943698 0.186322160373038 45 90 36
-0.002769343269866 0.001303726303815 0.119823139191853 95 216 110
-0.004319864503088 -0.025259749397378 0.192260691101207 82 202 98
-0.002185168856990 0.021894098019780 0.113469768132504 68 149 70
-0.003442164435741 -0.028178114419266 0.184199987254398 54 156 57
-0.003481233950524 -0.013566671152011 0.185302196054552 33 73 27
-0.002141235008296 0.015812530379531 0.117761488143348 42 103 45
-0.002660467936149 -0.036771063874921 0.166063165598178 94 255 104
-0.001701686561300 -0.001503516526427 0.108294592853941 64 142 74
-0.001292579699178 0.017663392998681 0.117978360472625 62 145 58
-0.001246852200767 -0.036808222926385 0.166212948242560 128 255 134
-0.000959735847980 0.008719000806698 0.129074507761033 61 165 64
-0.000662057694485 0.001600869225769 0.108274901241130 65 157 75
-0.000928472257134 -0.007369739842528 0.180205510188003 57 141 59
-0.000460971717371 -0.014519228632945 0.173137657016915 68 174 74
-0.000176184596378 0.006542082986433 0.129204590803963 72 148 64
-0.000151536051277 0.022440309179738 0.114176890073150 16 39 17
-0.000009134152054 0.019743139293778 0.096758602489448 93 184 85
0.000135262504005 -0.002775672115023 0.126440169167724 56 153 76
0.000145412255178 -0.000060617656223 0.136794540826052 67 140 69
0.000394522422789 -0.012180101721962 0.173212733471088 40 101 37
0.000214144939562 0.010248251887342 0.093788965544228 48 133 51
0.000588067820893 -0.037127164232489 0.170136782448905 87 255 93
0.000644329454150 -0.019098730348703 0.183655391034100 72 145 67
0.000825196124325 -0.010719125281760 0.173711255890908 69 151 63
0.000607543956247 0.009964331144371 0.129064447728021 92 179 84
0.000658101990474 0.010799436199530 0.093804745706107 20 46 25
0.000769042908415 0.012673055026664 0.093860562489047 89 188 90
0.000990951453639 0.014656417444876 0.093928836913463 60 157 72
0.001943381916171 -0.006850930269515 0.160196861222888 67 149 73
0.001704033769271 0.009493937981758 0.129026227457873 77 150 67
0.001248641840400 0.017358463804596 0.096635194581939 59 139 57
0.002024687147527 0.006863899927266 0.129389480901709 76 207 101
0.002844136891493 -0.037202682728573 0.168746479058287 100 255 118
0.003004834487609 -0.010844261293940 0.175566428766528 24 66 24
0.001886390691153 0.002329224895686 0.112751134048222 60 129 60
0.003111750438372 -0.028172419394152 0.151772973755728 106 220 112
0.002734351877527 0.012836223948212 0.120000455162476 81 177 80
0.004005708148029 -0.038964313354359 0.166209513276756 108 255 126
0.003839545846615 -0.028828888095781 0.151446799432532 62 162 62
0.003359761147234 -0.003083453529389 0.126500384457312 62 151 66
0.004927203403446 -0.013578774965057 0.174640938887380 67 143 64
0.004663389432528 -0.005743706042658 0.152781593466267 33 88 35
0.004063905734761 0.021281583402018 0.134915758247209 84 184 81
0.003974615885899 -0.006760618284999 0.126595898468256 72 156 69
0.003784748308247 -0.000291232138374 0.120828869307851 102 212 108
0.005500511475871 -0.036888339993511 0.168289914990766 72 245 91
0.004368847196625 0.007935225387449 0.129050739902264 58 159 69
0.006739374387089 -0.022838738271362 0.183013895061516 49 129 50
0.005101444395396 -0.014058188278334 0.140144272637015 80 164 78
0.004494245341397 0.008678704207207 0.124202371670036 106 222 103
0.004328183012590 0.012551190445197 0.120040857516596 111 236 107
0.005713905497085 -0.024179653517292 0.151870863470390 55 138 61
0.004328034802408 0.002327886236000 0.112740872119149 77 174 75
0.006566927334034 -0.038982570343462 0.164764135841509 89 255 116
0.005700787037119 0.023244449963176 0.135161891375896 63 152 65
0.005998246906924 -0.002565730393925 0.137068750090464 42 112 43
0.005352703774888 0.005341595414777 0.123186587324903 55 131 53
0.006123113137772 0.029022931435883 0.141302592412247 34 75 28
0.005341261798377 0.012405126160517 0.120037760532906 69 171 71
0.008312490083505 -0.036427107732944 0.167219671742186 74 229 86
0.007702024205937 -0.011050275791853 0.153692502939730 44 101 42
0.008714252608708 -0.025185012338871 0.169725979351534 59 143 59
0.005763396434096 0.000034403558018 0.111730033444509 66 161 79
0.006398736453939 0.007869213397069 0.123301540678078 83 177 79
0.007012289532941 0.019345852545637 0.134952966134691 64 154 71
0.007497771358443 0.029055173338753 0.141489467432846 64 167 69
0.006149394045716 0.021081876133735 0.101920896463549 85 192 90
0.009603015894032 -0.006406476126388 0.151048403541500 108 218 119
0.010057644824310 -0.030360583283531 0.151152423428834 78 167 72
0.008451260692428 -0.008626853634547 0.127069683856857 80 195 79
0.009963955210287 0.004655378554041 0.138784052747542 49 118 59
0.012137604590166 -0.036708200181869 0.166841000295729 79 253 97
0.011929297865332 -0.031394953928820 0.158625914384983 29 65 26
0.010750493014518 0.029575612425093 0.141702006375171 67 160 70
0.008106665732372 0.007390706836540 0.104565907915506 111 223 103
0.010976003819168 0.031793128941082 0.140563090779590 31 78 23
0.009828384642308 0.011556869544399 0.121775372971415 88 180 87
0.007495305305308 0.015784576013849 0.094826072471811 96 216 108
0.011668007627188 0.003813014735659 0.138964121753016 82 186 82
0.013650288792209 0.007845944246225 0.159160912635629 35 85 32
0.011193407454082 -0.004692387846453 0.128402988256952 59 123 61
0.012158626315877 -0.001593335857393 0.138768259365848 60 182 79
0.008056334206826 0.015675112260116 0.094845252677962 27 63 22
0.016020739233052 -0.036294496702420 0.171300444676714 119 255 127
0.013194899348303 0.001116337406912 0.140725431110740 59 138 55
0.012217866326557 0.008986462392681 0.131020905168016 61 138 62
0.015414927768221 0.007846534044507 0.159306259536866 47 126 48
0.012315177925327 0.005502228214726 0.127265564334206 90 186 95
0.012938049595533 0.004274258445337 0.127328752964046 18 33 14
0.012937947734570 0.004889091247685 0.127337863779008 60 149 60
0.012431761846718 0.011060081736970 0.122827256577860 96 204 93
0.017961483719724 -0.037059659238655 0.172069912323967 100 255 112
0.018084444669677 -0.029024304875326 0.168644832170336 81 178 81
0.010891422046877 -0.007041090644197 0.101783749703156 54 127 52
0.017532839663625 0.001569979852135 0.155754912951513 55 147 60
0.012953786829696 0.019174898729011 0.114224958446667 74 171 75
0.018015449541499 0.031722344072405 0.155329256197723 85 193 88
0.020361504595519 -0.036192692100556 0.172892586734336 71 218 87
0.018409264578280 0.003461178802551 0.155209757099779 36 82 30
0.016081385980833 0.006161691420630 0.135282878634629 81 183 80
0.014530464437400 0.010483971791161 0.123092499008366 102 225 95
0.019091578218800 -0.036092534707791 0.159721416663864 137 255 147
0.011991132292059 -0.005479650000068 0.101861027157546 109 238 112
0.012201342878067 0.015120817575841 0.102810184344577 66 159 77
0.015937752480869 0.008773372092002 0.130475101974107 84 183 74
0.021775404568454 -0.036307617222584 0.172575701601892 65 224 80
0.022210936159258 -0.036966570978012 0.172800139285450 66 225 88
0.025683727476297 0.007491891182998 0.191135523594660 56 150 67
0.020285497684764 -0.026897756655181 0.152341611217441 59 156 64
0.013530335983561 0.015224934994548 0.102767305221637 111 220 107
0.021153384610285 -0.003357277486371 0.154643369733534 74 175 80
0.012482508174428 0.008518089712199 0.094379209820247 79 189 84
0.014903912919202 -0.007130269479983 0.109452272673065 73 170 75
0.014904283484612 -0.005305701537952 0.109411982034571 110 230 106
0.027143268300584 0.010334275279248 0.191641600106765 75 202 89
0.018724163605095 0.019423622128579 0.133954898621235 66 157 69
0.023702559085975 -0.001407793680674 0.165387093995654 71 161 70
0.012850362716019 0.016908676975112 0.093385591598267 104 214 106
0.019255202316573 0.023210067892649 0.135637714416862 31 87 41
0.025307395113737 -0.036786731956614 0.174025611466604 68 213 81
0.018930862535223 -0.012078267157998 0.129713958206137 50 104 52
0.019720597523949 0.023636509569998 0.134511647566094 51 132 57
0.021491943817052 0.029072795049898 0.146361848377713 78 175 84
0.024375199179880 -0.037648927280901 0.159540091722039 136 255 132
0.015321228445117 -0.003176090318722 0.101572227226608 136 255 151
0.026339881564049 -0.002832466155828 0.165615617912881 74 172 73
0.022718914755174 0.015943151388452 0.144315521162473 54 125 56
0.020533580484236 -0.010537564542319 0.129977735648607 76 154 70
0.025344308663209 -0.037663609990116 0.159669315007299 82 229 82
0.027873777277223 -0.036553611935433 0.173189472330555 101 255 110
0.028083755103149 -0.038207126418817 0.169896064965059 109 255 121
0.023195621396598 0.020035858621618 0.139452705660833 67 160 69
0.023627405511960 0.023816054030304 0.140305872656941 12 28 12
0.024749224621595 0.027753291895476 0.146941215969243 67 157 75
0.029892865521824 -0.001930513485197 0.173152531978877 67 161 66
0.024916849640550 0.033377903420184 0.147502656082981 51 115 54
0.022669892573666 -0.020502967021838 0.131200198190305 93 181 85
0.024090851554760 0.023442309761982 0.139173680257978 75 179 76
0.025544190424227 0.016237033856664 0.145636662779340 75 172 74
0.030616489456975 -0.036368198844245 0.173503504412007 90 244 98
0.029930841413266 -0.037888515134379 0.167912523160647 104 255 103
0.030274546545778 -0.038361161519440 0.166670688603755 81 247 86
0.021481447955233 -0.004515763523727 0.117963398841977 105 211 107
0.032451720759758 0.000823073888650 0.174551324320394 65 165 65
0.024043949034995 0.026259093342206 0.131556825130602 91 219 101
0.032534086743907 -0.037147591633840 0.170882136154312 116 255 125
0.026133264053273 -0.017986121101285 0.136649390435814 61 154 60
0.026669693010007 0.031098762303329 0.138045090743838 86 181 89
0.023440294179094 0.014653759654919 0.119661382694390 96 216 95
0.036076109272187 0.008039265787099 0.179022316924788 71 169 67
0.023877135213277 0.012521764165455 0.119634970411867 92 194 98
0.035161506288801 -0.036093818746551 0.173616573529148 63 195 77
0.036770865745521 0.009739324934174 0.178338435237872 59 149 63
0.035725783238119 -0.033293598319010 0.174026983424405 99 217 109
0.028355619003342 -0.015834167555637 0.137849869395085 69 149 70
0.027109092634910 0.025531914147782 0.132817601787226 67 156 72
0.040603186351515 -0.018541616845002 0.193246753072733 61 70 40
0.035825612566303 -0.036330294489422 0.172028680340569 99 255 94
0.030024902765806 0.002637940933781 0.142794043043331 65 154 71
0.029438082316612 -0.019606477051304 0.140027833645391 50 141 54
0.025008990660136 0.025742254491653 0.120518040072089 77 148 79
0.038196919791411 0.002983971972820 0.177916546273282 25 62 29
0.039598919746131 -0.004247521879278 0.180350699694952 46 119 48
0.039489833133335 -0.002244190390314 0.178928646108779 67 152 64
0.025906500656730 0.027203175386625 0.120891855747702 93 198 96
0.038102378886717 -0.036536536443686 0.173171135102854 73 226 89
0.023640024958156 -0.010790420864322 0.107803555374460 69 164 75
0.028735267522410 0.022823859010721 0.127704313665331 91 204 100
0.031284461822367 0.017710558833465 0.136703199351517 25 65 27
0.045506848682801 -0.011745680143633 0.194313905664488 15 38 16
0.024353299273606 0.009374754180020 0.107017390614282 76 168 75
0.029352816994360 0.025403056133486 0.128012285204264 79 177 79
0.046158458215008 -0.012509930943043 0.195128508507579 48 144 51
0.046485671865835 -0.008761949435428 0.196357445216556 97 213 98
0.038429511181716 0.007105808190772 0.163479178866508 82 181 81
0.039667020974993 -0.037123712163822 0.168983968748957 151 255 208
0.033253321697994 -0.026749567152038 0.142095795835980 136 255 138
0.035637159718139 -0.011976186820813 0.150752725854076 47 126 54
0.043174475219490 0.000143148383319 0.180157855004727 61 143 60
0.027708148025852 -0.016068078597332 0.117817546810591 53 108 36
0.040684755809266 -0.037320851170185 0.169928667480493 135 255 113
0.028147166374804 -0.016080407447171 0.117932253983872 125 243 111
0.039039838575121 0.022949605759756 0.160686973376502 67 163 65
0.027588337890972 0.003367383015249 0.113704262966649 91 203 86
0.027881210609741 0.023823708336328 0.115214264210382 92 173 88
0.045185714187738 0.031537366437571 0.181476058780355 41 119 51
0.039566141572887 -0.037332180130524 0.159715913922220 110 255 134
0.026472187046833 0.007880973020366 0.107482441675289 104 223 106
0.042637444891878 -0.036821369323629 0.170568630874128 70 245 88
0.043302640843971 -0.036017873377949 0.171494637146081 89 255 104
0.043755361479141 0.027282657102773 0.172503885134809 54 114 54
0.028729803144804 0.024118944934076 0.115433450217749 40 75 25
0.039322609597563 -0.013158776577984 0.152081169063429 105 220 100
0.051001714474059 -0.012489387931633 0.195286728032757 47 107 56
0.033282455444713 0.018441633615454 0.130003728658269 92 195 89
0.039207579627352 0.000550633317176 0.150092667694049 57 150 61
0.029149964004577 0.012459392563549 0.112407837834992 123 228 120
0.042965395937251 -0.021719532078378 0.162557987968889 55 145 58
0.029558315028676 0.012197021684301 0.112467676174754 58 123 52
0.029559053321029 0.014184705958042 0.112552174225578 79 181 85
0.039712090076182 0.003569079595090 0.148184942850323 102 198 92
0.043238741308867 -0.036962020964352 0.161643222051691 131 255 144
0.028216707953224 -0.019464471187673 0.106773984156855 103 221 106
0.039938895000037 0.006393089054599 0.147824734369520 67 160 64
0.030723348371992 0.024452935421542 0.115950187242575 98 194 95
0.045412646409748 -0.034041696249005 0.165640087337051 92 219 92
0.046166693575750 -0.007681398208031 0.166526992265253 65 164 70
0.036175284264324 0.008535666872339 0.131801029169429 105 233 119
0.050011704360376 0.030610923260857 0.180721771088584 73 176 76
0.037415259200702 -0.002789686546622 0.132811356151877 122 240 111
0.036995469266560 -0.000402836625573 0.130860604062365 112 206 116
0.027690952533306 0.013764254636442 0.099583399067499 94 206 92
0.048832926595581 -0.009753436724792 0.167800419703922 93 216 94
0.050019892269416 0.015821164119751 0.172072076299185 71 178 70
0.039375579065258 0.015783624673689 0.136702532701808 94 221 108
0.052676570115280 0.033152384679830 0.182300987863926 68 159 81
0.053723073416964 -0.035845698133446 0.182369672660523 81 147 72
0.049984980686919 -0.019712750475268 0.168874039229542 82 172 76
0.052940280978403 0.029864272717096 0.179457082410037 23 60 27
0.049044006945110 -0.035695663939151 0.166600709608903 88 255 103
0.058478406366898 0.006907292340837 0.195353324220452 88 181 82
0.046836056415514 -0.011919371579235 0.155364377180998 107 223 102
0.040540231924080 -0.001395293902232 0.134520375461672 105 213 99
0.050660877028905 -0.035783097792092 0.166381099473588 97 255 105
0.054385781777262 -0.018108868071291 0.176559376334586 102 217 90
0.047733557797854 -0.009128821739440 0.155315354589433 48 128 52
0.038898540919128 -0.022690716690778 0.126526739764341 145 255 125
0.055123290066262 0.035391583436967 0.177404872012767 70 143 71
0.055625248584125 0.026715141929029 0.177454088308111 101 184 98
0.050951620651889 -0.035233339209448 0.159424342322535 87 253 104
0.056227104927105 0.013780212254088 0.173608120375210 98 205 104
0.042464197020121 -0.006186634389663 0.131665716694082 103 213 95
0.040807226785201 -0.024558528373040 0.127265722333157 106 201 105
0.054677735847059 0.021950887812120 0.167219224109127 82 176 89
0.058901825547345 0.038007666004951 0.180674811332124 38 92 44
0.046206212893806 -0.011318948633149 0.140614277466705 120 232 111
0.043834985542900 -0.006210204559544 0.132198565363879 79 161 74
0.052978468797083 -0.035462404135407 0.159165893094818 121 255 133
0.058988794914612 0.008208161421921 0.174625701997238 111 224 108
0.056578219035264 -0.034672119632666 0.168313841066993 113 230 119
0.055766375722630 -0.017503862798042 0.164605789726235 118 228 116
0.063192066064870 -0.031810278537988 0.186252842947502 100 169 83
0.061256450225394 0.032366064843460 0.181053956429051 72 129 66
0.052867274931841 -0.004819936343285 0.154403322901223 105 215 102
0.042746656912135 0.010710841558049 0.125861894136306 104 207 102
0.057139168971170 -0.014926739350672 0.166281476109403 97 190 98
0.062320053830102 0.028278073808607 0.181961953523760 80 153 80
