ply
format ascii 1.0
element vertex 434
property double x
property double y
property double z
property uchar red
property uchar green
property uchar blue
end_header
-0.050174479684439 -0.011332386027555 0.144954734179677 39 68 36
-0.064206037164572 0.030306345233162 0.186639090254453 40 107 41
-0.042478955654408 -0.025235781080916 0.125901018990310 90 197 99
-0.061743632193656 0.039180369011522 0.181832546518561 76 172 74
-0.034460596340271 0.004700227125032 0.102805864747062 47 104 41
-0.052205334669123 0.013058501015326 0.153601330189037 48 115 51
-0.034333923485603 0.005178740301242 0.102780926515774 38 109 46
-0.034722114569185 -0.012994174121973 0.104516344912880 73 172 77
-0.048281520905906 -0.009060225112315 0.144095135681652 61 155 65
-0.061610886465219 0.028121824159435 0.187320920077414 75 188 79
-0.058138408925252 -0.040088371896777 0.178742664245775 42 118 51
-0.034605269710974 -0.005268752767959 0.107410786461610 74 158 77
-0.048390312347452 0.010018134189971 0.148303052429892 46 98 49
-0.056893697766664 0.037695243064754 0.176219107807895 69 179 81
-0.059852533794176 0.028818718293596 0.185880592386445 53 126 57
-0.049449192326295 0.028172014541076 0.155181362587930 59 118 52
-0.059028781925358 0.000075146914175 0.183877505306245 57 150 62
-0.049112989469211 0.028008238474501 0.155202097976044 47 110 50
-0.033405097367926 -0.006508967993110 0.107122792793680 38 111 41
-0.031753983074759 0.005278839856923 0.102021704858373 70 169 79
-0.056274780910726 0.034949664629010 0.179405080868084 34 66 27
-0.032983057792275 -0.008378010672225 0.106998434070623 53 120 55
-0.057818338255096 0.003607167754743 0.183386560165290 73 185 80
-0.046005997574296 0.011896452491363 0.147223176183419 34 83 41
-0.054606615619702 -0.027295011417018 0.176385205088799 62 150 63
-0.045255182677525 0.010488796037405 0.146909664434018 25 51 24
-0.047528484803746 0.030072407933601 0.155362651966665 62 150 64
-0.032961680995295 0.023843911421512 0.109522831634322 63 130 69
-0.042331978858992 0.019134023727795 0.139195348227909 51 127 49
-0.053772694319295 -0.022443287149414 0.175905938465407 64 156 66
-0.046646222625743 0.023858291807347 0.153673210567942 60 137 66
-0.048250347302299 -0.023281749495145 0.160887203011631 56 142 64
-0.039390865289861 0.009620158162169 0.134291602377325 82 180 81
-0.042592549134119 -0.030891494267502 0.146683879698963 50 129 52
-0.039918908316474 0.018275185248734 0.138494402356010 61 177 72
-0.052882621186472 -0.001648555189334 0.181541187596453 74 176 79
-0.038347047349018 0.006102603620419 0.133791960502574 45 108 43
-0.049336648910397 0.025958806159358 0.171572085756372 69 146 70
-0.049223045225647 0.027738231752501 0.171352045096061 57 114 56
-0.030955002044486 -0.006234480720372 0.110405231401661 53 120 54
-0.037534930030685 0.007216920726721 0.133668879960777 48 119 54
-0.026791378615317 0.010826241592488 0.097136519371538 57 136 59
-0.047439184115592 -0.003331522030701 0.169281883838972 65 152 73
-0.025781268904291 -0.016230351482976 0.095523230194987 72 153 74
-0.041114820743878 -0.006207030531088 0.148139096388577 43 108 45
-0.040954529781529 -0.005498501324384 0.148162719836023 34 67 32
-0.036780951142703 0.008697587005466 0.134300710088975 46 107 46
-0.047227875720795 0.028720231874728 0.172003042524640 62 143 67
-0.048802928352051 0.036243783071261 0.178284819356619 69 156 73
-0.025204717747410 -0.015773089978344 0.095394765272878 29 76 28
-0.038484335999872 -0.033233312822607 0.145403818787212 79 157 71
-0.046544225032968 0.000764425177081 0.172374733436250 80 165 79
-0.025016518495437 0.010080775048629 0.096352453611281 57 136 63
-0.038998391905526 -0.012246237921092 0.148098537631678 63 142 59
-0.044566652134829 0.029497992438036 0.170309504147558 80 189 82
-0.041714780533117 -0.022870190975710 0.159889140741973 52 125 55
-0.047318064611095 0.002959292961833 0.179634003177939 59 144 65
-0.045880235063925 0.038072677684878 0.176785117366559 65 151 75
-0.050617432016490 -0.041398438792065 0.194949185730683 42 109 48
-0.043045313702927 -0.005491282973625 0.166830750646076 54 129 52
-0.038108648928345 -0.010388589321647 0.149201526616212 68 167 78
-0.041326560248201 0.008806738987000 0.162659100181070 62 173 76
-0.041217755582628 0.010937421025920 0.162323112723017 59 121 57
-0.037020584706548 -0.013654379795481 0.147831793742845 65 139 67
-0.042099376256597 0.030164480290456 0.169221804414773 46 112 45
-0.043547238339639 0.034959726641046 0.175274986091324 66 163 64
-0.044330985174561 0.000357809575131 0.177791606516599 40 81 29
-0.041947164344363 0.004448451319406 0.168621237482105 69 164 73
-0.041206903182331 -0.007095443113623 0.166529268697720 64 159 70
-0.040296668699472 -0.025863473464998 0.168525487259321 72 176 82
-0.042638601072116 0.000793849839264 0.176866400103048 50 112 59
-0.035070935467612 -0.014006442806054 0.147638309927950 73 165 79
-0.038423206569430 0.010685251943872 0.160996186062463 83 188 84
-0.032716790869989 0.019906300646446 0.138570759478950 74 179 72
-0.038870790158893 0.025875354031006 0.164521456575552 67 144 64
-0.042681798174699 -0.013193610044605 0.179795868524536 71 148 66
-0.035882008119011 0.007390704114648 0.152844876872560 60 140 63
-0.038934979442746 0.028779728894445 0.166613795459789 63 157 66
-0.038384389501564 -0.023363398546084 0.167758725825117 59 143 58
-0.039825780948523 -0.000481629011279 0.175542999504908 65 179 76
-0.035234646304845 0.015575205571279 0.157314085703828 51 147 57
-0.038267340047325 0.033957182190461 0.172630252693132 38 102 42
-0.030954608223136 -0.016667812084700 0.141938145268434 43 114 47
-0.040492749879665 -0.007895489122979 0.183031799074051 74 180 89
-0.037792196416263 0.011628263026468 0.171475566586458 70 166 79
-0.038134513420638 -0.004541141365154 0.175437694569492 74 162 67
-0.041212093815213 -0.041088149276143 0.192447369550026 62 177 65
-0.040956672792836 -0.037800422996260 0.191935475268134 73 176 81
-0.027018984653087 0.003343576397419 0.128999691316257 52 139 59
-0.033612267816881 0.007903964151972 0.158882948343650 74 165 67
-0.033032805059937 0.017990143849074 0.156727930650058 62 162 62
-0.020147106645176 0.013300041610548 0.098150850740458 64 150 70
-0.020053245403475 0.014955602698123 0.097785344016617 61 144 70
-0.039785181799951 -0.012796421895523 0.192002701276996 58 141 61
-0.018733672838752 0.016681737973503 0.095378475314040 64 162 66
-0.037757836969854 -0.017442036228291 0.189074246426478 62 160 62
-0.033907677117309 0.009061331147997 0.173305659865931 60 157 64
-0.030004415849521 -0.035608168766759 0.156991430948700 64 169 78
-0.019761540428758 -0.002793669408026 0.104517432355785 57 128 55
-0.024446378094141 0.004879539363333 0.128356274598367 43 102 46
-0.029636562344851 -0.033163676260376 0.156725947250359 88 216 94
-0.036195492840676 0.016133097067300 0.189248791935800 35 112 46
-0.031766591553410 0.038004217093053 0.171061199962717 25 50 22
-0.036574970668940 0.001820607208330 0.194201983878867 58 153 64
-0.033351616747376 0.039277791755430 0.180326716955182 32 78 31
-0.028837696237329 -0.020785818124509 0.168701631262803 75 180 78
-0.018059732754611 0.024388847913292 0.108927499207892 53 130 57
-0.032445877746986 -0.039753674999383 0.191707220506217 50 99 47
-0.027664151992684 0.024181577039027 0.164750619282606 65 131 63
-0.031596345514772 -0.038344101226203 0.189335413083682 83 147 80
-0.031366084813805 -0.039267458338199 0.189420559215981 42 82 38
-0.031477594848914 -0.016943179789921 0.188194554907186 33 92 42
-0.017537395055965 0.023356608274866 0.108783408197410 52 126 55
-0.027129493940433 0.020839858961428 0.164818387825244 65 149 73
-0.030374461114850 -0.021113823935678 0.184668105753646 60 137 65
-0.031073433105796 0.002735199187617 0.189462240570972 10 30 15
-0.026451163301810 0.023974585877510 0.164558617054638 76 177 78
-0.028000718351425 -0.004575672676373 0.176465796657296 67 173 74
-0.021596140615460 0.002586099404286 0.137835891609112 53 125 60
-0.026381971208145 -0.026358355593822 0.170212802528839 67 170 74
-0.027526846792987 -0.001537839073926 0.176160866810184 68 151 72
-0.023018861130820 0.005293804391486 0.148614965908483 20 45 20
-0.027949087509649 -0.017739860221697 0.188993204310291 30 76 33
-0.016746221713574 -0.005826423479897 0.116133141774356 67 164 72
-0.020057200450489 0.002751888342436 0.137510607969032 67 149 67
-0.024362400188809 -0.024957726044186 0.170293651871801 74 188 70
-0.022509096167691 0.019586863077389 0.157746896758507 43 95 40
-0.022105814653921 0.023971142553555 0.157922576421083 28 67 29
-0.023417072727256 -0.020689897337827 0.169145582623451 67 155 69
-0.024057134189444 -0.001495498720257 0.172893541422520 83 174 82
-0.024969761817998 0.013535783358100 0.181015079765646 81 158 72
-0.020066861406575 0.003304473039629 0.147983112085481 69 153 75
-0.020829588754193 0.035104187335383 0.156754019696516 52 133 58
-0.021198197085528 -0.009863534076669 0.158687864125515 59 142 64
-0.019517331317765 0.008165724304456 0.147994609933932 63 130 61
-0.019140044714905 0.029526593360894 0.146701689551324 65 149 64
-0.020332795820118 0.021631666538477 0.157283797483015 49 118 48
-0.021821905608108 -0.025144461993673 0.171313986051552 86 190 83
-0.022697765290523 -0.041172169854882 0.182695973115635 88 206 100
-0.023262744065013 -0.038789487760570 0.186659002659700 32 60 30
-0.019846799833720 -0.003104712914449 0.159999429943802 51 146 52
-0.017877382918968 0.008701291794867 0.147785206434274 38 100 42
-0.015973097519405 -0.015332032121314 0.134423373422178 79 166 75
-0.019024189632183 -0.012358164459599 0.158334912875454 22 64 24
-0.017090980911052 0.030056280187776 0.145821017035047 50 120 47
-0.018867710699109 0.011981290853612 0.160216566179681 62 146 60
-0.021012439971313 0.037918025838984 0.179672553795468 17 44 22
-0.018829586699649 -0.039390834968659 0.165298868153656 131 255 135
-0.018658549630205 0.003789658125447 0.161460756067540 72 166 71
-0.014956417133196 0.028789458697734 0.145365138509539 39 88 41
-0.015064802923899 0.031108471451915 0.146590239532899 60 154 61
-0.016776609349876 -0.039061250114663 0.164655927345459 87 252 94
-0.014725440175811 -0.005510342327560 0.143424001265563 76 172 72
-0.018960222416121 -0.032661306148336 0.185932953328012 85 200 93
-0.018165943969331 0.009156776864683 0.177157921903541 64 153 72
-0.013596980749883 -0.005127242171787 0.142591870988623 93 203 101
-0.011802592664005 0.015029017144840 0.125200600853267 68 154 71
-0.015160947423971 -0.038804805945412 0.164330001637444 101 255 107
-0.013044100620624 -0.003033715154113 0.142224031129930 53 128 58
-0.009727657550017 0.011174732441742 0.112464507907503 66 162 71
-0.009556639927671 0.022446759926711 0.111234988677926 71 162 80
-0.011376818541206 -0.014948808777825 0.133763835413135 64 165 66
-0.013874292754996 -0.038506352386613 0.165410110440189 85 255 106
-0.011459897624462 -0.004755136014087 0.141926057137784 56 134 69
-0.009647912658825 -0.000729823424192 0.120759771918112 61 155 80
-0.014406991654218 0.008699669587926 0.176419807924906 37 101 43
-0.011199259485063 0.021192647933183 0.139654460961192 53 126 55
-0.011195482534793 -0.006710564162925 0.142936432309194 54 131 56
-0.009319259822705 0.001013149911233 0.120307354461353 46 117 48
-0.011165115252078 0.024897186748157 0.143605508587980 64 143 65
-0.009371782086129 0.014559888716823 0.124920858058106 61 145 60
-0.008728691330572 0.001447052487783 0.120173709736819 33 100 35
-0.013857090125693 -0.022298939687536 0.189586631523710 74 156 74
-0.007827326322092 0.021246162783238 0.111019385136271 45 121 48
-0.012464170536065 -0.011120472556243 0.176574169857360 69 166 76
-0.008286949359982 0.001302076761954 0.120077827979656 68 172 71
-0.010747015469812 -0.037793005724946 0.166380727716839 64 210 74
-0.011380622523573 -0.014400682939853 0.176756332718358 76 173 71
-0.006023659569948 0.013792916619111 0.107052342888589 74 172 85
-0.008162518250737 -0.027492059512166 0.145840885954587 100 210 92
-0.006131512343185 0.004312078761544 0.115362941355113 82 170 83
-0.006455117846938 0.025482333533135 0.122070808798672 43 100 46
-0.005973468658696 0.006645018729642 0.115060997729350 79 165 81
-0.008169346205289 -0.037214079116197 0.167188755545155 61 202 75
-0.005882049830829 -0.000878902697560 0.121202492101618 17 58 23
-0.005877701126316 -0.000293810458370 0.121117593805372 118 222 106
-0.004742501526173 0.012516760370165 0.106934534279060 37 98 37
-0.008484635020423 -0.015250962383075 0.194439802802851 56 122 53
-0.004589204967362 0.004991810111496 0.115040949613033 80 162 77
-0.007539841068161 -0.015534958764561 0.194927774638305 75 184 84
-0.005756876094726 -0.025229008741909 0.161368756542829 72 174 65
-0.006823816757825 -0.024378129969807 0.189315805978213 55 120 59
-0.003277412788130 0.006932303458288 0.095081663310137 58 158 60
-0.005223189993212 -0.022524099197189 0.162871923831952 75 173 78
-0.003862539314417 0.002058607400119 0.122153669002445 11 26 4
-0.003709129764015 0.016906826473863 0.122454207188218 38 91 39
-0.004741752720922 -0.037659831710147 0.168165071485745 93 254 105
-0.003418614420438 0.001616537813849 0.122139249369134 58 143 60
-0.003380077591965 0.026916115769201 0.122054175076579 58 132 63
-0.002822834258515 0.001614959000234 0.121966056810959 20 57 22
-0.002191495299301 0.005345751074545 0.096711472695663 81 181 82
-0.002141325937549 0.007575102006043 0.094731314035382 77 165 84
-0.003438435223201 -0.008176066848543 0.182983828975617 48 120 41
-0.001727318531814 0.003119764193593 0.102654320815365 60 135 65
-0.002792323746346 -0.012876703435102 0.185263009556342 57 145 58
-0.001630319650843 0.022403332485057 0.112725849597306 46 100 43
-0.002069641525384 -0.037255349205867 0.167272677228467 110 255 121
-0.001504469575137 0.000289674702311 0.122766008118336 47 120 40
-0.002092550543869 -0.019890930159399 0.184650012673846 66 163 75
-0.001369747262689 -0.004671803189371 0.179529958519971 51 91 51
-0.000902645493208 0.017187331786984 0.122354145401494 55 137 62
-0.000445050613664 0.010866141224448 0.092572096871234 46 117 43
-0.000652601423431 -0.036915421236690 0.169223898718539 77 236 88
-0.000010588191921 0.002875643473621 0.102634750910440 54 127 63
0.000185235188573 -0.004833554869978 0.177591976413937 59 127 63
0.000412442154738 -0.010541027745597 0.180989647837612 38 71 36
0.000455160858912 -0.011721640677585 0.130355610400538 83 168 86
0.000910060536395 -0.028830186715168 0.154130872040887 72 167 75
0.001801416978545 -0.017265572012751 0.185676496514707 12 17 8
0.001209087167581 0.018480225949438 0.127036080113423 76 147 73
0.001660431541846 -0.030518877284517 0.154291049288868 94 194 85
0.001342227402988 0.024603580752302 0.113729242801660 70 120 64
0.001810788571270 0.005146484018395 0.125631396776264 87 181 81
0.002822108249660 -0.007907117092674 0.177550714538098 31 61 17
0.002811607856064 -0.037173985769276 0.166935048570284 95 255 103
0.002787202640187 -0.028834717072502 0.154163784240311 69 157 68
0.001793832694047 0.010842208865988 0.095078090421104 81 176 88
0.001833820639166 0.019088902864752 0.097397436044826 70 149 70
0.003699938224994 -0.009882458705617 0.177559532942229 55 143 73
0.002880888739129 -0.001947024090721 0.139763402418668 68 147 69
0.004036059399416 -0.023559975261133 0.183333007971809 36 96 38
0.004494533459651 -0.030862133392495 0.184205758354360 55 132 57
0.004465721653293 -0.037008941391831 0.167937442608588 66 212 80
0.003922705970148 -0.002642706369006 0.140359786708612 30 82 31
0.003509876639230 0.019387127422073 0.127058238699177 84 174 95
0.002728245220151 0.001957472252486 0.092481704233039 92 213 105
0.003912353204337 0.007667196084545 0.124753157607858 96 200 101
0.005160499635598 -0.037640681816837 0.158663181593588 111 255 124
0.003968901237595 -0.000445473830516 0.121924554247557 74 194 89
0.004868143310000 -0.014391819805123 0.143158634193291 62 139 60
0.004276806946728 0.005176878698589 0.126426220893085 14 41 14
0.004243983922779 0.006504914888058 0.125542363599047 50 147 52
0.006537268707422 -0.027922935176883 0.184051397711608 43 117 51
0.005043260312237 -0.011424798452398 0.143037037345835 56 124 55
0.005326794020363 -0.004556885856690 0.141201520919589 67 149 76
0.004194223545285 0.023803487355318 0.113735236041071 62 152 69
0.006936542730381 -0.036279307021443 0.168274859544629 65 189 70
0.005255510198895 -0.007298680886716 0.127823538776878 41 113 50
0.005826237523005 0.020756040813248 0.137750221296946 44 106 48
0.005457066341126 0.009721605624204 0.122366067250916 42 109 43
0.004378576994944 0.022592834284727 0.100297752141854 77 174 81
0.005417919339798 0.023945386195440 0.113799031883293 46 99 46
0.006144892580529 0.010957146203250 0.121466028479921 61 163 81
0.008246857918660 -0.006511707532360 0.153211764744596 26 59 24
0.008506167565433 -0.005055408626724 0.154418506399756 83 177 80
0.006153105443421 0.000708629254327 0.113821382512535 69 145 67
0.010568179092321 -0.013630518072468 0.186212675669194 30 68 30
0.010341261851392 -0.034104505636630 0.173294239016380 48 123 57
0.007580051059738 0.006947091346931 0.125427176706067 73 159 69
0.012206875889397 -0.014123458084470 0.186654045237685 17 29 13
0.011027476501658 -0.036868546953727 0.168338245829163 67 214 75
0.006581312320243 0.022110456708321 0.101265315705862 54 105 44
0.006701589020105 0.021516604746443 0.101235385494218 21 49 17
0.009061283702435 -0.009696328494091 0.127045992782130 68 164 76
0.008073635224738 0.000024847926638 0.113892509927245 76 160 82
0.012489248113132 -0.019600728487759 0.169790822648550 37 104 40
0.010241748533355 0.014422566199588 0.140539032056457 56 126 54
0.013499463239461 -0.029230833771169 0.175283212797449 53 140 54
0.007543377742949 0.021047641760894 0.101258313337693 78 192 102
0.011059765052699 0.006134660876940 0.141870761881617 53 142 61
0.007319215904482 0.015449835065258 0.096759888157426 83 191 100
0.014541706424712 -0.008179187436811 0.178743042598843 60 140 66
0.009042151277180 -0.000522975174174 0.114027173443288 45 125 61
0.009830393277688 0.010244126141229 0.123473270224690 85 182 85
0.013098047497825 -0.016544486485974 0.157611642799462 34 68 30
0.010049436009928 0.010018807415462 0.122568897411417 46 101 47
0.007893625575358 0.016021813928085 0.096818408983685 13 40 15
0.014366370156876 -0.036828110157414 0.169147415135444 74 229 84
0.010602413620845 0.007735335696106 0.123704545641120 77 179 90
0.010105415687239 0.016163248326913 0.115583622686356 57 136 54
0.015453871351246 0.007537812768765 0.169908853846788 14 32 15
0.012804815754331 0.006830321515218 0.142100260634873 45 104 43
0.010946158276012 0.017279531522258 0.115764494010952 74 171 76
0.016436068759575 -0.036653303258351 0.169351288885822 102 255 102
0.012866681754776 0.012312979124029 0.132840991206251 67 156 60
0.018116696409852 -0.007761193788543 0.179311985885514 46 102 50
0.015824503307363 0.031481581620523 0.154057466243067 53 151 64
0.014105910530528 -0.003339594782441 0.135090157001110 92 192 86
0.013914249822558 0.013834805090965 0.133690757835542 68 151 68
0.011908592342781 0.015335240705428 0.115615018540207 74 170 87
0.013653009950721 -0.008819540984003 0.129708499583876 75 155 77
0.015094924853176 0.002162819364239 0.142455743221989 31 103 42
0.013714927126983 0.006724606657617 0.130205152611826 85 185 93
0.015787924797847 0.026526706112387 0.149913823718040 61 144 60
0.011631121016238 -0.012969710633391 0.108383546410778 92 180 85
0.017185744426542 0.005200677161194 0.156082639430276 55 129 60
0.012845484621510 0.018577894528008 0.117918687960550 72 158 69
0.014683401224151 0.008938161840930 0.130492797036177 66 153 69
0.019524999700782 -0.036292253003065 0.166246487948967 115 255 121
0.015749644827663 0.011334658654499 0.132812542949166 72 155 70
0.016800355463867 -0.027077283033163 0.140847192942968 71 153 67
0.012807014165430 -0.012854152435761 0.108515660435701 49 104 47
0.016269742009551 -0.004006109128240 0.135435299679325 54 118 56
0.015721848175118 -0.008523569155956 0.130005499518892 47 118 53
0.019126748310770 -0.001397843823785 0.149328633157587 40 116 48
0.017581685215903 -0.019753426905651 0.134962380412059 78 183 76
0.013199868976679 -0.006021771376581 0.102764242908609 73 137 68
0.022560626138092 0.000833007900160 0.168702744520904 65 151 76
0.013539113312264 0.016991906853748 0.104659936829713 46 124 51
0.012168243597409 0.008347532163203 0.093720061273399 42 90 43
0.020274834216544 0.030597026909742 0.150201982903390 63 155 66
0.023104821024740 -0.037561840901679 0.167670079104105 206 255 207
0.012615252072660 0.008459797780612 0.093766540340401 89 190 107
0.018136774745856 -0.010506829954989 0.129526258019988 56 122 47
0.013120182668423 0.017629959973150 0.095993154120493 83 179 81
0.019239496777178 -0.018480916200922 0.135165086733290 68 159 64
0.013823504535051 0.010211025141674 0.093787947295689 51 135 62
0.020928155722059 -0.015428612584802 0.135440874810666 63 141 65
0.021070090666678 -0.019823345871004 0.135592393551886 64 155 67
0.015913435993187 -0.002522020791044 0.103699139854643 69 163 70
0.026903034414963 -0.002094144267694 0.170231971456947 54 138 53
0.023239290662603 0.027961152183873 0.145264838417676 62 137 63
0.027615926447848 -0.037557929466474 0.167166088574629 95 255 108
0.023824887920399 0.025401001124217 0.144429107619006 76 153 75
0.022588731989067 -0.016594716841736 0.135764805541088 58 138 63
0.029532941506277 0.000825460775745 0.172310309208051 56 152 66
0.029279584902169 -0.036004993954746 0.171777057291185 66 204 78
0.019885230057335 -0.006894259087401 0.117678847345239 39 100 43
0.024858476704940 0.025569374371504 0.146375723712561 18 34 12
0.028711548833035 -0.037407706953085 0.166632466501055 126 255 143
0.023931320633686 0.027218597306549 0.136877397318997 73 166 80
0.029810169675043 -0.038604924601677 0.168413556670172 75 208 84
0.018500312810831 -0.002191816027542 0.105101472227907 110 229 103
0.031201581280725 -0.036781529716823 0.169195749641742 92 254 106
0.034962817746205 0.008578850959187 0.180947004986623 47 127 54
0.035429675414422 0.006368848433436 0.181052080099953 48 129 48
0.022897720206320 0.016325078553449 0.118477131761291 27 72 29
0.022928832582219 0.016769543487637 0.118653254253805 82 173 83
0.025303547839959 -0.024250924474719 0.129277049515068 80 170 79
0.024376251726770 0.026740472502808 0.123621708714445 51 107 52
0.023437731113338 -0.016808843253772 0.117818959280841 46 93 41
0.025831434154916 0.024457682281667 0.129627165628314 56 125 62
0.034350192966201 -0.037090142728714 0.169957421771859 72 216 85
0.031046450947510 -0.000157685650935 0.152316313526348 59 141 62
0.034764264925911 -0.036081707021055 0.170831653723717 71 200 77
0.024994143239058 0.027488216827993 0.123208987663737 79 168 79
0.034365889371524 -0.039403018690592 0.165798947931161 72 222 84
0.038585248220273 0.014707495985760 0.180998675792984 64 161 73
0.038828842740117 0.002363897723494 0.180741308981238 60 138 58
0.023802418889605 -0.010043867225613 0.112979473501122 68 141 71
0.037080194305593 -0.036345133182974 0.172223230298912 70 198 71
0.039921903232694 -0.004535449235224 0.182720426977907 34 75 34
0.025698702605933 0.015118238501419 0.119129564854188 59 139 62
0.037412711250543 0.007571755691377 0.169112055250979 58 138 58
0.025942628201775 -0.015063730539670 0.118422685763428 54 140 60
0.028398397731588 0.025933131274421 0.129717343642679 63 160 79
0.041286834520829 0.015988784367280 0.183459141894746 43 120 45
0.032133228488351 -0.026036673540890 0.144293665574015 101 218 109
0.042052480757122 -0.010155269136318 0.183602286077317 33 85 32
0.034909378633110 -0.012288675010990 0.152149803598953 43 113 46
0.033033879799661 -0.026761201642183 0.144602741098074 45 142 53
0.029983873590080 0.018083152272199 0.131325795835147 63 143 63
0.039300307618527 -0.037355378731597 0.169916208628422 118 255 127
0.027328145439393 -0.015840423915029 0.119053323234840 87 200 91
0.043489698839004 -0.007265470747175 0.184097935318066 73 197 81
0.043715664614800 -0.000984336096497 0.184077504979719 47 130 60
0.030234503932950 0.027280509278275 0.130565872804740 28 86 35
0.037918436256920 -0.010263310407446 0.159907521235926 64 174 73
0.034324595029311 -0.026134204506568 0.144999839721109 66 126 60
0.029166011039680 0.027395340757307 0.124450402311715 90 145 68
0.041131819215494 0.004500038548831 0.170372517942286 71 179 67
0.042908700069455 -0.037609620029947 0.173963026201192 64 206 77
0.042639931888741 -0.036330919324748 0.172785747983180 89 243 89
0.038096323773557 -0.013121605046981 0.153488440188910 76 177 80
0.032756897723487 0.022680471940434 0.132324122188640 42 95 38
0.028770536713435 0.014795005154181 0.116022218156812 56 130 61
0.037650127717267 0.007679971165337 0.148279720718137 89 195 77
0.037827777891664 0.004472905016554 0.148227224735292 79 165 78
0.027564994017046 -0.020493838620108 0.109910943630437 84 185 90
0.033625695171789 0.019587416427447 0.132491212923254 81 185 79
0.039823741472755 -0.000556735300284 0.153667412682426 60 140 55
0.031575245198458 0.026575620799779 0.124269161222520 72 151 74
0.027904438478548 0.009747262229046 0.108683081487971 63 148 66
0.043645545566332 -0.022481464751759 0.166463084421539 44 116 47
0.040630112510760 -0.008534825050265 0.154111082002953 79 170 88
0.040815850140303 -0.003157217777279 0.154040780209689 87 196 88
0.046502868399361 -0.036366139060263 0.175214052157188 82 218 86
0.035570859403730 0.009490719096524 0.134035704517003 63 152 60
0.043058727771931 -0.037140855389950 0.162338853543899 113 255 126
0.036662983887164 0.001194010985188 0.136671891419094 87 159 81
0.035469674588358 0.019955513757425 0.133098413256496 65 134 59
0.032107315534480 0.015964983552312 0.116981069497511 85 177 81
0.030069633152254 0.009261946115462 0.109226969163018 87 188 81
0.051045970298262 0.030620335436232 0.182139095059056 65 140 68
0.047456199168804 -0.008231532701610 0.165715946687173 72 145 64
0.039220669947697 -0.000124854549006 0.137856620292168 83 203 89
0.052272968180523 0.033312878256482 0.183049636770289 69 138 65
0.048462516226836 -0.009515642739210 0.167200670438234 50 115 53
0.046796210189803 -0.038178495485721 0.163211291642532 116 255 108
0.044243934156551 -0.012439514397799 0.152673591600350 86 171 77
0.052620466047380 0.030080486170234 0.181797678802581 62 138 56
0.050771683987805 -0.021118634041125 0.173447068686803 64 141 61
0.048300471894702 -0.035382653155168 0.165984605893030 76 232 95
0.039511898125103 0.012752577401948 0.135461358748031 75 170 76
0.053240210425759 -0.035516682832969 0.180771542476092 70 122 64
0.037410399586667 -0.021854026212260 0.128150824656022 94 189 90
0.058210386390105 0.008083201874454 0.195239473778234 68 154 69
0.053750658375156 0.030750536543450 0.182181660761148 26 65 33
0.029528041882645 0.012380743768252 0.100689475802803 92 186 92
0.046402043499120 -0.035298510563189 0.154658394505356 166 255 167
0.049934137900560 -0.035484819140251 0.165826929263966 93 250 102
0.053871505130885 -0.017440704148175 0.176164794805494 79 167 82
0.047168008376752 -0.009013796372380 0.153536636913736 42 109 42
0.036732708053974 -0.004023110696728 0.120229348822555 86 193 95
0.051110120604945 0.024559688078777 0.165682985952387 70 162 72
0.055041474543751 0.035536438823868 0.179025329487305 51 126 62
0.034898215302539 -0.020864978224001 0.113609412287449 78 139 65
0.039960419249238 -0.005568765355782 0.128528412427245 66 149 61
0.048470271450845 -0.032417396898821 0.154826371192031 101 219 108
0.055146362211599 0.021889567255382 0.172603269386912 73 150 75
0.040633086738551 0.009699379264565 0.127578635624158 93 186 89
0.049821275766879 -0.013319416317934 0.154868159208970 55 137 62
0.049676056875771 -0.034514585968847 0.155547484782095 97 243 101
0.047887357903638 0.003864831710263 0.148314906908165 79 164 77
0.041156259780161 0.026799388249576 0.127171702679280 49 103 54
0.055407458482890 0.024673089978726 0.168475740550485 76 142 70
0.051423045395254 -0.034588129672144 0.156102291560710 108 255 117
0.056061804701319 -0.019254386788146 0.167684547960367 104 206 97
0.042059205506493 0.022576342035733 0.127388452629236 53 112 60
0.043403240347692 -0.005440869363027 0.129239170485067 67 152 71
0.057432963637757 0.006562488914641 0.169553369880916 88 165 81
0.059166520900746 -0.036294811665494 0.175848845783753 101 198 97
0.043571349593930 -0.009493720443970 0.128584721650311 100 180 86
0.063017667546177 -0.032374766398190 0.184653236834444 78 136 70
